<svg xmlns="http://www.w3.org/2000/svg" viewBox="0 0 500 500"><g id="freepik--Floor--inject-2"><ellipse id="freepik--floor--inject-2" cx="250" cy="343.22" rx="246.32" ry="142.22" style="fill:#f5f5f5"></ellipse><g id="freepik--Trapdoor--inject-2"><ellipse id="freepik--Shadow--inject-2" cx="250" cy="391.44" rx="131.12" ry="77.41" style="fill:#e0e0e0"></ellipse><ellipse id="freepik--shadow--inject-2" cx="250" cy="391.44" rx="125.32" ry="72.35" style="fill:#10A810"></ellipse><ellipse cx="177.85" cy="349.78" rx="9.75" ry="6.1" style="fill:#fff"></ellipse><ellipse cx="151.44" cy="376.19" rx="9.75" ry="6.1" style="fill:#fff"></ellipse><path d="M148.91,400.8c5.2-.87,10.55,1.06,12,4.31s-1.7,6.6-6.9,7.47-10.55-1.06-12-4.31S143.71,401.67,148.91,400.8Z" style="fill:#fff"></path><path d="M171,428.79a14.21,14.21,0,0,1,13.79,0c3.81,2.38,3.81,6.24,0,8.62a14.21,14.21,0,0,1-13.79,0C167.14,435,167.14,431.17,171,428.79Z" style="fill:#fff"></path><path d="M214.17,446.77c1.39-3.25,6.74-5.18,11.94-4.31s8.3,4.21,6.9,7.47-6.74,5.18-11.95,4.31S212.77,450,214.17,446.77Z" style="fill:#fff"></path><path d="M267,449.93c-1.4-3.26,1.69-6.6,6.9-7.47s10.55,1.06,11.94,4.31-1.69,6.6-6.9,7.47S268.38,453.18,267,449.93Z" style="fill:#fff"></path><path d="M315.26,437.41c-3.81-2.38-3.81-6.24,0-8.62a14.21,14.21,0,0,1,13.79,0c3.81,2.38,3.81,6.24,0,8.62A14.21,14.21,0,0,1,315.26,437.41Z" style="fill:#fff"></path><ellipse cx="348.56" cy="406.69" rx="9.75" ry="6.1" style="fill:#fff"></ellipse><path d="M351.09,382.08c-5.2.87-10.55-1.06-11.95-4.31s1.7-6.59,6.9-7.46,10.55,1.05,11.95,4.31S356.29,381.21,351.09,382.08Z" style="fill:#fff"></path><path d="M329.05,354.09a14.16,14.16,0,0,1-13.79,0c-3.81-2.38-3.81-6.24,0-8.62a14.21,14.21,0,0,1,13.79,0C332.86,347.85,332.86,351.71,329.05,354.09Z" style="fill:#fff"></path><path d="M285.83,336.11c-1.39,3.26-6.74,5.19-11.94,4.31s-8.3-4.21-6.9-7.46,6.74-5.18,11.95-4.31S287.23,332.86,285.83,336.11Z" style="fill:#fff"></path><path d="M233,333c1.4,3.25-1.69,6.59-6.9,7.46s-10.55-1.05-11.94-4.31,1.69-6.59,6.9-7.46S231.62,329.71,233,333Z" style="fill:#fff"></path></g></g><g id="freepik--Shadows--inject-2"><ellipse id="freepik--shadow--inject-2" cx="363.09" cy="283.34" rx="39.35" ry="22.72" style="fill:#e0e0e0"></ellipse><ellipse id="freepik--shadow--inject-2" cx="433.35" cy="346.69" rx="39.35" ry="22.72" style="fill:#e0e0e0"></ellipse><ellipse id="freepik--shadow--inject-2" cx="136.91" cy="283.34" rx="39.35" ry="22.72" style="fill:#e0e0e0"></ellipse><ellipse id="freepik--shadow--inject-2" cx="66.65" cy="346.69" rx="39.35" ry="22.72" style="fill:#e0e0e0"></ellipse><ellipse id="freepik--shadow--inject-2" cx="222.65" cy="387.76" rx="54.24" ry="31.31" style="opacity:0.07"></ellipse></g><g id="freepik--Window--inject-2"><g id="freepik--window--inject-2"><path d="M73.11,88.63v86.93c0,8.29,5.8,11.61,13.21,7.9,93.71-46.9,233.64-47,327.35-.09,7.41,3.71,13.22.39,13.22-7.89,0-22.44,0-64.5,0-86.94,0-8.28-5.81-18.39-13.22-22.1C320,19.55,180,19.63,86.32,66.53,78.91,70.24,73.11,80.35,73.11,88.63Z" style="fill:#e0e0e0"></path><path d="M83.11,88.63c0-4.7,3.8-11.22,7.68-13.16,44-22,100.61-34.16,159.36-34.16s115.14,12.1,159,34.08c3.88,1.94,7.69,8.45,7.69,13.16v85.26c-46.45-22.94-105.6-35.56-166.74-35.56s-120.49,12.65-167,35.64Z" style="fill:#263238"></path><path d="M271.05,70a27.34,27.34,0,1,1-23.38-9.78A27.36,27.36,0,0,1,271.05,70Z" style="fill:#10A810"></path><path d="M239.73,66.28c-1.19.4-2.58,1.32-1.25,1.64s2.05.15,2.34,1,0,2,.5,2.51,1.18,1.11,1.56.75,1.18-2.14,1.91-2.3,3.17-.84,3.27-1.74.47-1,.76-2-.11-2.22-.82-2-.7.55-1.9.85-2-.31-3.09.27A20,20,0,0,1,239.73,66.28Z" style="opacity:0.30000000000000004"></path><path d="M235.4,68c-1.11,1.16-3.61,3.16-5,3.22-.71,0-1.58,0-2.46.13a27.45,27.45,0,0,0-5.15,18.45,8.69,8.69,0,0,0,1.76,1.44,5.22,5.22,0,0,0,3.92.52c1.39-.17,1.22.7,2.11,1.26a6,6,0,0,0,2.17,1.1c.87.17.12,1.27.11,2.21s.05,1.43,1.21,2.94,3.34,2.35,4.07,2.84.11,1.55.78,2.87,1.79,5,3.79,6.66,2.72,1.14,2.16-.22-1.44-2.54-1-3.85,2.2-1.56,2.14-3.65.32-2.13,1-3.06.1-1.37.45-3.12.14-3.22-1.28-3.44-2.21.11-3.72-1A14.15,14.15,0,0,0,237.08,91c-1.78-.33-3.86,1.45-4.91,1.48s-2.24-1.6-2.41-2.33-.94-.67-1.57-.28-1.16.08-1.65-.78.57-2.49,1.71-3,1.94-.13,2.65,1.3A3.07,3.07,0,0,0,234,89.23c1.16-.08.13-1-.88-1.5s-1.28-1.19-1.25-3.06,1.49-2.2,2-4.09,1.13-.79,2.25-1,.77-.71.85-1.81,1.7-.7,2.56-1.84-1.86-1.63-2.05-2.74.88-1.42-.23-2.82-.31-1.73-.08-2.46S236.52,66.86,235.4,68Zm-.32,4.4c-.09.9-.44.85-.74,1.9a3.45,3.45,0,0,1-1.6,2.08c-.56.25-1.85-.47-2.11-1.1s.61-1.11,1.61-1.58a6.12,6.12,0,0,0,2.45-2.26C235.25,70.63,235.18,71.52,235.08,72.42Z" style="opacity:0.30000000000000004"></path><path d="M275.32,77.13l0,.07a2,2,0,0,0-.7,1.36c-.12,1.64-.43,1-1.5,2.47s-.3,2,.1,3-.85,2.6-1.54,3.21-.3,3,.31,4-.55,1.89-1,3.14-.4,3.08-.67,4a2.59,2.59,0,0,1-2.06,1.91c-1,.14-2.39-1.14-3.35-2.34a8.46,8.46,0,0,1-1.8-4.24c-.18-1.58-.23-1.36-1.33-3.56a3.87,3.87,0,0,0-3.92-2.3c-1,.06-2.28,1.06-3.23.85S253.11,88,251.89,86s-.31-2.85.16-4.3a8.52,8.52,0,0,1,3.09-4.12,4.64,4.64,0,0,1,3.57-.67c1.06.17,1.81,1,2.49.91s1.12-.66,1.81-.74,1.23.09,1.83-.22,0-.92-.26-1.29-.76-.09-1.52.16a1.17,1.17,0,0,1-1.46-.33c-.44-.42-.73.17-1.16.08s-.06.82,0,1.19-.4-.17-.4-.17-.15.59-.36.41-.08-.83-.3-1.38-1-.15-1.63-.42a2,2,0,0,0-2,.35c-.61.45-.79.32-.9,1s-1.47,1.6-2,1.67-.48-1-.34-2,1.06-1,1.3-2-.51-.92-1-.9-.83-.4-.68-1.65.91-1.17,1.35-.75a1.8,1.8,0,0,0,1.77.27c.65-.2.35-.61,0-1.54a1.83,1.83,0,0,1,.69-2.2A13.08,13.08,0,0,0,258.36,65c.38-.68,1.45-.66,2.14-.27a5.87,5.87,0,0,0,3.13,0,1,1,0,0,0,.75-.55A27.21,27.21,0,0,1,275.32,77.13Z" style="opacity:0.30000000000000004"></path><path d="M274.58,91.51c-.67.1-.55.29-.76.9s-.57,1.36-.3,1.85.52,1.11.83.59,0-.94.55-1.42S275.58,91.36,274.58,91.51Z" style="opacity:0.30000000000000004"></path><path d="M249.34,62.23c-18.11.57-17.56,12.86-6.48,17.15s26.89,1.77,27.4-3.58S262.81,61.81,249.34,62.23Z" style="fill:#fff;opacity:0.4"></path><path d="M247.16,102.8c-16.29-6.42-22.51-27.06-13.36-37.34h0c-.43.32-.85.64-1.26,1a27.35,27.35,0,1,0,44.71,23.34C275.24,96,263.44,109.2,247.16,102.8Z" style="opacity:0.15"></path><g id="freepik--Stars--inject-2"><path d="M201.88,65.43a.78.78,0,1,1-1.56,0,.78.78,0,0,1,1.56,0Z" style="fill:#f0f0f0"></path><path d="M205.1,65.82a.46.46,0,1,1-.45-.45A.45.45,0,0,1,205.1,65.82Z" style="fill:#fafafa"></path><path d="M341.69,73a.78.78,0,1,1,1.18,1,.78.78,0,1,1-1.18-1Z" style="fill:#f0f0f0"></path><path d="M339.51,70.55a.47.47,0,0,1,.65,0,.46.46,0,0,1,0,.65.45.45,0,0,1-.64,0A.46.46,0,0,1,339.51,70.55Z" style="fill:#fafafa"></path><path d="M146.92,76a1.37,1.37,0,1,1,1.92.26A1.37,1.37,0,0,1,146.92,76Z" style="fill:#f0f0f0"></path><path d="M142.05,78.81a.79.79,0,1,1,1.26-1,.79.79,0,1,1-1.26,1Z" style="fill:#fafafa"></path><path d="M200.17,116.7a.64.64,0,1,1-.9,0A.63.63,0,0,1,200.17,116.7Z" style="fill:#fafafa"></path><path d="M206.06,119.49a1,1,0,1,1-1.47,0A1,1,0,0,1,206.06,119.49Z" style="fill:#fafafa"></path><path d="M386.55,92.5a.93.93,0,0,1,0,1.86.94.94,0,0,1-.92-.94A.93.93,0,0,1,386.55,92.5Z" style="fill:#fafafa"></path><path d="M395.59,89.6a1.52,1.52,0,0,1,1.49,1.54,1.52,1.52,0,1,1-1.49-1.54Z" style="fill:#fafafa"></path><path d="M304.1,117.86a1,1,0,1,1-1-1A1,1,0,0,1,304.1,117.86Z" style="fill:#fafafa"></path><path d="M301,120.7a.62.62,0,1,1-1.24,0,.62.62,0,1,1,1.24,0Z" style="fill:#fafafa"></path><path d="M299.23,116.82a.5.5,0,0,1-.5.5.5.5,0,0,1,0-1A.5.5,0,0,1,299.23,116.82Z" style="fill:#fafafa"></path><circle cx="106.01" cy="92.6" r="1.04" style="fill:#fafafa"></circle><path d="M104,95.44a.63.63,0,1,1-.63-.62A.63.63,0,0,1,104,95.44Z" style="fill:#fafafa"></path><path d="M102.18,91.56a.5.5,0,0,1-.5.5.5.5,0,0,1-.5-.5.51.51,0,0,1,.5-.5A.5.5,0,0,1,102.18,91.56Z" style="fill:#fafafa"></path><circle cx="290.97" cy="71.76" r="0.64" style="fill:#fafafa"></circle><path d="M294.6,63.4,296,64.82l2-.38a.23.23,0,0,1,.25.33l-.91,1.81,1,1.77a.24.24,0,0,1-.24.34l-2-.31-1.38,1.48a.23.23,0,0,1-.39-.12l-.33-2-1.83-.85a.23.23,0,0,1,0-.42l1.79-.93.25-2A.23.23,0,0,1,294.6,63.4Z" style="fill:#fafafa"></path><path d="M327.27,96l.23,1.54,1.4.7a.18.18,0,0,1,0,.32l-1.4.69-.23,1.55a.17.17,0,0,1-.3.09l-1.09-1.12-1.54.27a.18.18,0,0,1-.19-.26l.73-1.38L324.15,97a.18.18,0,0,1,.19-.26l1.54.27L327,95.88A.17.17,0,0,1,327.27,96Z" style="fill:#fafafa"></path><path d="M177.48,91l.22,1.55,1.4.69a.18.18,0,0,1,0,.32l-1.4.69-.23,1.55a.18.18,0,0,1-.3.1l-1.09-1.12-1.54.26a.18.18,0,0,1-.19-.26l.73-1.38-.73-1.38a.18.18,0,0,1,.19-.26l1.54.26,1.09-1.12A.19.19,0,0,1,177.48,91Z" style="fill:#fafafa"></path></g></g></g><g id="freepik--Capsules--inject-2"><g id="freepik--abstract-capsule--inject-2"><path d="M330.29,269.63c0,4.84,3.21,9.69,9.61,13.39,12.81,7.39,33.58,7.39,46.38,0,6.4-3.7,9.61-8.55,9.61-13.39V127.43H330.3Z" style="fill:#10A810"></path><path d="M330.29,269.63c0,4.84,3.21,9.69,9.61,13.39,12.81,7.39,33.58,7.39,46.38,0,6.4-3.7,9.61-8.55,9.61-13.39V127.43H330.3Z" style="fill:#fff;opacity:0.5"></path><path d="M391.69,268a24.31,24.31,0,0,0-5.41-4.15c-12.81-7.4-33.57-7.4-46.38,0a24.47,24.47,0,0,0-5.4,4.15h-4.2v9.24h0c0,4.84,3.2,9.69,9.6,13.39,12.81,7.39,33.57,7.39,46.38,0,6.41-3.7,9.61-8.55,9.61-13.39V268Z" style="fill:#263238"></path><ellipse cx="363.09" cy="269.63" rx="32.8" ry="18.93" style="fill:#37474f"></ellipse><path d="M363.09,251.56c8.61,0,16.69,1.92,22.76,5.43,5.92,3.41,9.17,7.9,9.17,12.64s-3.25,9.22-9.17,12.64c-6.07,3.5-14.15,5.43-22.76,5.43s-16.69-1.93-22.76-5.43c-5.91-3.42-9.17-7.91-9.17-12.64s3.26-9.23,9.17-12.64c6.07-3.51,14.15-5.43,22.76-5.43m0-.87c-8.39,0-16.78,1.85-23.19,5.55-12.8,7.39-12.8,19.38,0,26.78,6.41,3.69,14.8,5.54,23.19,5.54s16.79-1.85,23.19-5.54c12.81-7.4,12.81-19.39,0-26.78-6.4-3.7-14.79-5.55-23.19-5.55Z" style="fill:#455a64"></path><path d="M335.93,261c0,4,2.66,8,8,11.09,10.61,6.12,27.8,6.12,38.41,0,5.29-3.06,7.95-7.08,7.95-11.09V121.86H335.93Z" style="fill:#10A810"></path><path d="M386.77,259.55a20.65,20.65,0,0,0-4.47-3.44c-10.61-6.12-27.81-6.12-38.41,0a20.48,20.48,0,0,0-4.48,3.44h-3.48v7.65h0c0,4,2.66,8,8,11.09,10.6,6.12,27.8,6.12,38.41,0,5.3-3.06,7.95-7.08,7.95-11.09v-7.65Z" style="fill:#263238"></path><ellipse cx="363.09" cy="260.96" rx="27.16" ry="15.68" style="fill:#10A810"></ellipse><path d="M363.09,246.15c7.11,0,13.77,1.59,18.77,4.47,4.85,2.8,7.53,6.48,7.53,10.34s-2.68,7.54-7.53,10.34c-5,2.89-11.66,4.48-18.77,4.48s-13.77-1.59-18.77-4.48c-4.85-2.8-7.52-6.47-7.52-10.34s2.67-7.54,7.52-10.34c5-2.88,11.67-4.47,18.77-4.47m0-.87c-6.95,0-13.9,1.53-19.2,4.59-10.61,6.13-10.61,16.06,0,22.18,5.3,3.06,12.25,4.59,19.2,4.59s13.9-1.53,19.21-4.59c10.6-6.12,10.6-16.05,0-22.18-5.31-3.06-12.26-4.59-19.21-4.59Z" style="fill:#455a64"></path><path d="M358.67,152.75c2.05-.6,4.14-.75,5.34.46,1.9,1.92.74,5.5-1,7-.91.77-2,1.28-2.91,2.07a3.06,3.06,0,0,0-1.13,3.18,2.68,2.68,0,0,0,2.77,1.46,6.5,6.5,0,0,0,3-1.38,24.75,24.75,0,0,0,6.14-6.4c.94-1.43,1.95-3.11,3.64-3.38s3.29,1.16,3.79,2.8a9.43,9.43,0,0,1-.26,5.07,47.91,47.91,0,0,1-5.68,13.26c-1.85,3-4.09,5.9-4.45,9.37-.44,4.11,1.86,8,4.56,11.15,1.53,1.77,3.25,3.45,4.21,5.58a13.46,13.46,0,0,1,.41,8.58c-.67,2.83-1.87,5.51-2.81,8.27a32,32,0,0,0-1.87,10.85c.07,3.15.76,6.27.79,9.42.05,4.58-1.49,9.39-5,12.28s-9.32,3.17-12.5-.12c-2.36-2.44-2.86-6.1-4.54-9.05-1.51-2.66-4-4.72-5.27-7.48-1.22-2.59-1.3-5.53-1.37-8.39l-.36-16.15a12.25,12.25,0,0,1,.75-5.59c.82-1.71,2.76-3.05,4.59-2.52,1.63.47,2.56,2.18,4,3.09,2.8,1.8,6.79,0,8.4-2.94s1.49-6.45,1.2-9.76q-.51-5.73-1.49-11.41a5.37,5.37,0,0,0-.73-2.17c-1.42-2-4.55-1.18-6.7,0s-4.93,2.49-6.85,1c-1.48-1.18-1.49-3.45-.92-5.25s1.56-3.5,1.68-5.39-.69-3.76-.79-5.67c-.22-4.36,3.15-7.93,6.76-9.84A26,26,0,0,1,358.67,152.75Z" style="fill:#10A810"></path><path d="M347.8,192.94c4.2,1.52,7.37-4,4.49-7.21C348.26,181.27,341.28,190.57,347.8,192.94Z" style="fill:#10A810"></path><path d="M371.36,185c.59-1.78,1.76-2.84,3.57-1.46,1.15.87.82,2.62,1,4a4.91,4.91,0,0,0,2.23,3.42c1,.64,2.43,1,2.84,2.16s-.77,2.66-2.11,2.84a5.8,5.8,0,0,1-3.79-1.22,11.84,11.84,0,0,1-3.51-3.17C370.77,190.36,370.64,187.13,371.36,185Z" style="fill:#10A810"></path><g style="opacity:0.5"><path d="M358.67,152.75c2.05-.6,4.14-.75,5.34.46,1.9,1.92.74,5.5-1,7-.91.77-2,1.28-2.91,2.07a3.06,3.06,0,0,0-1.13,3.18,2.68,2.68,0,0,0,2.77,1.46,6.5,6.5,0,0,0,3-1.38,24.75,24.75,0,0,0,6.14-6.4c.94-1.43,1.95-3.11,3.64-3.38s3.29,1.16,3.79,2.8a9.43,9.43,0,0,1-.26,5.07,47.91,47.91,0,0,1-5.68,13.26c-1.85,3-4.09,5.9-4.45,9.37-.44,4.11,1.86,8,4.56,11.15,1.53,1.77,3.25,3.45,4.21,5.58a13.46,13.46,0,0,1,.41,8.58c-.67,2.83-1.87,5.51-2.81,8.27a32,32,0,0,0-1.87,10.85c.07,3.15.76,6.27.79,9.42.05,4.58-1.49,9.39-5,12.28s-9.32,3.17-12.5-.12c-2.36-2.44-2.86-6.1-4.54-9.05-1.51-2.66-4-4.72-5.27-7.48-1.22-2.59-1.3-5.53-1.37-8.39l-.36-16.15a12.25,12.25,0,0,1,.75-5.59c.82-1.71,2.76-3.05,4.59-2.52,1.63.47,2.56,2.18,4,3.09,2.8,1.8,6.79,0,8.4-2.94s1.49-6.45,1.2-9.76q-.51-5.73-1.49-11.41a5.37,5.37,0,0,0-.73-2.17c-1.42-2-4.55-1.18-6.7,0s-4.93,2.49-6.85,1c-1.48-1.18-1.49-3.45-.92-5.25s1.56-3.5,1.68-5.39-.69-3.76-.79-5.67c-.22-4.36,3.15-7.93,6.76-9.84A26,26,0,0,1,358.67,152.75Z" style="fill:#fff"></path><path d="M347.8,192.94c4.2,1.52,7.37-4,4.49-7.21C348.26,181.27,341.28,190.57,347.8,192.94Z" style="fill:#fff"></path><path d="M371.36,185c.59-1.78,1.76-2.84,3.57-1.46,1.15.87.82,2.62,1,4a4.91,4.91,0,0,0,2.23,3.42c1,.64,2.43,1,2.84,2.16s-.77,2.66-2.11,2.84a5.8,5.8,0,0,1-3.79-1.22,11.84,11.84,0,0,1-3.51-3.17C370.77,190.36,370.64,187.13,371.36,185Z" style="fill:#fff"></path></g><g style="opacity:0.1"><path d="M353.3,248.33a8.12,8.12,0,0,1,.1-1.84c.29-1.7,1.06-3.28,1.44-5s.29-3.63-.89-4.87c-1-1-2.52-1.38-3.54-2.38-1.31-1.28-1.46-3.3-1.54-5.13-.09-2.33.18-5.26,2.37-6.08.88-.34,1.95-.23,2.69-.82,1.1-.88.71-2.73-.3-3.7a16.07,16.07,0,0,0-3.66-2,9.4,9.4,0,0,1-4.15-12.24,4.83,4.83,0,0,0-.94,1.32,12.25,12.25,0,0,0-.75,5.59l.36,16.15c.07,2.86.15,5.8,1.37,8.39,1.3,2.76,3.76,4.82,5.27,7.48A43.38,43.38,0,0,1,353.3,248.33Z"></path><path d="M377.35,210.31a11.28,11.28,0,0,1-1.72,2.94c-2.39,2.94-6.25,4.82-7.48,8.4-1.92,5.63,3.8,12,1.36,17.41-.42.95-1.1,1.88-1,2.91a4.88,4.88,0,0,0,1.7,2.54A11.68,11.68,0,0,1,372,247a18.18,18.18,0,0,0,1.2-6.84c0-3.15-.72-6.27-.79-9.42a32,32,0,0,1,1.87-10.85c.94-2.76,2.14-5.44,2.81-8.27C377.2,211.16,377.28,210.74,377.35,210.31Z"></path><path d="M360.07,162.29a9.62,9.62,0,0,1,1.09-.81,25,25,0,0,0-3.68,1.79,4.36,4.36,0,0,0-2.3,3.82,3.77,3.77,0,0,0,1.72,2.68,7,7,0,0,0,3.09,1,9.1,9.1,0,0,0,5.64-1.05,9.76,9.76,0,0,0,4-5.24,23.5,23.5,0,0,0,1.07-5.06,24.93,24.93,0,0,1-5.95,6.13,6.5,6.5,0,0,1-3,1.38,2.68,2.68,0,0,1-2.77-1.46A3.06,3.06,0,0,1,360.07,162.29Z"></path><path d="M363.22,210.47c.1-1.18.47-2.65,1.63-2.85,1.56-.26,2.28,2,3.74,2.62a2.57,2.57,0,0,0,3-1.22,5,5,0,0,0,.38-3.48c-1.05-5.38-6.4-9.08-7.63-14.43a35.22,35.22,0,0,1-.47-5.35,9,9,0,0,0-1.64-5,4.69,4.69,0,0,0-2-1.42,2.77,2.77,0,0,1,.58.6,5.37,5.37,0,0,1,.73,2.17q1,5.67,1.49,11.41c.29,3.31.42,6.84-1.2,9.76s-5.6,4.74-8.4,2.94c-1-.67-1.84-1.77-2.83-2.5a4.34,4.34,0,0,0,3.38,5.46c1.29.24,2.76-.07,3.84.68a6.9,6.9,0,0,1,1.59,2.18,2.33,2.33,0,0,0,2.18,1.32C362.78,213.11,363.12,211.64,363.22,210.47Z"></path></g><path d="M386.59,147.21V259.55c0,6.16-13.7,17.88-39.47,10.08,0,0,16.77,3.1,27.2-2.35s9.41-11,9.41-23.25S386.59,147.21,386.59,147.21Z" style="fill:#fff;opacity:0.7000000000000001"></path><path d="M391.69,118.19a24.61,24.61,0,0,0-5.41-4.15c-12.81-7.39-33.57-7.39-46.38,0a24.78,24.78,0,0,0-5.4,4.15h-4.2v9.24h0c0,4.85,3.2,9.69,9.6,13.39,12.81,7.39,33.57,7.39,46.38,0,6.41-3.7,9.61-8.54,9.61-13.39v-9.24Z" style="fill:#263238"></path><ellipse cx="363.09" cy="119.8" rx="32.8" ry="18.93" style="fill:#37474f"></ellipse><path d="M363.09,101.73c8.61,0,16.69,1.93,22.76,5.43,5.92,3.42,9.17,7.9,9.17,12.64s-3.25,9.22-9.17,12.64c-6.07,3.5-14.15,5.43-22.76,5.43s-16.69-1.93-22.76-5.43c-5.91-3.42-9.17-7.9-9.17-12.64s3.26-9.23,9.17-12.64c6.07-3.5,14.15-5.43,22.76-5.43m0-.86c-8.39,0-16.78,1.84-23.19,5.54-12.8,7.4-12.8,19.38,0,26.78,6.41,3.7,14.8,5.54,23.19,5.54s16.79-1.84,23.19-5.54c12.81-7.4,12.81-19.38,0-26.78-6.4-3.7-14.79-5.54-23.19-5.54Z" style="fill:#455a64"></path></g><g id="freepik--woman-capsule--inject-2"><path d="M400.55,333c0,4.84,3.21,9.69,9.61,13.39,12.81,7.39,33.58,7.39,46.38,0,6.39-3.7,9.61-8.55,9.61-13.39V190.77H400.56Z" style="fill:#10A810"></path><path d="M400.55,333c0,4.84,3.21,9.69,9.61,13.39,12.81,7.39,33.58,7.39,46.38,0,6.39-3.7,9.61-8.55,9.61-13.39V190.77H400.56Z" style="fill:#fff;opacity:0.5"></path><path d="M462,331.36a24.55,24.55,0,0,0-5.41-4.15c-12.81-7.39-33.57-7.39-46.38,0a24.24,24.24,0,0,0-5.4,4.15h-4.2v9.24h0c0,4.84,3.2,9.69,9.6,13.39,12.81,7.39,33.57,7.39,46.38,0,6.4-3.7,9.61-8.55,9.61-13.39v-9.24Z" style="fill:#263238"></path><ellipse cx="433.35" cy="332.97" rx="32.8" ry="18.93" style="fill:#37474f"></ellipse><path d="M433.35,314.9c8.61,0,16.69,1.93,22.76,5.43,5.91,3.41,9.17,7.9,9.17,12.64s-3.26,9.22-9.17,12.64C450,349.11,442,351,433.35,351s-16.69-1.93-22.76-5.43c-5.91-3.42-9.17-7.91-9.17-12.64s3.26-9.23,9.17-12.64c6.07-3.5,14.15-5.43,22.76-5.43m0-.87c-8.39,0-16.79,1.85-23.19,5.55-12.81,7.39-12.81,19.38,0,26.78,6.4,3.69,14.8,5.54,23.19,5.54s16.79-1.85,23.19-5.54c12.81-7.4,12.81-19.39,0-26.78-6.4-3.7-14.8-5.55-23.19-5.55Z" style="fill:#455a64"></path><path d="M406.19,324.3c0,4,2.66,8,7.95,11.09,10.62,6.12,27.81,6.12,38.41,0,5.3-3.06,8-7.08,8-11.09V185.2H406.19Z" style="fill:#10A810"></path><path d="M457,322.89a20.16,20.16,0,0,0-4.48-3.43c-10.6-6.13-27.8-6.13-38.4,0a20.16,20.16,0,0,0-4.48,3.43h-3.48v7.65h0c0,4,2.65,8,8,11.09,10.6,6.12,27.8,6.12,38.4,0,5.31-3.06,8-7.07,8-11.09v-7.65Z" style="fill:#263238"></path><ellipse cx="433.35" cy="324.3" rx="27.16" ry="15.68" style="fill:#10A810"></ellipse><path d="M433.35,309.49c7.11,0,13.77,1.59,18.77,4.47s7.52,6.48,7.52,10.34-2.67,7.54-7.52,10.34-11.66,4.48-18.77,4.48-13.77-1.59-18.77-4.48c-4.85-2.8-7.52-6.47-7.52-10.34s2.67-7.54,7.52-10.34c5-2.88,11.67-4.47,18.77-4.47m0-.87c-7,0-13.9,1.53-19.2,4.6-10.61,6.12-10.61,16,0,22.17,5.3,3.06,12.25,4.59,19.2,4.59s13.9-1.53,19.2-4.59c10.61-6.12,10.61-16.05,0-22.17-5.3-3.07-12.25-4.6-19.2-4.6Z" style="fill:#455a64"></path><path d="M451.67,269.59c-.13-1.06-.32-2.63-.53-4-.53-3.36-.65-4.84-1.12-6.91a45.45,45.45,0,0,0-1.22-5.56c-.91-2.36-5-16.29-7.4-17.33a14.93,14.93,0,0,0-2.61-.88h0a4.55,4.55,0,0,0-.45-.09h0l-4.28-.72,0-3.52h0c2.5.06,3.94.2,6.23-1.54,1.91-1.44,2.59-3.85,4.57-5.26-1.32-.13-2.47.57-3.74,1.62,1.12-2.32,3.78-2.82,5.69-4.55a12.58,12.58,0,0,0-2.88-20.61c1.9,3.3,2.8,7.29.81,10.54a6.73,6.73,0,0,1-4.2,2.75,5.1,5.1,0,0,0,1.36-5.53c.28,1.72-1.13,3.33-2.75,4a16.79,16.79,0,0,1-5.16.69c-3.12.19-6.4,1.09-8.45,3.44l-.14.08c-4.07-.31-6.53,5.47-1.69,7.46h0a23.83,23.83,0,0,0-.05,2.59c.13,4.06,1.46,5.05,2.12,5.33a6.83,6.83,0,0,0,3.17-.12v2.8l-1.15.17s-6.51.79-6.89,5l-2.65,14.94c-.09.59-3.08,8.73-4.06,10.72a1.62,1.62,0,0,1-.84.77,16.53,16.53,0,0,0-2.92,2c-.61.46-1.08.52-1,.7a.87.87,0,0,0,1,.58,14.23,14.23,0,0,0,1.93-.73,24,24,0,0,1-2,2.57c-1.33,1.47-1.32,2.75,1.21,2.85,1.91.08,2.94-1,4.72-4.21.51-.93,1.29-2.31,1.9-3.51,1.55-3,2.32-4.3,3.16-6.25a42.25,42.25,0,0,0,2.28-5.21c.12-.44.32-1.26.56-2.3-.4,2.4-1,7.42-1.17,9.45-.7,7.48-1.14,17.14-.8,21.17.23,2.76.84,13.92,1.17,20.25,0,2,0,4.08-.19,6.1a20.91,20.91,0,0,1-.7,3.89,13,13,0,0,1-3.4,5.93c-.35.33-.77.75-.66,1.22s.81.7,1.36.72a7.86,7.86,0,0,0,3.47-.53,4.14,4.14,0,0,0,2.09-2c.47-1,.47-2.13,1.06-3.07a11.62,11.62,0,0,1,1.36-1.53,3.19,3.19,0,0,0,.94-1.79c.07-1-.58-1.8-.87-2.68a6.94,6.94,0,0,1-.15-2.53c.07-1.23.17-2.46.29-3.68h0c.86-5.08,2.12-13,1.89-15.17s-.63-4.76-.63-4.76l2.64-14.83s1,10.68,1.65,15.49c.58,4.34,2.38,18.36,3.13,24.2h0s.2,3.13.24,3.95,0,1.4-.11,2.71c-.07,1.52-.25,2.52-.52,4.49a6.82,6.82,0,0,0,.55,4.78c.89,1.84,3.14.72,3.92-.38a5,5,0,0,0,1-3.78c-.07-1.7-.46-2.43-.52-4.51s-.2-2.73-.18-3.42.05-3.94.05-3.94h0c.5-4.42,1.43-13.63,1-17.77-.5-4.7-.63-6.34-.73-7.41,0,0,2.59-16.45.69-23.8a23.22,23.22,0,0,0-4.12-8.29l.83-6,5.47,11.2c.27.53,2.65,8.87,3,11.06a1.6,1.6,0,0,1-.23,1.12,16.15,16.15,0,0,0-1.18,3.33c-.23.73-.57,1.05-.43,1.18a.87.87,0,0,0,1.17-.14,14.18,14.18,0,0,0,1.14-1.72,24.05,24.05,0,0,1-.09,3.24c-.21,2,.55,3,2.65,1.59C451.92,274.71,452.14,273.25,451.67,269.59Z" style="fill:#10A810"></path><path d="M451.67,269.59c-.13-1.06-.32-2.63-.53-4-.53-3.36-.65-4.84-1.12-6.91a45.45,45.45,0,0,0-1.22-5.56c-.91-2.36-5-16.29-7.4-17.33a14.93,14.93,0,0,0-2.61-.88h0a4.55,4.55,0,0,0-.45-.09h0l-4.28-.72,0-3.52h0c2.5.06,3.94.2,6.23-1.54,1.91-1.44,2.59-3.85,4.57-5.26-1.32-.13-2.47.57-3.74,1.62,1.12-2.32,3.78-2.82,5.69-4.55a12.58,12.58,0,0,0-2.88-20.61c1.9,3.3,2.8,7.29.81,10.54a6.73,6.73,0,0,1-4.2,2.75,5.1,5.1,0,0,0,1.36-5.53c.28,1.72-1.13,3.33-2.75,4a16.79,16.79,0,0,1-5.16.69c-3.12.19-6.4,1.09-8.45,3.44l-.14.08c-4.07-.31-6.53,5.47-1.69,7.46h0a23.83,23.83,0,0,0-.05,2.59c.13,4.06,1.46,5.05,2.12,5.33a6.83,6.83,0,0,0,3.17-.12v2.8l-1.15.17s-6.51.79-6.89,5l-2.65,14.94c-.09.59-3.08,8.73-4.06,10.72a1.62,1.62,0,0,1-.84.77,16.53,16.53,0,0,0-2.92,2c-.61.46-1.08.52-1,.7a.87.87,0,0,0,1,.58,14.23,14.23,0,0,0,1.93-.73,24,24,0,0,1-2,2.57c-1.33,1.47-1.32,2.75,1.21,2.85,1.91.08,2.94-1,4.72-4.21.51-.93,1.29-2.31,1.9-3.51,1.55-3,2.32-4.3,3.16-6.25a42.25,42.25,0,0,0,2.28-5.21c.12-.44.32-1.26.56-2.3-.4,2.4-1,7.42-1.17,9.45-.7,7.48-1.14,17.14-.8,21.17.23,2.76.84,13.92,1.17,20.25,0,2,0,4.08-.19,6.1a20.91,20.91,0,0,1-.7,3.89,13,13,0,0,1-3.4,5.93c-.35.33-.77.75-.66,1.22s.81.7,1.36.72a7.86,7.86,0,0,0,3.47-.53,4.14,4.14,0,0,0,2.09-2c.47-1,.47-2.13,1.06-3.07a11.62,11.62,0,0,1,1.36-1.53,3.19,3.19,0,0,0,.94-1.79c.07-1-.58-1.8-.87-2.68a6.94,6.94,0,0,1-.15-2.53c.07-1.23.17-2.46.29-3.68h0c.86-5.08,2.12-13,1.89-15.17s-.63-4.76-.63-4.76l2.64-14.83s1,10.68,1.65,15.49c.58,4.34,2.38,18.36,3.13,24.2h0s.2,3.13.24,3.95,0,1.4-.11,2.71c-.07,1.52-.25,2.52-.52,4.49a6.82,6.82,0,0,0,.55,4.78c.89,1.84,3.14.72,3.92-.38a5,5,0,0,0,1-3.78c-.07-1.7-.46-2.43-.52-4.51s-.2-2.73-.18-3.42.05-3.94.05-3.94h0c.5-4.42,1.43-13.63,1-17.77-.5-4.7-.63-6.34-.73-7.41,0,0,2.59-16.45.69-23.8a23.22,23.22,0,0,0-4.12-8.29l.83-6,5.47,11.2c.27.53,2.65,8.87,3,11.06a1.6,1.6,0,0,1-.23,1.12,16.15,16.15,0,0,0-1.18,3.33c-.23.73-.57,1.05-.43,1.18a.87.87,0,0,0,1.17-.14,14.18,14.18,0,0,0,1.14-1.72,24.05,24.05,0,0,1-.09,3.24c-.21,2,.55,3,2.65,1.59C451.92,274.71,452.14,273.25,451.67,269.59Z" style="fill:#fff;opacity:0.5"></path><g style="opacity:0.1"><path d="M442.09,259.23a23.22,23.22,0,0,0-4.12-8.29l.83-6s-2.13,5.92-2.15,6.65,2.25,2.78,3.49,5.9.54,13.49.27,18.67c-.26,4.77-.62,6.16.18,9.46s1.62,8.13,1.64,8.26a31.75,31.75,0,0,0-.1-3.41c-.5-4.7-.63-6.34-.73-7.41C441.4,283,444,266.58,442.09,259.23Z"></path><path d="M431.88,268.62l-.7-4.56a11.27,11.27,0,0,1-5.39-1.69,6.9,6.9,0,0,0,4.52,2.48l.46,4.07-1.21,12.74Z"></path><path d="M423.62,254.73c.12-.44.32-1.26.56-2.3l.33-3.47a7,7,0,0,1-1.76-3.25c-.82-2.5,2.09-5.18,2.09-5.18a7,7,0,0,0-3,4.38,4.82,4.82,0,0,0,.88,3.51s-.55,3.65-1.24,6.9-3.33,10.87-3.33,10.87c1.55-3,2.32-4.3,3.16-6.25A42.25,42.25,0,0,0,423.62,254.73Z"></path><path d="M428.92,231.5a10.11,10.11,0,0,0,2.71-.82,8.89,8.89,0,0,0,1.63-1.63s-.42,1.78-1.48,2.3a18.84,18.84,0,0,1-2.86,1Z"></path><path d="M424,220.53a4,4,0,0,0,2,3.81,3,3,0,0,1-2-1.55A2.48,2.48,0,0,1,424,220.53Z"></path><path d="M426.48,221.64a3.63,3.63,0,0,0,1.89,3.73,3.68,3.68,0,0,0,2.9.22,4.26,4.26,0,0,1-3.28-1.25A6.67,6.67,0,0,1,426.48,221.64Z"></path><path d="M433.26,224a1.44,1.44,0,0,1,1.66-.29c.83.53.95,3.32-1.25,3.61,0,0,1.37.48,2.08-1.24S435.15,221.81,433.26,224Z"></path></g><path d="M456.85,210.56V322.89c0,6.16-13.7,17.88-39.47,10.08,0,0,16.77,3.1,27.2-2.35s9.41-11,9.41-23.25S456.85,210.56,456.85,210.56Z" style="fill:#fff;opacity:0.7000000000000001"></path><path d="M462,181.53a25.17,25.17,0,0,0-5.41-4.15c-12.81-7.39-33.57-7.39-46.38,0a24.85,24.85,0,0,0-5.4,4.15h-4.2v9.24h0c0,4.85,3.2,9.69,9.6,13.39,12.81,7.4,33.57,7.4,46.38,0,6.4-3.7,9.61-8.54,9.61-13.39v-9.24Z" style="fill:#263238"></path><ellipse cx="433.35" cy="183.14" rx="32.8" ry="18.93" style="fill:#37474f"></ellipse><path d="M433.35,165.07c8.61,0,16.69,1.93,22.76,5.43,5.91,3.42,9.17,7.91,9.17,12.64s-3.26,9.23-9.17,12.64c-6.07,3.5-14.15,5.43-22.76,5.43s-16.69-1.93-22.76-5.43c-5.91-3.41-9.17-7.9-9.17-12.64s3.26-9.22,9.17-12.64c6.07-3.5,14.15-5.43,22.76-5.43m0-.86c-8.39,0-16.79,1.85-23.19,5.54-12.81,7.4-12.81,19.39,0,26.78,6.4,3.7,14.8,5.55,23.19,5.55s16.79-1.85,23.19-5.55c12.81-7.39,12.81-19.38,0-26.78-6.4-3.69-14.8-5.54-23.19-5.54Z" style="fill:#455a64"></path></g><g id="freepik--merm-capsule--inject-2"><path d="M169.7,269.63c0,4.84-3.21,9.69-9.6,13.39-12.82,7.39-33.58,7.39-46.38,0-6.4-3.7-9.61-8.55-9.61-13.39V127.43H169.7Z" style="fill:#10A810"></path><path d="M169.7,269.63c0,4.84-3.21,9.69-9.6,13.39-12.82,7.39-33.58,7.39-46.38,0-6.4-3.7-9.61-8.55-9.61-13.39V127.43H169.7Z" style="fill:#fff;opacity:0.5"></path><path d="M108.31,268a24.31,24.31,0,0,1,5.41-4.15c12.8-7.4,33.57-7.4,46.38,0a24.47,24.47,0,0,1,5.4,4.15h4.2v9.24h0c0,4.84-3.2,9.69-9.6,13.39-12.81,7.39-33.58,7.39-46.38,0-6.41-3.7-9.61-8.55-9.61-13.39V268Z" style="fill:#263238"></path><ellipse cx="136.91" cy="269.63" rx="32.8" ry="18.93" style="fill:#37474f"></ellipse><path d="M136.91,251.56c8.61,0,16.69,1.92,22.75,5.43s9.18,7.9,9.18,12.64-3.26,9.22-9.18,12.64-14.14,5.43-22.75,5.43-16.7-1.93-22.76-5.43S105,274.36,105,269.63s3.25-9.23,9.17-12.64,14.15-5.43,22.76-5.43m0-.87c-8.4,0-16.79,1.85-23.19,5.55-12.81,7.39-12.81,19.38,0,26.78,6.4,3.69,14.79,5.54,23.19,5.54s16.78-1.85,23.19-5.54c12.8-7.4,12.8-19.39,0-26.78-6.41-3.7-14.8-5.55-23.19-5.55Z" style="fill:#455a64"></path><path d="M164.07,261c0,4-2.66,8-8,11.09-10.61,6.12-27.81,6.12-38.41,0-5.29-3.06-8-7.08-8-11.09V121.86h54.31Z" style="fill:#10A810"></path><path d="M113.23,259.55a20.41,20.41,0,0,1,4.47-3.44c10.61-6.12,27.8-6.12,38.41,0a20.72,20.72,0,0,1,4.48,3.44h3.47v7.65h0c0,4-2.65,8-7.95,11.09-10.61,6.12-27.8,6.12-38.41,0-5.3-3.06-8-7.08-8-11.09v-7.65Z" style="fill:#263238"></path><ellipse cx="136.91" cy="260.96" rx="27.16" ry="15.68" style="fill:#10A810"></ellipse><path d="M136.91,246.15c7.1,0,13.77,1.59,18.77,4.47,4.85,2.8,7.52,6.48,7.52,10.34s-2.67,7.54-7.52,10.34c-5,2.89-11.67,4.48-18.77,4.48s-13.78-1.59-18.78-4.48c-4.85-2.8-7.52-6.47-7.52-10.34s2.67-7.54,7.52-10.34c5-2.88,11.67-4.47,18.78-4.47m0-.87c-6.95,0-13.9,1.53-19.21,4.59-10.6,6.13-10.6,16.06,0,22.18,5.31,3.06,12.26,4.59,19.21,4.59s13.9-1.53,19.2-4.59c10.61-6.12,10.61-16.05,0-22.18-5.3-3.06-12.25-4.59-19.2-4.59Z" style="fill:#455a64"></path><path d="M147.93,168.81l-2-.18a.94.94,0,0,0-.81.18,1,1,0,0,0-.17.45c-.1.52-.19,1-.29,1.55a3.67,3.67,0,0,0,0,1.77c.32,1,1.5,1,2.35,1.16a16.41,16.41,0,0,1,3.29.46c2.41.84,3.64,3.58,3.85,6.12s-.33,5.1-.15,7.65c.31,4.57,2.86,8.64,4.58,12.89a21.84,21.84,0,0,1,1.32,5.41,12.13,12.13,0,0,1,0,3.35,5.51,5.51,0,0,1-1,2.75c-.11.13-.29.25-.44.18a.31.31,0,0,1-.16-.29.92.92,0,0,1,.11-.33,8,8,0,0,0,.66-2.77,5.57,5.57,0,0,0-.9-3.72.41.41,0,0,0-.16-.16c-.24-.1-.43.23-.48.49-.25,1.29-.37,2.61-.73,3.87a5.83,5.83,0,0,1-2.07,3.27c-.28.2-.77.31-.91,0s.1-.49.28-.68a8,8,0,0,0,2.1-4.26,5.27,5.27,0,0,0,0-2.37c-.35-.87-1.07.07-1.32.52a16.08,16.08,0,0,1-2.52,3.49,1.36,1.36,0,0,1-.54.39.45.45,0,0,1-.56-.25c-.07-.23.12-.45.28-.62a13.88,13.88,0,0,0,3.38-5.72.91.91,0,0,0-.05-.84c-.22-.24-.61-.17-.91,0a3.75,3.75,0,0,0-2.1,2.37,1.09,1.09,0,0,1-.18.43.34.34,0,0,1-.41.11c-.18-.11-.14-.37-.07-.57a6.24,6.24,0,0,1,1.86-2.72c.45-.39,1-.71,1.4-1.11a2.62,2.62,0,0,0,.89-1.5c.11-.77-.36-1.05-.75-1.57s-.83-1.45-1.3-2.11a41.77,41.77,0,0,1-2.55-3.69,25.71,25.71,0,0,1-2.44-8.25,64.57,64.57,0,0,1-3,7.35c-1.22,2.3-2.58,4.54-3.62,6.93a12.51,12.51,0,0,0-1.25,5.21,10.77,10.77,0,0,0,2.29,6c2.48,3.36,6.15,5.39,8.78,8.6a24.93,24.93,0,0,1,5.12,10.69c1.63,7.87-.43,16.25-4.67,23.08-3.81,6.12-9.7,11.33-16.79,12.64s-15.25-2.17-17.85-8.9c-1.54-4-1.08-8.48-1-12.68a14.87,14.87,0,0,0-.72-5.48,40.06,40.06,0,0,1-1.79-5.53,10.63,10.63,0,0,1,.19-4.52,13.8,13.8,0,0,1,.82-2.5c.21-.48,1-1.45,1-1.93a24,24,0,0,0,.22,4.72,8.09,8.09,0,0,0,2,4.24,1.22,1.22,0,0,0,1.13.5c.42-.13.6-.6.7-1,1.13-4.66-1.57-8.26-2.54-12.6-.75-3.4.69-6.91,2.51-9.88a11.07,11.07,0,0,0,1.61,8.72c1.44,2.1,3.55,3.64,5.16,5.61a13.42,13.42,0,0,1,3,8.49,11.66,11.66,0,0,1-3.5,8.23c-1.34,1.28-3,2.29-3.83,4a6.37,6.37,0,0,0,.62,5.67,10.29,10.29,0,0,0,8.72,5.18c5.14,0,8.35-4,9.31-8.72,1-4.85-.92-9.91-3.84-13.9a45.12,45.12,0,0,0-5.57-6.07c-1.69-1.6-2.94-3.3-4.46-5a22.45,22.45,0,0,1-2.77-26.45c1.15-2,2.52-3.45,3.26-5.65a54.3,54.3,0,0,0,2.67-10.18,35.51,35.51,0,0,1-6.4-2.41,12,12,0,0,1-5-4.55c-1.64-2.9-1.55-6.42-1.42-9.74a55.81,55.81,0,0,1,.28-6.85c.25-1.49.18-3.1-1.49-3.77-1.48-.6-3.19.13-4.74-.23a.86.86,0,0,1,.56-.85,2.66,2.66,0,0,1,1.09-.11l3.73.18A1.88,1.88,0,0,0,116,149a5.39,5.39,0,0,0-1.36-.83l-3.18-1.54c-.33-.15-.71-.47-.55-.8s.53-.24.82-.16a10.34,10.34,0,0,1,4.76,2.84c.23.24.54.52.85.39a.54.54,0,0,0,.27-.6,1.35,1.35,0,0,0-.33-.61,12.91,12.91,0,0,0-3.84-3.33c-.36-.2-.79-.61-.54-.94s.58-.14.86,0a12.38,12.38,0,0,1,5.72,6.41,20.2,20.2,0,0,1,1.34,7.82c0,1.23.27,2.51.39,3.75s.21,2.7.38,4c.18,1.87.45,3.94,1.87,5.17a6.32,6.32,0,0,0,3.55,1.24,39.17,39.17,0,0,0,7.18-.12,5.11,5.11,0,0,0,3.13-.94c1.24-1.11,1-3.19.27-4.5-1.08-1.89-2.7-3.45-3.74-5.39a13.32,13.32,0,0,1-1.76-6.72,12.79,12.79,0,0,1,2.66-6.92,29.88,29.88,0,0,1,5.31-5.29,35.35,35.35,0,0,0,4.23-3.78,9.24,9.24,0,0,0,2.4-5c.13-1.27-.11-2.62.4-3.8a4.05,4.05,0,0,1,4.31-2.11,7.63,7.63,0,0,1,4.35,2.57,13.35,13.35,0,0,1,2.14,15.13c-1.25,2.26-3.21,4.09-4.26,6.45-1.22,2.74-1.09,5.86-1.22,8.85a17,17,0,0,1-1,5.43A9.77,9.77,0,0,1,150.1,168C149.47,168.86,149,168.9,147.93,168.81Z" style="fill:#10A810"></path><path d="M147.93,168.81l-2-.18a.94.94,0,0,0-.81.18,1,1,0,0,0-.17.45c-.1.52-.19,1-.29,1.55a3.67,3.67,0,0,0,0,1.77c.32,1,1.5,1,2.35,1.16a16.41,16.41,0,0,1,3.29.46c2.41.84,3.64,3.58,3.85,6.12s-.33,5.1-.15,7.65c.31,4.57,2.86,8.64,4.58,12.89a21.84,21.84,0,0,1,1.32,5.41,12.13,12.13,0,0,1,0,3.35,5.51,5.51,0,0,1-1,2.75c-.11.13-.29.25-.44.18a.31.31,0,0,1-.16-.29.92.92,0,0,1,.11-.33,8,8,0,0,0,.66-2.77,5.57,5.57,0,0,0-.9-3.72.41.41,0,0,0-.16-.16c-.24-.1-.43.23-.48.49-.25,1.29-.37,2.61-.73,3.87a5.83,5.83,0,0,1-2.07,3.27c-.28.2-.77.31-.91,0s.1-.49.28-.68a8,8,0,0,0,2.1-4.26,5.27,5.27,0,0,0,0-2.37c-.35-.87-1.07.07-1.32.52a16.08,16.08,0,0,1-2.52,3.49,1.36,1.36,0,0,1-.54.39.45.45,0,0,1-.56-.25c-.07-.23.12-.45.28-.62a13.88,13.88,0,0,0,3.38-5.72.91.91,0,0,0-.05-.84c-.22-.24-.61-.17-.91,0a3.75,3.75,0,0,0-2.1,2.37,1.09,1.09,0,0,1-.18.43.34.34,0,0,1-.41.11c-.18-.11-.14-.37-.07-.57a6.24,6.24,0,0,1,1.86-2.72c.45-.39,1-.71,1.4-1.11a2.62,2.62,0,0,0,.89-1.5c.11-.77-.36-1.05-.75-1.57s-.83-1.45-1.3-2.11a41.77,41.77,0,0,1-2.55-3.69,25.71,25.71,0,0,1-2.44-8.25,64.57,64.57,0,0,1-3,7.35c-1.22,2.3-2.58,4.54-3.62,6.93a12.51,12.51,0,0,0-1.25,5.21,10.77,10.77,0,0,0,2.29,6c2.48,3.36,6.15,5.39,8.78,8.6a24.93,24.93,0,0,1,5.12,10.69c1.63,7.87-.43,16.25-4.67,23.08-3.81,6.12-9.7,11.33-16.79,12.64s-15.25-2.17-17.85-8.9c-1.54-4-1.08-8.48-1-12.68a14.87,14.87,0,0,0-.72-5.48,40.06,40.06,0,0,1-1.79-5.53,10.63,10.63,0,0,1,.19-4.52,13.8,13.8,0,0,1,.82-2.5c.21-.48,1-1.45,1-1.93a24,24,0,0,0,.22,4.72,8.09,8.09,0,0,0,2,4.24,1.22,1.22,0,0,0,1.13.5c.42-.13.6-.6.7-1,1.13-4.66-1.57-8.26-2.54-12.6-.75-3.4.69-6.91,2.51-9.88a11.07,11.07,0,0,0,1.61,8.72c1.44,2.1,3.55,3.64,5.16,5.61a13.42,13.42,0,0,1,3,8.49,11.66,11.66,0,0,1-3.5,8.23c-1.34,1.28-3,2.29-3.83,4a6.37,6.37,0,0,0,.62,5.67,10.29,10.29,0,0,0,8.72,5.18c5.14,0,8.35-4,9.31-8.72,1-4.85-.92-9.91-3.84-13.9a45.12,45.12,0,0,0-5.57-6.07c-1.69-1.6-2.94-3.3-4.46-5a22.45,22.45,0,0,1-2.77-26.45c1.15-2,2.52-3.45,3.26-5.65a54.3,54.3,0,0,0,2.67-10.18,35.51,35.51,0,0,1-6.4-2.41,12,12,0,0,1-5-4.55c-1.64-2.9-1.55-6.42-1.42-9.74a55.81,55.81,0,0,1,.28-6.85c.25-1.49.18-3.1-1.49-3.77-1.48-.6-3.19.13-4.74-.23a.86.86,0,0,1,.56-.85,2.66,2.66,0,0,1,1.09-.11l3.73.18A1.88,1.88,0,0,0,116,149a5.39,5.39,0,0,0-1.36-.83l-3.18-1.54c-.33-.15-.71-.47-.55-.8s.53-.24.82-.16a10.34,10.34,0,0,1,4.76,2.84c.23.24.54.52.85.39a.54.54,0,0,0,.27-.6,1.35,1.35,0,0,0-.33-.61,12.91,12.91,0,0,0-3.84-3.33c-.36-.2-.79-.61-.54-.94s.58-.14.86,0a12.38,12.38,0,0,1,5.72,6.41,20.2,20.2,0,0,1,1.34,7.82c0,1.23.27,2.51.39,3.75s.21,2.7.38,4c.18,1.87.45,3.94,1.87,5.17a6.32,6.32,0,0,0,3.55,1.24,39.17,39.17,0,0,0,7.18-.12,5.11,5.11,0,0,0,3.13-.94c1.24-1.11,1-3.19.27-4.5-1.08-1.89-2.7-3.45-3.74-5.39a13.32,13.32,0,0,1-1.76-6.72,12.79,12.79,0,0,1,2.66-6.92,29.88,29.88,0,0,1,5.31-5.29,35.35,35.35,0,0,0,4.23-3.78,9.24,9.24,0,0,0,2.4-5c.13-1.27-.11-2.62.4-3.8a4.05,4.05,0,0,1,4.31-2.11,7.63,7.63,0,0,1,4.35,2.57,13.35,13.35,0,0,1,2.14,15.13c-1.25,2.26-3.21,4.09-4.26,6.45-1.22,2.74-1.09,5.86-1.22,8.85a17,17,0,0,1-1,5.43A9.77,9.77,0,0,1,150.1,168C149.47,168.86,149,168.9,147.93,168.81Z" style="fill:#fff;opacity:0.5"></path><g style="opacity:0.1"><path d="M134.23,171.7c-1.32.1-2.65.2-4,.22,2.54.51,5.29,1,7.34.17,2.81-1.09,4.18-2.74,3.5-4.87s-.75-2.07-3-6.66-6.4-5.66-4.1-12.07a12.06,12.06,0,0,0-1.83,5.66,13.32,13.32,0,0,0,1.76,6.72c1,1.94,2.66,3.5,3.75,5.39.75,1.31,1,3.39-.28,4.5A5.11,5.11,0,0,1,134.23,171.7Z"></path><path d="M116.06,151.38c1.67.67,1.74,2.28,1.49,3.77a55.81,55.81,0,0,0-.28,6.85c-.13,3.32-.22,6.84,1.42,9.74a12,12,0,0,0,5,4.55c-5.38-3.55-4.84-11.47-4.9-15s.19-7.38-.4-9-3.82-1.72-4.94-1.65-1.38.07-1.26-.44h0a1.67,1.67,0,0,0-.3.08.86.86,0,0,0-.56.85C112.87,151.51,114.58,150.78,116.06,151.38Z"></path><path d="M138.47,234.41A16.76,16.76,0,0,1,140.79,246c-1,4.68-4.17,8.7-9.31,8.72a10.29,10.29,0,0,1-8.72-5.18,6.37,6.37,0,0,1-.62-5.67c.78-1.68,2.49-2.69,3.83-4a11.66,11.66,0,0,0,3.5-8.23,13.33,13.33,0,0,0-3-8.48h0c2.82,3.67,2.19,9.9-1.19,13s-8.76,7.81-5.06,15.41,15,8.33,18.68,4.48,5.19-12.94-.41-21.58Z"></path><path d="M149.15,188.25a17.11,17.11,0,0,0,1.54,3.91,41.77,41.77,0,0,0,2.55,3.69c.47.66.81,1.46,1.3,2.11s.86.8.75,1.57a2.62,2.62,0,0,1-.89,1.5c-.44.4-1,.72-1.4,1.11a6.24,6.24,0,0,0-1.86,2.72c-.07.2-.11.46.07.57a.34.34,0,0,0,.41-.11,1.09,1.09,0,0,0,.18-.43,3.75,3.75,0,0,1,2.1-2.37c.3-.12.69-.19.91,0a.91.91,0,0,1,.05.84,13.88,13.88,0,0,1-3.38,5.72c-.16.17-.35.39-.28.62a.45.45,0,0,0,.56.25.85.85,0,0,0,.28-.15c-.13-.18-.07-.52.41-1.11a39.56,39.56,0,0,0,3.1-4.65c.74-1.32-.06-2.46.64-3.13,1.1-1.05-.21-2.64-1.69-4.63S150.28,191.36,149.15,188.25Z"></path><path d="M154.84,223.55a24.65,24.65,0,0,0-3.43-5.56c-2.63-3.21-6.3-5.24-8.78-8.6a10.77,10.77,0,0,1-2.29-6,12.51,12.51,0,0,1,1.25-5.21c1-2.39,2.4-4.63,3.62-6.93a65.18,65.18,0,0,0,3-7.34,64.33,64.33,0,0,1-8.1,13.27c-4.54,5.88-3.91,10.95,0,15S151.45,216.23,154.84,223.55Z"></path><path d="M141.27,165.15a7.41,7.41,0,0,0,1.6,3.47,7.13,7.13,0,0,0,1.9,1.67c.06-.34.13-.69.19-1a1,1,0,0,1,.17-.45.68.68,0,0,1,.5-.19h0A12.17,12.17,0,0,1,141.27,165.15Z"></path></g><path d="M113.41,147.21V259.55c0,6.16,13.7,17.88,39.47,10.08,0,0-16.77,3.1-27.2-2.35s-9.41-11-9.41-23.25S113.41,147.21,113.41,147.21Z" style="fill:#fff;opacity:0.7000000000000001"></path><path d="M108.31,118.19a24.61,24.61,0,0,1,5.41-4.15c12.8-7.39,33.57-7.39,46.38,0a24.78,24.78,0,0,1,5.4,4.15h4.2v9.24h0c0,4.85-3.2,9.69-9.6,13.39-12.81,7.39-33.58,7.39-46.38,0-6.41-3.7-9.61-8.54-9.61-13.39v-9.24Z" style="fill:#263238"></path><ellipse cx="136.91" cy="119.8" rx="32.8" ry="18.93" style="fill:#37474f"></ellipse><path d="M136.91,101.73c8.61,0,16.69,1.93,22.75,5.43s9.18,7.9,9.18,12.64-3.26,9.22-9.18,12.64-14.14,5.43-22.75,5.43-16.7-1.93-22.76-5.43S105,124.54,105,119.8s3.25-9.22,9.17-12.64,14.15-5.43,22.76-5.43m0-.86c-8.4,0-16.79,1.84-23.19,5.54-12.81,7.4-12.81,19.38,0,26.78,6.4,3.7,14.79,5.54,23.19,5.54s16.78-1.84,23.19-5.54c12.8-7.4,12.8-19.38,0-26.78-6.41-3.7-14.8-5.54-23.19-5.54Z" style="fill:#455a64"></path></g><g id="freepik--man-capsule--inject-2"><path d="M99.45,333c0,4.84-3.21,9.69-9.61,13.39-12.81,7.39-33.58,7.39-46.38,0-6.39-3.7-9.61-8.55-9.61-13.39V190.77H99.44Z" style="fill:#10A810"></path><path d="M99.45,333c0,4.84-3.21,9.69-9.61,13.39-12.81,7.39-33.58,7.39-46.38,0-6.39-3.7-9.61-8.55-9.61-13.39V190.77H99.44Z" style="fill:#fff;opacity:0.5"></path><path d="M38.05,331.36a24.55,24.55,0,0,1,5.41-4.15c12.81-7.39,33.57-7.39,46.38,0a24.24,24.24,0,0,1,5.4,4.15h4.2v9.24h0c0,4.84-3.2,9.69-9.6,13.39-12.81,7.39-33.57,7.39-46.38,0-6.4-3.7-9.61-8.55-9.61-13.39v-9.24Z" style="fill:#263238"></path><ellipse cx="66.65" cy="332.97" rx="32.8" ry="18.93" style="fill:#37474f"></ellipse><path d="M66.65,314.9c8.61,0,16.69,1.93,22.76,5.43,5.91,3.41,9.17,7.9,9.17,12.64s-3.26,9.22-9.17,12.64c-6.07,3.5-14.15,5.43-22.76,5.43S50,349.11,43.89,345.61C38,342.19,34.72,337.7,34.72,333s3.26-9.23,9.17-12.64C50,316.83,58,314.9,66.65,314.9m0-.87c-8.39,0-16.79,1.85-23.19,5.55-12.81,7.39-12.81,19.38,0,26.78,6.4,3.69,14.8,5.54,23.19,5.54s16.79-1.85,23.19-5.54c12.81-7.4,12.81-19.39,0-26.78C83.44,315.88,75,314,66.65,314Z" style="fill:#455a64"></path><path d="M93.81,324.3c0,4-2.66,8-8,11.09-10.62,6.12-27.81,6.12-38.41,0-5.3-3.06-8-7.08-8-11.09V185.2H93.81Z" style="fill:#10A810"></path><path d="M43,322.89a20.16,20.16,0,0,1,4.48-3.43c10.6-6.13,27.8-6.13,38.4,0a20.16,20.16,0,0,1,4.48,3.43h3.48v7.65h0c0,4-2.65,8-8,11.09-10.6,6.12-27.8,6.12-38.4,0-5.31-3.06-8-7.07-8-11.09v-7.65Z" style="fill:#263238"></path><ellipse cx="66.65" cy="324.3" rx="27.16" ry="15.68" style="fill:#10A810"></ellipse><path d="M66.65,309.49c7.1,0,13.77,1.59,18.77,4.47,4.85,2.8,7.52,6.48,7.52,10.34s-2.67,7.54-7.52,10.34c-5,2.89-11.67,4.48-18.77,4.48s-13.77-1.59-18.77-4.48-7.52-6.47-7.52-10.34S43,316.77,47.88,314s11.66-4.47,18.77-4.47m0-.87c-7,0-13.9,1.53-19.2,4.6-10.61,6.12-10.61,16,0,22.17,5.3,3.06,12.25,4.59,19.2,4.59s13.9-1.53,19.2-4.59c10.61-6.12,10.61-16.05,0-22.17-5.3-3.07-12.25-4.6-19.2-4.6Z" style="fill:#455a64"></path><path d="M48.33,269.59c.13-1.06.52-4.14.73-5.47l.06-.4c.2-1.39.34-2.79.5-4.18.22-1.84.58-3.7.64-5.54.14-4.06,1.34-8,1.7-12a9.35,9.35,0,0,1,.93-4.15,5.8,5.8,0,0,1,3.33-2.29c1.31-.41,2.69-.56,4-.88a8.34,8.34,0,0,0,3.15-1.43,2.87,2.87,0,0,0,.94-2.5c-.08-1-1.41-2.32-2-3.17A17.25,17.25,0,0,1,60,223.46a5.78,5.78,0,0,1,.16-4.63,24.12,24.12,0,0,1,1.71-2.24c.46-.64.82-1.37,1.34-2,1.19-1.37,3-1.9,4.81-2.31s3.62-.81,5-2c.32-.28.66-.62,1.08-.61a1,1,0,0,1,.92,1,3,3,0,0,1-.33,1.42c.25.41.87.29,1.3.06s.94-.5,1.35-.24a1.08,1.08,0,0,1,.4.81,7.38,7.38,0,0,1-.93,3.66A7.06,7.06,0,0,0,76,219a13.5,13.5,0,0,0,.57,2.38,18,18,0,0,1,0,5.68,8.71,8.71,0,0,1-.87,2.93,3.72,3.72,0,0,1-1.82,1.66,6.07,6.07,0,0,1-2.86-.19v2.8l1.15.17s7.28.79,7.65,5l2.74,14.94c.1.59,2.8,8.71,3.77,10.7a1.64,1.64,0,0,0,.85.77,15.78,15.78,0,0,1,2.91,2c.62.45,1.08.51,1,.7s-.48.52-1.15.44a20,20,0,0,1-2.16-.94s1.36,1.84,2.4,3c1.33,1.47.69,2.71-1.84,2.81-1.91.08-2.94-1-4.72-4.21-.51-.93-1.29-2.31-1.9-3.51-1.55-3-2.32-4.3-3.16-6.25a54.28,54.28,0,0,1-1.91-5.5s0,5.41.24,7.44c.7,7.48,1.14,17.14.8,21.17-.23,2.76-.84,15.86-1.17,22.19,0,2,0,4.08.19,6.1a20.91,20.91,0,0,0,.7,3.89,13,13,0,0,0,3.4,5.93c.35.33.77.75.66,1.23s-.81.69-1.36.71a7.86,7.86,0,0,1-3.47-.53,4.14,4.14,0,0,1-2.09-2c-.47-1-.47-2.12-1.06-3.07A11.62,11.62,0,0,0,72.23,316a3.17,3.17,0,0,1-.94-1.78c-.07-1,.58-1.81.87-2.69a6.9,6.9,0,0,0,.15-2.52c-.07-1.23-.17-2.47-.29-3.69-.34-3.2-1.25-6.22-1.57-9.42q-.58-5.73-1-11.48c-.21-2.59-.42-5.19-.58-7.79-.09-1.51-.85-3.14-.82-4.62,0,0-.16,7.24-.81,12-.58,4.33-2.38,20.3-3.13,26.14,0,0-.2,3.13-.24,3.95s0,1.4.11,2.71c.07,1.51.25,2.52.52,4.49a7.46,7.46,0,0,1,0,3.19,4.2,4.2,0,0,1-1.1,2c-1.22,1.12-3.18.48-4.06-.77a5,5,0,0,1-1-3.78c.07-1.7.46-2.43.52-4.51s.2-2.73.18-3.42-.05-3.94-.05-3.94c-.5-4.42-1.43-15.57-1-19.71.5-4.7.63-6.34.73-7.41,0,0-.86-6.5-1.11-9.77a49,49,0,0,1-.08-7.47c.19-2.65.82-5.61,1-8.25.2-3.41-.63-7.1-.73-10.83-1.86,6.64-3.78,13.77-4.95,20.46a1.6,1.6,0,0,0,.23,1.12,16.15,16.15,0,0,1,1.18,3.33c.23.73.57,1.05.43,1.18a.87.87,0,0,1-1.17-.14,14.18,14.18,0,0,1-1.14-1.72,24.05,24.05,0,0,0,.09,3.24c.21,2-.55,3-2.65,1.59C48.08,274.71,47.86,273.25,48.33,269.59Z" style="fill:#10A810"></path><path d="M48.33,269.59c.13-1.06.52-4.14.73-5.47l.06-.4c.2-1.39.34-2.79.5-4.18.22-1.84.58-3.7.64-5.54.14-4.06,1.34-8,1.7-12a9.35,9.35,0,0,1,.93-4.15,5.8,5.8,0,0,1,3.33-2.29c1.31-.41,2.69-.56,4-.88a8.34,8.34,0,0,0,3.15-1.43,2.87,2.87,0,0,0,.94-2.5c-.08-1-1.41-2.32-2-3.17A17.25,17.25,0,0,1,60,223.46a5.78,5.78,0,0,1,.16-4.63,24.12,24.12,0,0,1,1.71-2.24c.46-.64.82-1.37,1.34-2,1.19-1.37,3-1.9,4.81-2.31s3.62-.81,5-2c.32-.28.66-.62,1.08-.61a1,1,0,0,1,.92,1,3,3,0,0,1-.33,1.42c.25.41.87.29,1.3.06s.94-.5,1.35-.24a1.08,1.08,0,0,1,.4.81,7.38,7.38,0,0,1-.93,3.66A7.06,7.06,0,0,0,76,219a13.5,13.5,0,0,0,.57,2.38,18,18,0,0,1,0,5.68,8.71,8.71,0,0,1-.87,2.93,3.72,3.72,0,0,1-1.82,1.66,6.07,6.07,0,0,1-2.86-.19v2.8l1.15.17s7.28.79,7.65,5l2.74,14.94c.1.59,2.8,8.71,3.77,10.7a1.64,1.64,0,0,0,.85.77,15.78,15.78,0,0,1,2.91,2c.62.45,1.08.51,1,.7s-.48.52-1.15.44a20,20,0,0,1-2.16-.94s1.36,1.84,2.4,3c1.33,1.47.69,2.71-1.84,2.81-1.91.08-2.94-1-4.72-4.21-.51-.93-1.29-2.31-1.9-3.51-1.55-3-2.32-4.3-3.16-6.25a54.28,54.28,0,0,1-1.91-5.5s0,5.41.24,7.44c.7,7.48,1.14,17.14.8,21.17-.23,2.76-.84,15.86-1.17,22.19,0,2,0,4.08.19,6.1a20.91,20.91,0,0,0,.7,3.89,13,13,0,0,0,3.4,5.93c.35.33.77.75.66,1.23s-.81.69-1.36.71a7.86,7.86,0,0,1-3.47-.53,4.14,4.14,0,0,1-2.09-2c-.47-1-.47-2.12-1.06-3.07A11.62,11.62,0,0,0,72.23,316a3.17,3.17,0,0,1-.94-1.78c-.07-1,.58-1.81.87-2.69a6.9,6.9,0,0,0,.15-2.52c-.07-1.23-.17-2.47-.29-3.69-.34-3.2-1.25-6.22-1.57-9.42q-.58-5.73-1-11.48c-.21-2.59-.42-5.19-.58-7.79-.09-1.51-.85-3.14-.82-4.62,0,0-.16,7.24-.81,12-.58,4.33-2.38,20.3-3.13,26.14,0,0-.2,3.13-.24,3.95s0,1.4.11,2.71c.07,1.51.25,2.52.52,4.49a7.46,7.46,0,0,1,0,3.19,4.2,4.2,0,0,1-1.1,2c-1.22,1.12-3.18.48-4.06-.77a5,5,0,0,1-1-3.78c.07-1.7.46-2.43.52-4.51s.2-2.73.18-3.42-.05-3.94-.05-3.94c-.5-4.42-1.43-15.57-1-19.71.5-4.7.63-6.34.73-7.41,0,0-.86-6.5-1.11-9.77a49,49,0,0,1-.08-7.47c.19-2.65.82-5.61,1-8.25.2-3.41-.63-7.1-.73-10.83-1.86,6.64-3.78,13.77-4.95,20.46a1.6,1.6,0,0,0,.23,1.12,16.15,16.15,0,0,1,1.18,3.33c.23.73.57,1.05.43,1.18a.87.87,0,0,1-1.17-.14,14.18,14.18,0,0,1-1.14-1.72,24.05,24.05,0,0,0,.09,3.24c.21,2-.55,3-2.65,1.59C48.08,274.71,47.86,273.25,48.33,269.59Z" style="fill:#fff;opacity:0.5"></path><g style="opacity:0.1"><path d="M71.08,231.5a10.11,10.11,0,0,1-2.71-.82,8.89,8.89,0,0,1-1.63-1.63s.42,1.78,1.48,2.3a18.84,18.84,0,0,0,2.86,1Z"></path><path d="M66.74,224a1.44,1.44,0,0,0-1.66-.29c-.83.53-1,3.32,1.25,3.61,0,0-1.37.48-2.08-1.24S64.85,221.81,66.74,224Z"></path><path d="M73.63,226.22a2.76,2.76,0,0,1,1.45-.53c.56.1,1.22.3.73.53A6.73,6.73,0,0,1,73.63,226.22Z"></path><path d="M68.82,276.63c.16,2.6.37,5.2.58,7.79q.46,5.74,1,11.48c.26,2.59.9,5.06,1.32,7.61h0s0-5.85-.37-8.77-.43-12.26-.57-14.92a53.45,53.45,0,0,0-.89-6.34,27,27,0,0,1,2.23-2.14c1.8-1.63,1.46-6.44,1.46-6.44s-.86,2.58-1.46,4.2S69.6,272.28,68,272l0,.66C68.18,274,68.74,275.34,68.82,276.63Z"></path><path d="M83.48,267.52c-.91-2-4.51-9.63-5-11.93s-.46-8.1-.77-10.32A20.44,20.44,0,0,0,76,240.22s.7,4.44.77,6.27,0,7.95,0,7.95a54.28,54.28,0,0,0,1.91,5.5c.84,1.95,1.61,3.22,3.16,6.25.61,1.2,1.39,2.58,1.9,3.51,1.78,3.24,2.81,4.29,4.72,4.21l.32,0C85.62,273.15,84.4,269.51,83.48,267.52Z"></path><path d="M59.94,241.74l-2.29,5c.1,3.73.93,7.42.73,10.83-.15,2.64-.78,5.6-1,8.25a49,49,0,0,0,.08,7.47c.25,3.27,1.11,9.77,1.11,9.77-.1,1.07-.23,2.71-.73,7.41-.35,3.34.19,11.24.67,16.49,0-.05,0-8.91.57-15.31s.83-9.54,0-15.68.74-9.92,1.3-14.27-.66-7.94-1.13-11.81A25,25,0,0,1,59.94,241.74Z"></path></g><path d="M43.15,210.56V322.89c0,6.16,13.7,17.88,39.47,10.08,0,0-16.77,3.1-27.2-2.35S46,319.64,46,307.37,43.15,210.56,43.15,210.56Z" style="fill:#fff;opacity:0.7000000000000001"></path><path d="M38.05,181.53a25.17,25.17,0,0,1,5.41-4.15C56.27,170,77,170,89.84,177.38a24.85,24.85,0,0,1,5.4,4.15h4.2v9.24h0c0,4.85-3.2,9.69-9.6,13.39-12.81,7.4-33.57,7.4-46.38,0-6.4-3.7-9.61-8.54-9.61-13.39v-9.24Z" style="fill:#263238"></path><ellipse cx="66.65" cy="183.14" rx="32.8" ry="18.93" style="fill:#37474f"></ellipse><path d="M66.65,165.07c8.61,0,16.69,1.93,22.76,5.43,5.91,3.42,9.17,7.91,9.17,12.64s-3.26,9.23-9.17,12.64c-6.07,3.5-14.15,5.43-22.76,5.43S50,199.28,43.89,195.78c-5.91-3.41-9.17-7.9-9.17-12.64s3.26-9.22,9.17-12.64C50,167,58,165.07,66.65,165.07m0-.86c-8.39,0-16.79,1.85-23.19,5.54-12.81,7.4-12.81,19.39,0,26.78,6.4,3.7,14.8,5.55,23.19,5.55s16.79-1.85,23.19-5.55c12.81-7.39,12.81-19.38,0-26.78-6.4-3.69-14.8-5.54-23.19-5.54Z" style="fill:#455a64"></path></g></g><g id="freepik--Alien--inject-2"><g id="freepik--alien--inject-2"><g id="freepik--alien--inject-2"><path d="M287.55,236.7a249,249,0,0,1-29-.85,6.23,6.23,0,0,1-5.28-2.94c-9.9-13-15.38-28.23-20-35.87l2.58-10.22c7.35-.25,10.15.92,14.81,10.77,4,8.48,9.43,21.81,12,26.32,1.17.69,12.88,1.62,24.6,3.31C294.24,228.23,287.55,236.7,287.55,236.7Z" style="fill:#37474f"></path><path d="M242.8,207.16A16.32,16.32,0,0,0,245,200c.3-4.25,0-12.38-5.27-14.79s-8.57.23-9.74,2.36S242.8,207.16,242.8,207.16Z" style="fill:#10A810"></path><path d="M287.29,227.22a15.09,15.09,0,0,0,8.72-1.5c4.95-2.69,5.15-5.42,7.19-5.54,1.24-.08,2.22,2.09,1,2.69s-5.47,3.54-6.73,4.4,2.93,1.31,5.18.89,5.9-3.06,7.78-5.44,2.17-4.63,3.74-3.9,1.95,1.57,1,3.14c-.8,1.28-4.72,4.8-8,6.57-2.32,1.26-6.55,2.25-6.67,3s4.81.46,8.07-.22,7.25-1.7,8.22-3.65c.58-1.15,2.35.08,2.53,1.54s-1.11,2.13-2.57,2.57a104.37,104.37,0,0,1-14,2.43c-3,.16-2.1,1,.45,1.22s7.83.38,9.79-.18,3.45-1.87,4.4-.32.73,3.08-1.73,3.17-8.47.24-14.3-.18c-3.51-.25-5.43-.51-8.41-.73-3.5-.26-5.34-.46-5.34-.46A20.9,20.9,0,0,1,287.29,227.22Z" style="fill:#10A810"></path><path d="M242,147.66l-.17-.51c0-.12-.08-.25-.13-.37-.16-.46-.34-.91-.53-1.35s-.41-.9-.65-1.34c-.12-.24-.26-.47-.4-.71l-.2-.36c-3.82-6.39-11.56-10.56-19.54-10.52a21.75,21.75,0,0,0-6.6,42.45l0,13.25c6,2.3,10.71,2.45,14-1.66l0-7.85c3.19.52,6.81,1,8.51.29s5.65-3.12,6.46-14.34c0-.35.06-.83.1-1.42,1.93-.92,1.74-3.93.26-4.09C243,155.85,243.32,151.82,242,147.66Z" style="fill:#10A810"></path><path d="M216.07,174.69c0-2.8-3.09-2-8.7-6.3s-8.64-13.86-8.06-19.27a21.39,21.39,0,0,0-.64,5.22A21.77,21.77,0,0,0,213.74,175l0,13.25q1.17.45,2.28.78Z" style="opacity:0.30000000000000004"></path><g id="freepik--Character--inject-2"><g id="freepik--character--inject-2"><path d="M207.38,228.42c-1.87,2.44-15.59,10.39-15.36,21.54.23,11.34.54,18.66,2,36.25,1.07,12.5,1.44,20.93,1.44,20.93a165.87,165.87,0,0,0-1.78,17.25C193,338,196,372.74,196,372.74a9.76,9.76,0,0,0,9.39.8s8.19-50.27,10.43-63.71c1.94-11.73,4.84-33.18,4.84-33.18l4.26,32.3s-.59,6.28-.77,12.76c-.23,8,5.39,45,5.39,45s3.54,2.05,8.77.17c0,0,4.7-47.49,5.24-58.8.46-9.87.83-37.77.92-57.45,0-5.54-2.95-14.52-3.74-19.28Z" style="fill:#37474f"></path><path d="M240.33,370.79c.26,2,2,6.1,8.54,11.2,1.19.93,3.26,2.59,4.23,3.27,4.24,3,6.25,4.05,4.86,6.13s-4.38,2.6-8.19,2.48a17.55,17.55,0,0,1-10-4.39,20.29,20.29,0,0,0-7.12-4.61c-2.7-.79-5.85-2.55-6.06-4a15.73,15.73,0,0,1,.43-5.65,19.77,19.77,0,0,0,.77-4.16c.08-1.67-.06-5.36-.34-8.89s-1.11-7.6.3-7.88l.21,1.56s1.12,1.33,5.28,1.27,6-1.11,6-1.11l.1-1.26s1.16-.21,1.05,1.08S240.08,368.76,240.33,370.79Z" style="fill:#263238"></path><path d="M206.15,376.89c-.16,2-.12,3-.25,6.17a71.1,71.1,0,0,0,.62,11.48c.5,4.69.66,7.15-1.68,11.64s-7.74,1.53-9.57-1.22-2.57-4.56-2.25-9.31c.29-4.16,1.29-5.92,1.59-11,.27-4.73.69-6.65.69-8.34,0-1.51-.45-7.92-.56-9.33s.61-1.77.61-1.77l.12,1.46s.84,1.64,5.16,1.75,5.77-1.19,5.77-1.19l.22-1.41s.75.39.54,1.67S206.3,374.88,206.15,376.89Z" style="fill:#263238"></path><path d="M220.67,276.65,223,261a27.75,27.75,0,0,0,13.29-3.73s-2,5.8-9.51,9.77l-1.48,5.86-.4,36.07Z" style="fill:#263238"></path><path d="M220.67,276.65s21.65-7.74,23.68-25.66L192,250c1.44,12.93,19.79,21.31,29.48,21.18Z" style="fill:#263238"></path></g><path d="M227.72,180.48v-1.79s-8.32-2.42-9.25-4.76a7.06,7.06,0,0,0,2.44,3.49C222.22,178.55,225.52,179.76,227.72,180.48Z" style="opacity:0.30000000000000004"></path></g><path d="M222,162.46a6.61,6.61,0,0,1-3-4.84,3,3,0,0,1,1.56-2.93,8.2,8.2,0,0,1,7.75-.07,6.44,6.44,0,0,1,3.3,5.53,3,3,0,0,1-2.13,3.12A8.65,8.65,0,0,1,222,162.46Z" style="fill:#37474f"></path><path d="M238.2,160.85c-.56-3.79,1.47-7.83,4.26-8.12,0,0,1.28.28,1.9,2.72a7.41,7.41,0,0,1-.73,4.46,3.61,3.61,0,0,1-2.23,1.78,5.14,5.14,0,0,1-2.2.16A1.18,1.18,0,0,1,238.2,160.85Z" style="fill:#37474f"></path><path d="M234.72,167.13a.66.66,0,0,1-.83.44c-.41-.07-.69-.38-.64-.69a.68.68,0,0,1,.84-.44C234.49,166.51,234.78,166.82,234.72,167.13Z" style="opacity:0.30000000000000004"></path><path d="M238.51,166a.67.67,0,0,1-.29.89.59.59,0,1,1-.65-.93A.67.67,0,0,1,238.51,166Z" style="opacity:0.30000000000000004"></path><g style="opacity:0.30000000000000004"><path d="M232.31,172.3l-3.8-1.35a2,2,0,0,0,1.15,2.61A2.12,2.12,0,0,0,232.31,172.3Z"></path></g><path d="M230.83,186.65c5.55.17,9.67,3.16,11.51,10.78,1.92,8,.77,17,1.17,24.44.15,2.69.33,5,.6,6.68,1.76,10.46,6.89,31.12-18.94,37.3C206.33,268.47,194.65,258.1,192,250a14.78,14.78,0,0,1-.51-5.3,27.22,27.22,0,0,1,1.65-6.85c3.6-10.35,9.18-13,3.23-27.82-2.85-7.13-.85-12.12.24-15.34,1.59-4.76,3.34-5.52,5.5-7,0,0,2.67-1.49,8.53-1.27C220,192.08,230.83,186.65,230.83,186.65Z" style="fill:#455a64"></path><path d="M231.79,186.12a4.19,4.19,0,0,0-4.06-3.77v1.3s.08,3.45-7,3.47c-7.45,0-7-3.41-7-3.41V182.4a4.2,4.2,0,0,0-4,3.8,5.14,5.14,0,0,0,2.95,5.48c2.48,1.42,4.26,1.85,8.1,1.84s5.62-.46,8.09-1.9A5.16,5.16,0,0,0,231.79,186.12Z" style="fill:#37474f"></path><path d="M196.25,256.82a38.55,38.55,0,0,0,7.22,6.92c4.42,3.46,7,2.56,7.93,4.39.57,1.1-1,2.86-2.08,1.95s-5.42-3.6-6.71-4.42,0,3.21,1.25,5.11,5.14,4.18,8.07,5,5.1.14,5.06,1.87-1.12,2.79-2.48,2.14-7-3.3-9.21-4.71-4.26-5.48-5-5.3,1.1,5,3,7.68a22.26,22.26,0,0,0,7.07,5.9c1.18.5.4,2.36-.86,3.1s-2.39-.16-3.38-1.33-6.11-8.42-7.51-12-1.35-1-.87,1.13c.58,2.56,2.42,7.24,3.7,8.82s3.09,2.42,2,3.9-2.53,1.9-3.59-.33a92.61,92.61,0,0,1-4.44-14.48c-.33-1.48-1.75-3.67-2.83-5.51-1.65-2.81-3.46-5.33-3.46-5.33S191,258,196.25,256.82Z" style="fill:#10A810"></path><path d="M189.2,261.27c-6.23-7.54-13.72-17.49-18.7-23.52-2.5-3-1.41-4.3-.05-7.32,3.42-7.63,12.25-26,15.47-32.44,5.07-10.06,9.6-9.64,15.06-9.74,2,2.58,5.74,14.37-3.08,21.55-4.22,5.63-13.71,24.27-13.71,24.27,2,3.68,8.91,17.09,12.06,22.75C196.25,256.82,191.24,258.8,189.2,261.27Z" style="fill:#37474f"></path><path d="M197.9,209.8a17.58,17.58,0,0,0,5.38-12.3c.18-5.21-2.18-9.13-4.48-9.19a14.36,14.36,0,0,0-5.7,1.18s.11-1.83,3.56-3.16c4.36-1.68,7.41-.89,9.77,3.91C208,193.44,209.54,207.61,197.9,209.8Z" style="fill:#10A810"></path><path d="M227.75,354.27l-.17-1.26a3.1,3.1,0,0,0-1.65,1.69,4.21,4.21,0,0,0,.48,3.4c.45.68,2.27,1.81,7.4,1.83s6.48-1.65,7-2.43a4.16,4.16,0,0,0,.35-3.28,3.85,3.85,0,0,0-1.51-1.26l-.12,1.27s-1.26,1.56-6,1.67S227.75,354.27,227.75,354.27Z" style="fill:#10A810"></path><path d="M195.39,364.93l-.09-1.22a3.23,3.23,0,0,0-1.87,1.7,4.25,4.25,0,0,0,.48,3.4c.45.68,2.27,1.81,7.4,1.83s6.48-1.66,7-2.43a4.16,4.16,0,0,0,.35-3.28,4,4,0,0,0-1.67-1.26l-.19,1.19s-1,1.64-5.75,1.75S195.39,364.93,195.39,364.93Z" style="fill:#10A810"></path><path d="M244.26,229.42q-.07-.45-.15-.87c-.27-1.67-.45-4-.6-6.68-4.2,2.76-12.56,5.58-25.34,5-10.8-.51-16.54-2.75-19.25-4.28a19.48,19.48,0,0,1-1.87,6.41c2.42,1.64,8.57,4.8,20.44,5.26C230.81,234.76,240.22,232,244.26,229.42Z" style="fill:#10A810"></path></g><path d="M336.69,206.06l.16-.21c.4-.56.8-1.12,1.18-1.69l.27-.44q.49-.75,1-1.53c.12-.19.22-.38.33-.58.28-.48.55-1,.81-1.45l.35-.68q.36-.71.69-1.41c.12-.25.23-.51.35-.77.2-.45.4-.92.59-1.38.11-.28.22-.55.32-.83.18-.46.34-.92.51-1.38.1-.29.2-.58.29-.88.15-.45.29-.91.43-1.38.09-.3.17-.61.26-.92.12-.46.23-.92.34-1.39.08-.32.16-.63.22-.95.1-.47.19-.95.28-1.42s.12-.64.17-1c.08-.49.14-1,.2-1.49,0-.31.09-.61.12-.92.06-.55.1-1.1.13-1.66,0-.26.05-.53.06-.79.05-.82.07-1.65.07-2.48s0-1.66-.07-2.48c0-.27,0-.53-.06-.8,0-.55-.07-1.1-.13-1.65,0-.31-.08-.62-.12-.93-.06-.5-.12-1-.2-1.49-.05-.32-.12-.63-.17-1-.09-.48-.18-.95-.28-1.43-.06-.31-.14-.63-.22-.94-.11-.47-.22-.94-.34-1.4l-.26-.92c-.14-.46-.28-.92-.43-1.38-.09-.29-.19-.58-.29-.88-.17-.46-.33-.92-.51-1.37-.1-.28-.21-.56-.32-.83-.19-.47-.39-.93-.59-1.39-.12-.25-.23-.51-.35-.76q-.33-.72-.69-1.41c-.11-.23-.23-.46-.35-.68-.26-.49-.53-1-.81-1.46-.11-.19-.21-.38-.33-.57-.31-.52-.63-1-1-1.54l-.27-.43c-.39-.58-.78-1.14-1.19-1.69a1.59,1.59,0,0,0-.15-.21,46.93,46.93,0,0,0-6.39-7h0a46.56,46.56,0,1,0,0,69.27h0A46.93,46.93,0,0,0,336.69,206.06Zm-82.85-27.59a45.36,45.36,0,0,1,76.46-33.06c.54.51,1.07,1,1.59,1.57l0,.05c.51.52,1,1.06,1.47,1.6l.09.1c.46.53.91,1.07,1.34,1.62l.12.15c.42.53.83,1.08,1.22,1.63l.15.22c.38.53.75,1.07,1.1,1.62l.18.28c.34.54.66,1.08,1,1.62l.2.35c.3.53.59,1.07.86,1.61.08.14.15.28.22.42.26.52.51,1.05.75,1.58l.23.51c.22.51.43,1,.64,1.55.07.19.15.38.23.57.19.51.36,1,.54,1.53.07.22.15.43.22.65.16.5.3,1,.44,1.51l.21.71c.13.49.24,1,.36,1.49.06.25.12.51.17.76.11.5.19,1,.28,1.49l.15.8c.07.51.13,1,.2,1.52,0,.27.07.54.1.81.06.54.09,1.08.13,1.62l.06.74c0,.78.06,1.58.06,2.38s0,1.59-.06,2.38l-.06.73c0,.54-.07,1.09-.13,1.62,0,.28-.07.55-.1.82-.07.5-.13,1-.2,1.51l-.15.8c-.09.5-.17,1-.28,1.49,0,.26-.11.51-.17.77-.12.5-.23,1-.36,1.49-.07.24-.14.47-.2.71-.15.5-.29,1-.45,1.51l-.22.64c-.18.52-.35,1-.54,1.53-.08.19-.16.39-.23.58-.21.52-.42,1-.64,1.55-.08.17-.15.34-.23.5-.24.54-.49,1.06-.75,1.58-.07.15-.14.29-.22.43-.27.54-.56,1.07-.86,1.6a4,4,0,0,1-.2.35c-.32.55-.64,1.09-1,1.62l-.18.28c-.35.55-.72,1.1-1.1,1.63l-.15.21c-.39.56-.8,1.1-1.22,1.63l-.12.16c-.43.55-.88,1.09-1.34,1.62l-.09.09c-.47.55-1,1.08-1.47,1.61l0,0c-.52.54-1.05,1.06-1.59,1.58a45.37,45.37,0,0,1-76.46-33.06Z" style="fill:#10A810"></path><path d="M330.29,203.4h0a39.4,39.4,0,0,0,3.58-5.27c.05-.08.1-.16.14-.24.22-.38.42-.77.62-1.16.08-.14.15-.28.22-.42.18-.37.36-.74.53-1.11.08-.17.16-.34.23-.51.17-.36.33-.72.48-1.09.07-.18.14-.37.22-.56l.42-1.09c.06-.18.12-.37.19-.55.21-.63.41-1.26.59-1.89.09-.3.18-.59.25-.89s.14-.57.21-.85.16-.64.22-1,.12-.55.17-.83.13-.68.18-1,.09-.54.13-.81.09-.73.14-1.1.06-.51.08-.76c0-.41.07-.83.1-1.25,0-.21,0-.42,0-.64,0-.63,0-1.27,0-1.91s0-1.28,0-1.92c0-.21,0-.42,0-.64,0-.41-.06-.83-.1-1.24,0-.26,0-.51-.08-.76s-.09-.74-.14-1.11-.08-.53-.13-.8-.12-.69-.18-1-.11-.55-.17-.83-.14-.64-.22-1-.13-.56-.2-.84-.17-.6-.26-.9c-.18-.63-.38-1.25-.59-1.87-.07-.19-.13-.38-.19-.57l-.42-1.08-.22-.57c-.15-.36-.31-.73-.47-1.09l-.24-.51c-.17-.37-.35-.74-.53-1.1-.07-.15-.14-.28-.22-.42-.2-.39-.4-.78-.62-1.16,0-.08-.09-.16-.14-.24a38.76,38.76,0,0,0-3.58-5.27h0a39.85,39.85,0,1,0,0,49.86Zm-31.06,13.77a38.7,38.7,0,1,1,32-60.46c.13.2.26.41.4.61s.35.54.52.82l.41.67.47.82c.12.22.25.44.37.67l.48.93c.1.2.2.39.29.59.24.49.46,1,.68,1.5.08.18.15.37.22.55.15.35.29.7.42,1.06l.24.66c.12.33.23.67.34,1l.21.66c.11.37.22.74.32,1.12l.15.56c.14.56.28,1.12.39,1.69,0,.11,0,.23.07.34.09.47.17.94.25,1.41l.09.61.15,1.19c0,.21,0,.43.07.64l.09,1.25c0,.19,0,.38,0,.57,0,.61,0,1.22,0,1.83s0,1.22,0,1.82c0,.19,0,.38,0,.57l-.09,1.25c0,.22-.05.43-.07.65l-.15,1.19-.09.61c-.08.47-.16.94-.25,1.41,0,.11,0,.22-.07.34-.11.56-.25,1.12-.39,1.68l-.15.57c-.1.37-.21.75-.32,1.11l-.21.67c-.11.34-.22.67-.34,1l-.24.66q-.19.53-.42,1.05c-.07.19-.14.38-.22.56-.22.5-.44,1-.68,1.49-.09.2-.19.4-.29.59l-.48.94c-.12.22-.25.44-.37.67l-.47.82-.41.67c-.17.27-.34.55-.52.82s-.27.41-.4.61A38.72,38.72,0,0,1,299.23,217.17Z" style="fill:#10A810"></path><path d="M330.29,192.59h0c.24-.53.46-1.07.68-1.61l0,0c.21-.52.4-1.05.58-1.58,0,0,0-.09,0-.13.17-.51.32-1,.47-1.52l.06-.23c.13-.48.25-1,.36-1.45,0-.11.05-.21.08-.32.1-.45.18-.92.26-1.38,0-.14,0-.27.08-.41.07-.44.12-.88.18-1.32l.06-.48c.05-.45.08-.9.11-1.35,0-.15,0-.31,0-.47,0-.6.05-1.21.05-1.82s0-1.22-.05-1.83c0-.16,0-.31,0-.47,0-.45-.06-.9-.11-1.34l-.06-.48c-.06-.45-.11-.89-.18-1.33,0-.13-.05-.27-.08-.41-.08-.46-.16-.92-.26-1.38,0-.1,0-.21-.08-.32-.11-.48-.23-1-.36-1.45l-.06-.22c-.15-.51-.3-1-.47-1.52,0-.05,0-.09,0-.13-.18-.53-.37-1.06-.58-1.58l0-.06c-.22-.54-.44-1.07-.68-1.6h0a34.13,34.13,0,1,0,0,28.24Zm-31.06,18.86A33,33,0,1,1,331.35,171l.12.54c.06.28.11.56.17.84l.12.7.12.76c0,.28.07.55.1.82s.06.46.08.7.05.65.07,1,0,.37,0,.56c0,.52,0,1.05,0,1.58s0,1.05,0,1.57c0,.19,0,.38,0,.57s0,.65-.07,1-.05.46-.08.69-.06.55-.1.82l-.12.77-.12.69c-.06.29-.11.57-.17.85l-.12.53a33.45,33.45,0,0,1-1.05,3.58A33,33,0,0,1,299.23,211.45Z" style="fill:#10A810"></path><g style="opacity:0.6"><path d="M336.69,206.06l.16-.21c.4-.56.8-1.12,1.18-1.69l.27-.44q.49-.75,1-1.53c.12-.19.22-.38.33-.58.28-.48.55-1,.81-1.45l.35-.68q.36-.71.69-1.41c.12-.25.23-.51.35-.77.2-.45.4-.92.59-1.38.11-.28.22-.55.32-.83.18-.46.34-.92.51-1.38.1-.29.2-.58.29-.88.15-.45.29-.91.43-1.38.09-.3.17-.61.26-.92.12-.46.23-.92.34-1.39.08-.32.16-.63.22-.95.1-.47.19-.95.28-1.42s.12-.64.17-1c.08-.49.14-1,.2-1.49,0-.31.09-.61.12-.92.06-.55.1-1.1.13-1.66,0-.26.05-.53.06-.79.05-.82.07-1.65.07-2.48s0-1.66-.07-2.48c0-.27,0-.53-.06-.8,0-.55-.07-1.1-.13-1.65,0-.31-.08-.62-.12-.93-.06-.5-.12-1-.2-1.49-.05-.32-.12-.63-.17-1-.09-.48-.18-.95-.28-1.43-.06-.31-.14-.63-.22-.94-.11-.47-.22-.94-.34-1.4l-.26-.92c-.14-.46-.28-.92-.43-1.38-.09-.29-.19-.58-.29-.88-.17-.46-.33-.92-.51-1.37-.1-.28-.21-.56-.32-.83-.19-.47-.39-.93-.59-1.39-.12-.25-.23-.51-.35-.76q-.33-.72-.69-1.41c-.11-.23-.23-.46-.35-.68-.26-.49-.53-1-.81-1.46-.11-.19-.21-.38-.33-.57-.31-.52-.63-1-1-1.54l-.27-.43c-.39-.58-.78-1.14-1.19-1.69a1.59,1.59,0,0,0-.15-.21,46.93,46.93,0,0,0-6.39-7h0a46.56,46.56,0,1,0,0,69.27h0A46.93,46.93,0,0,0,336.69,206.06Zm-82.85-27.59a45.36,45.36,0,0,1,76.46-33.06c.54.51,1.07,1,1.59,1.57l0,.05c.51.52,1,1.06,1.47,1.6l.09.1c.46.53.91,1.07,1.34,1.62l.12.15c.42.53.83,1.08,1.22,1.63l.15.22c.38.53.75,1.07,1.1,1.62l.18.28c.34.54.66,1.08,1,1.62l.2.35c.3.53.59,1.07.86,1.61.08.14.15.28.22.42.26.52.51,1.05.75,1.58l.23.51c.22.51.43,1,.64,1.55.07.19.15.38.23.57.19.51.36,1,.54,1.53.07.22.15.43.22.65.16.5.3,1,.44,1.51l.21.71c.13.49.24,1,.36,1.49.06.25.12.51.17.76.11.5.19,1,.28,1.49l.15.8c.07.51.13,1,.2,1.52,0,.27.07.54.1.81.06.54.09,1.08.13,1.62l.06.74c0,.78.06,1.58.06,2.38s0,1.59-.06,2.38l-.06.73c0,.54-.07,1.09-.13,1.62,0,.28-.07.55-.1.82-.07.5-.13,1-.2,1.51l-.15.8c-.09.5-.17,1-.28,1.49,0,.26-.11.51-.17.77-.12.5-.23,1-.36,1.49-.07.24-.14.47-.2.71-.15.5-.29,1-.45,1.51l-.22.64c-.18.52-.35,1-.54,1.53-.08.19-.16.39-.23.58-.21.52-.42,1-.64,1.55-.08.17-.15.34-.23.5-.24.54-.49,1.06-.75,1.58-.07.15-.14.29-.22.43-.27.54-.56,1.07-.86,1.6a4,4,0,0,1-.2.35c-.32.55-.64,1.09-1,1.62l-.18.28c-.35.55-.72,1.1-1.1,1.63l-.15.21c-.39.56-.8,1.1-1.22,1.63l-.12.16c-.43.55-.88,1.09-1.34,1.62l-.09.09c-.47.55-1,1.08-1.47,1.61l0,0c-.52.54-1.05,1.06-1.59,1.58a45.37,45.37,0,0,1-76.46-33.06Z" style="fill:#fff"></path><path d="M330.29,203.4h0a39.4,39.4,0,0,0,3.58-5.27c.05-.08.1-.16.14-.24.22-.38.42-.77.62-1.16.08-.14.15-.28.22-.42.18-.37.36-.74.53-1.11.08-.17.16-.34.23-.51.17-.36.33-.72.48-1.09.07-.18.14-.37.22-.56l.42-1.09c.06-.18.12-.37.19-.55.21-.63.41-1.26.59-1.89.09-.3.18-.59.25-.89s.14-.57.21-.85.16-.64.22-1,.12-.55.17-.83.13-.68.18-1,.09-.54.13-.81.09-.73.14-1.1.06-.51.08-.76c0-.41.07-.83.1-1.25,0-.21,0-.42,0-.64,0-.63,0-1.27,0-1.91s0-1.28,0-1.92c0-.21,0-.42,0-.64,0-.41-.06-.83-.1-1.24,0-.26,0-.51-.08-.76s-.09-.74-.14-1.11-.08-.53-.13-.8-.12-.69-.18-1-.11-.55-.17-.83-.14-.64-.22-1-.13-.56-.2-.84-.17-.6-.26-.9c-.18-.63-.38-1.25-.59-1.87-.07-.19-.13-.38-.19-.57l-.42-1.08-.22-.57c-.15-.36-.31-.73-.47-1.09l-.24-.51c-.17-.37-.35-.74-.53-1.1-.07-.15-.14-.28-.22-.42-.2-.39-.4-.78-.62-1.16,0-.08-.09-.16-.14-.24a38.76,38.76,0,0,0-3.58-5.27h0a39.85,39.85,0,1,0,0,49.86Zm-31.06,13.77a38.7,38.7,0,1,1,32-60.46c.13.2.26.41.4.61s.35.54.52.82l.41.67.47.82c.12.22.25.44.37.67l.48.93c.1.2.2.39.29.59.24.49.46,1,.68,1.5.08.18.15.37.22.55.15.35.29.7.42,1.06l.24.66c.12.33.23.67.34,1l.21.66c.11.37.22.74.32,1.12l.15.56c.14.56.28,1.12.39,1.69,0,.11,0,.23.07.34.09.47.17.94.25,1.41l.09.61.15,1.19c0,.21,0,.43.07.64l.09,1.25c0,.19,0,.38,0,.57,0,.61,0,1.22,0,1.83s0,1.22,0,1.82c0,.19,0,.38,0,.57l-.09,1.25c0,.22-.05.43-.07.65l-.15,1.19-.09.61c-.08.47-.16.94-.25,1.41,0,.11,0,.22-.07.34-.11.56-.25,1.12-.39,1.68l-.15.57c-.1.37-.21.75-.32,1.11l-.21.67c-.11.34-.22.67-.34,1l-.24.66q-.19.53-.42,1.05c-.07.19-.14.38-.22.56-.22.5-.44,1-.68,1.49-.09.2-.19.4-.29.59l-.48.94c-.12.22-.25.44-.37.67l-.47.82-.41.67c-.17.27-.34.55-.52.82s-.27.41-.4.61A38.72,38.72,0,0,1,299.23,217.17Z" style="fill:#fff"></path><path d="M330.29,192.59h0c.24-.53.46-1.07.68-1.61l0,0c.21-.52.4-1.05.58-1.58,0,0,0-.09,0-.13.17-.51.32-1,.47-1.52l.06-.23c.13-.48.25-1,.36-1.45,0-.11.05-.21.08-.32.1-.45.18-.92.26-1.38,0-.14,0-.27.08-.41.07-.44.12-.88.18-1.32l.06-.48c.05-.45.08-.9.11-1.35,0-.15,0-.31,0-.47,0-.6.05-1.21.05-1.82s0-1.22-.05-1.83c0-.16,0-.31,0-.47,0-.45-.06-.9-.11-1.34l-.06-.48c-.06-.45-.11-.89-.18-1.33,0-.13-.05-.27-.08-.41-.08-.46-.16-.92-.26-1.38,0-.1,0-.21-.08-.32-.11-.48-.23-1-.36-1.45l-.06-.22c-.15-.51-.3-1-.47-1.52,0-.05,0-.09,0-.13-.18-.53-.37-1.06-.58-1.58l0-.06c-.22-.54-.44-1.07-.68-1.6h0a34.13,34.13,0,1,0,0,28.24Zm-31.06,18.86A33,33,0,1,1,331.35,171l.12.54c.06.28.11.56.17.84l.12.7.12.76c0,.28.07.55.1.82s.06.46.08.7.05.65.07,1,0,.37,0,.56c0,.52,0,1.05,0,1.58s0,1.05,0,1.57c0,.19,0,.38,0,.57s0,.65-.07,1-.05.46-.08.69-.06.55-.1.82l-.12.77-.12.69c-.06.29-.11.57-.17.85l-.12.53a33.45,33.45,0,0,1-1.05,3.58A33,33,0,0,1,299.23,211.45Z" style="fill:#fff"></path></g><g id="freepik--Atom--inject-2"><polygon points="313.34 187.06 312.32 186.88 315.81 167.09 301.22 164.45 301.4 163.43 317.01 166.26 313.34 187.06" style="fill:#455a64"></polygon><path d="M313.32,167.54a3.21,3.21,0,1,1,3.95,2.23A3.21,3.21,0,0,1,313.32,167.54Z" style="fill:#10A810"></path><path d="M315.88,164.32a.73.73,0,0,0-.5.56.82.82,0,0,0,.34.57,5.28,5.28,0,0,0,1.37.89,1.22,1.22,0,0,0,1,.13.85.85,0,0,0,.46-.77C318.54,164.39,316.89,163.9,315.88,164.32Z" style="fill:#fff;opacity:0.35000000000000003"></path><path d="M316.32,168.24a3,3,0,0,1-1.43-4.39,3.21,3.21,0,1,0,4.71,3.26A2.5,2.5,0,0,1,316.32,168.24Z" style="opacity:0.1"></path><path d="M315.88,168.93a3.31,3.31,0,0,1-2.4-3.55,3.21,3.21,0,1,0,6,2.14,2.71,2.71,0,0,0,.09-.41C319.39,168.24,318.06,169.54,315.88,168.93Z" style="opacity:0.1"></path><polygon points="285.23 190.53 284.36 189.98 301.36 162.88 313.3 186.74 312.37 187.2 301.26 164.99 285.23 190.53" style="fill:#455a64"></polygon><path d="M298.21,164.8a3.21,3.21,0,1,1,4,2.23A3.23,3.23,0,0,1,298.21,164.8Z" style="fill:#10A810"></path><path d="M300.77,161.58a.73.73,0,0,0-.49.56.83.83,0,0,0,.34.58,5.66,5.66,0,0,0,1.37.89,1.25,1.25,0,0,0,1,.12.84.84,0,0,0,.46-.77C303.43,161.66,301.78,161.16,300.77,161.58Z" style="fill:#fff;opacity:0.35000000000000003"></path><path d="M301.22,165.51a3,3,0,0,1-1.44-4.4,3.21,3.21,0,1,0,4.71,3.26A2.5,2.5,0,0,1,301.22,165.51Z" style="opacity:0.1"></path><path d="M300.77,166.2a3.32,3.32,0,0,1-2.39-3.56,3.13,3.13,0,0,0-.16,2.16,3.21,3.21,0,0,0,6.19,0c0-.14.06-.28.08-.42C304.29,165.51,303,166.8,300.77,166.2Z" style="opacity:0.1"></path><path d="M279.06,191.85a6,6,0,1,1,7.33,4.14A6,6,0,0,1,279.06,191.85Z" style="fill:#10A810"></path><path d="M284.27,186.05c-.42.18-.85.51-.86,1a1.36,1.36,0,0,0,.59,1,9.59,9.59,0,0,0,2.38,1.56,2.16,2.16,0,0,0,1.71.21,1.46,1.46,0,0,0,.81-1.34C288.9,186.17,286,185.31,284.27,186.05Z" style="fill:#fff;opacity:0.35000000000000003"></path><path d="M284.63,193.16A5.61,5.61,0,0,1,282,185a6,6,0,1,0,8.73,6.05A4.64,4.64,0,0,1,284.63,193.16Z" style="opacity:0.1"></path><path d="M283.8,194.44a6.15,6.15,0,0,1-4.44-6.6,5.85,5.85,0,0,0-.3,4,6,6,0,0,0,11.48,0,6.41,6.41,0,0,0,.16-.76C290.32,193.16,287.85,195.56,283.8,194.44Z" style="opacity:0.1"></path><path d="M309,188.05a4,4,0,1,1,5,2.8A4,4,0,0,1,309,188.05Z" style="fill:#10A810"></path><path d="M312.16,184c-.3.13-.61.37-.62.7a1,1,0,0,0,.43.72,7.21,7.21,0,0,0,1.71,1.12,1.58,1.58,0,0,0,1.23.15,1.07,1.07,0,0,0,.58-1C315.49,184.11,313.42,183.49,312.16,184Z" style="fill:#fff;opacity:0.35000000000000003"></path><path d="M312.72,188.94a3.8,3.8,0,0,1-1.8-5.51,4,4,0,1,0,5.9,4.09A3.14,3.14,0,0,1,312.72,188.94Z" style="opacity:0.1"></path><path d="M312.16,189.8a4.15,4.15,0,0,1-3-4.46,4,4,0,0,0-.21,2.71,4,4,0,0,0,7.76,0,3.1,3.1,0,0,0,.11-.51C316.57,188.94,314.9,190.56,312.16,189.8Z" style="opacity:0.1"></path></g></g></g></svg>
