<svg xmlns="http://www.w3.org/2000/svg" viewBox="0 0 500 500"><g id="freepik--background-simple--inject-2"><path d="M29.61,269.64c2.9,107.31,131.58,195,233,173.86C327,430.07,360.23,427.94,409,401.78s79.9-101.11,64.34-143.54S399.83,196,388.51,140.86,338.31,31.26,287.4,18.53s-132.18,14.83-188,67.83c-31.85,30.22-56,70-66.35,112.77-5.71,23.51-3.84,45.5-3.43,69.21Z" style="fill:#FFE000"></path><path d="M29.61,269.64c2.9,107.31,131.58,195,233,173.86C327,430.07,360.23,427.94,409,401.78s79.9-101.11,64.34-143.54S399.83,196,388.51,140.86,338.31,31.26,287.4,18.53s-132.18,14.83-188,67.83c-31.85,30.22-56,70-66.35,112.77-5.71,23.51-3.84,45.5-3.43,69.21Z" style="fill:#fff;opacity:0.7000000000000001"></path></g><g id="freepik--Floor--inject-2"><path d="M50.52,439.32,37.63,414.44,54.21,431V415.37s11.06,16.58,12,13.82S64,387,64,387l5.87,26.52L69,376.67l10.13,40.54,46.07,12.9,5.53-19.35L143.58,373l-7.37,34.08s3.68-5.52,9.21-14.74,17.5-23,20.27-24.87-11.06,23-11.06,23l-12,27.64-1.85,6.45,16.59-12.9L151,430.11l12.9-14.74-2.77,17.5,18.43-8.29-4.61,10.13,12.9-6.45-6.45,12.9,23-4.6-4.6,8.29,16.58-8.29-2.76,11.05,47.91-1.84-12-8.29,19.35,2.76v-7.37l19.34,11.06-1.84-11.06,7.37,5.53-9.21-35.93,12.9,33.17V425.5l8.29,12,7.37-38.7,1.84,35,18.43-11.05-3.69,17.5,22.12-18.42-6.45,12,23-9.21-3.69,8.29,18.43-9.21-3.69,10.13,15.67-6.45-4.61-23,11,18.31.1-14.62L415.37,432,405.23,384,420,420.89l2.77-21.19,3.68,15.67,12-28.56-2.76,27.63,17.5-20.26-5.53,22.11,21.19-10.14L453.14,425.5H467s-16.58,11.06-11.06,11.06h18.43L471.57,443h14.74l8.29,3.68-31.33,2.77,18.43,8.29-43.3-4.61H420.89L451.3,464.2l20.27,8.29-43.31-7.37,24,8.29-40.54-1.84s-23.95,3.68-26.72,4.6-32.24,12-32.24,12l12.9-11.06s-21.2,3.69-24.88,4.61-41.46,5.53-44.22,6.45-30.41,5.53-30.41,5.53l11.06-6.45s-33.17.92-38.7.92H118.7l12,2.76s-35.93-5.52-38.7-5.52-23-5.53-23-5.53l24-4.61L57,472.49l19.35-11.06-42.38.92H19.2L45,453.14l-24.88-3.68Z" style="fill:#FFE000"></path></g><g id="freepik--Moon--inject-2"><circle cx="223.98" cy="82.35" r="66.1" style="fill:#f2f2f2;stroke:#fff;stroke-miterlimit:10;stroke-width:2px"></circle><ellipse cx="184.39" cy="80.15" rx="17.3" ry="18.36" style="fill:#e3e3e3"></ellipse><path d="M228.52,43.08A14.48,14.48,0,1,1,214.05,28.6,14.47,14.47,0,0,1,228.52,43.08Z" style="fill:#e3e3e3"></path><path d="M221.46,99.92c0,4.68-3.32,8.47-7.41,8.47s-7.42-3.79-7.42-8.47,3.32-8.47,7.42-8.47S221.46,95.24,221.46,99.92Z" style="fill:#e3e3e3"></path><path d="M193.22,114.75a6,6,0,1,1-6-5.65A5.84,5.84,0,0,1,193.22,114.75Z" style="fill:#e3e3e3"></path><path d="M244.06,61.44c0,4.09-3.64,7.41-8.12,7.41s-8.12-3.32-8.12-7.41S231.45,54,235.94,54,244.06,57.34,244.06,61.44Z" style="fill:#e3e3e3"></path><path d="M243.35,35.67a4.24,4.24,0,1,1-4.24-4.24A4.23,4.23,0,0,1,243.35,35.67Z" style="fill:#e3e3e3"></path><path d="M246,92.47a4.24,4.24,0,1,1-4.23-4.23A4.23,4.23,0,0,1,246,92.47Z" style="fill:#e3e3e3"></path><path d="M249.79,127.26a4.24,4.24,0,1,1-4.23-4.23A4.23,4.23,0,0,1,249.79,127.26Z" style="fill:#e3e3e3"></path><path d="M187.57,48.73c0,3.31-3,6-6.71,6s-6.71-2.69-6.71-6,3-6,6.71-6S187.57,45.41,187.57,48.73Z" style="fill:#e3e3e3"></path><path d="M224,72.65c0,5.36-4,9.7-9,9.7s-9-4.34-9-9.7,4-9.71,9-9.71S224,67.28,224,72.65Z" style="fill:#e3e3e3"></path><path d="M269.58,107.91c0,5.36-4.05,9.7-9,9.7s-9-4.34-9-9.7,4.05-9.71,9-9.71S269.58,102.55,269.58,107.91Z" style="fill:#e3e3e3"></path><path d="M218.26,130.26c-2.13,4.4-8.72,5.61-14.72,2.71s-9.13-8.82-7-13.22,8.72-5.61,14.71-2.71S220.39,125.87,218.26,130.26Z" style="fill:#e3e3e3"></path><path d="M265.65,87.46c-4.41-2.12-5.64-8.7-2.76-14.71s8.8-9.16,13.2-7,5.64,8.7,2.75,14.7S270.05,89.57,265.65,87.46Z" style="fill:#e3e3e3"></path></g><g id="freepik--Trees--inject-2"><path d="M470.28,432.8s-7.65-22.21-22.95-36.09S403,361.55,394.55,345.82s-19.56-58.15-28.31-75-9.18-39.79-8.42-45.34a159.1,159.1,0,0,1,6.12-26.84,274.25,274.25,0,0,1,10.72-26.83,14.76,14.76,0,0,1,6.88-6.48c.53-.22,1.2-.44,2-.68l2.58,57.07V163.94c2.22-.6,4.81-1.26,7.42-2l3.14,27.85V161.12a41,41,0,0,0,8.61-3.15c4.59-2.78,12.24-10.18,14.53-12s10.71-10.18,10.71-10.18L413.67,145l-13,9.25S393,158,390,158s-9.18,2.77-9.18,2.77l19.12-35.16,2.13-3.24a6.52,6.52,0,0,0,0,1.86,7.87,7.87,0,0,0,2.18,4.5s2.93-5.63,1.87-9.65a14.35,14.35,0,0,0-.6-1.89l.53-.79a11.38,11.38,0,0,0,5.62,0c4-1.3,3.05-2,3.05-2a27.12,27.12,0,0,0-6.17-1.77c3.66-5.51,7.59-11.38,9.79-14.53,1.75.83,4.14,1.76,5.85,1.63a7.94,7.94,0,0,0,4.65-1.83s-4.41-2.73-8.28-2.69c3.31-3.76,13.08-14,13.08-14s-9.79,8.46-16.84,14.8a2.39,2.39,0,0,0-.47.26,12.53,12.53,0,0,0,.76-6.68c-1-4-1.78-3.19-1.78-3.19s-2.76,5.3-2.36,8.28a8.51,8.51,0,0,0,1.35,3.59c-2.18,2-3.82,3.56-4.37,4.22-2.3,2.78-16.07,22.21-16.83,25s-13,25.91-13,25.91V135.76l6.89-22.21,4.59-16.66-11.48,25-3.82,10.17-7.66-8.32-2.27-5.51c.36.87,6.1,14.85,6.1,17.54s3.83,9.25,3.83,12-4.6,14.8-4.6,14.8-8.41,25.91-9.94,30.54-9.18,21.28-9.18,21.28-.77-25.91-.77-30.53,2.3-23.14,2.3-27.77.76-17.58.76-21.28,9.95-24.06,9.95-24.06l1.89-5.25c.28-.3.44-.51.44-.51l-.23-.08,5.55-15.44L365,103.37c.63-1.71,1.77-5.29,1.29-7.47a7.9,7.9,0,0,0-2.47-4.35s-2.55,5.81-1.23,9.76a8.22,8.22,0,0,0,1.37,2.86,12.49,12.49,0,0,0-6.72.19l-.44.18c1.43-7.31,2.6-13.86,2.6-15.67,0-4.63,2.69-24,2.69-27.71s4.17-21.64,4.17-21.64-6.12,12.95-6.12,17.58-1.53,17.58-3.06,23.13-2.3,15.73-2.3,18.51-3.06,13-3.06,13-2-17.59-3.49-21.29c-1.09-2.64-3.84-11.83-6.54-16.55-1.09-1.9-3.08-3.53-4.62-5.39-5.36-6.48-2.18-6.74-6-10.45a14.54,14.54,0,0,1-1.73-2.13c1.67.88,4.88,2.39,7,2.23A7.87,7.87,0,0,0,341,56.28s-5.39-3.34-9.49-2.59a8.61,8.61,0,0,0-3,.94v0a12.39,12.39,0,0,0,.75-6.64c-1-4-1.78-3.2-1.78-3.2a29.75,29.75,0,0,0-1.85,4.59c-2.22-4.4-4.36-9.16-6-11.69a97.18,97.18,0,0,1-5.35-9.26s9.18,25,10.71,27.76c1,1.8,4.85,7.45,7.46,11.23l2.52,3.65,7.91,17.82,3.53,8V115.4s-.77,2.77.76,8.33,3.06,15.73,3.06,15.73v23.13s-2.29,13-3.06,15.73a29.49,29.49,0,0,0-.76,6.48l-10-16.66s-6.88-11.1-9.94-21.28-4.59-15.73-6.89-22.21-3.82-17.58-3.82-17.58.76,22.21,3.82,33.31,11.48,32.39,11.48,32.39l-22.19-20.36-11.47-12s12.24,20.36,18.36,26.84a58,58,0,0,0,5.42,5l4.91,3.73c2.86,2,5,3.32,5,3.32l3.63,3.2,3.05,2.68,1.73,1.52,3.83,13s1.53,10.18,2.29,18.5a148.85,148.85,0,0,1,.77,18.51,185.63,185.63,0,0,0,.74,21.21c.79,7.48,12.26,52.82,16.09,57.45s6.12,16.66,8.41,22.21,3.07,13.88,6.13,17.58,3.06,8.33,6.12,10.18,4.59,8.33,10.71,13.88,13,16.66,15.3,21.28,1.53,10.18,3.82,14.81,2.3,7.4,2.3,7.4V431l-2.3,4.63L445.8,431s1.53,2.78,6.12,5.55S468,441.13,468,441.13s.76,1.85,4.59,2.78,6.12,0,10.71,1.85,13.77,2.77,13.77,2.77Zm-114-325.64c1.84.49,4.56,1,6.37.62l-4.05,7.62-6.89,13.88S354.14,117.91,356.27,107.16Z" style="fill:#d4d4d4"></path><path d="M238.48,36.23l-3,8.07c.23-.48.35-.76.35-.76Z" style="fill:#b2b2b2"></path><polygon points="96.31 36.23 97.06 37.52 93.65 26.27 96.31 36.23" style="fill:#b2b2b2"></polygon><path d="M267,168.43,283,155.15l17.27-21.26,15.28-21.26s-9.3,12.62-11.29,14-10,10.63-12,12.62c-.76.76-3.31,3.41-6.2,6.42.58-1.56,1.91-5.45,1.4-7.76a7.88,7.88,0,0,0-2.48-4.35s-2.55,5.81-1.23,9.76a8.53,8.53,0,0,0,1.37,2.86,12.49,12.49,0,0,0-6.72.19c-3.86,1.55-2.91,2.2-2.91,2.2a26.14,26.14,0,0,0,6.48,1.36l-6.32,6.59-17.27,11.3,6.64-8.64,8-13.28,5.32-21.93-4,11.3-2.29,4c-2.64,4.59-6.85,11.91-8.78,15.14-.41.7-.72,1.2-.89,1.45-1.33,2-8.63,12.62-8.63,12.62l-8.64,15.28s-16.61,9.3-20.6,11.3c-3.38,1.69-48.91,2.9-62.57,3.23,13.71-12.26,42.62-39,51.87-61.23,1.74-4.18,3.3-7.89,4.69-11.21l16-11.9,10.87-7.71h17.22l28.09-2.26H261.25L247.66,103l13.59-5.89,11.33-6.34,10-14.05s-6.63,6.63-9.82,9.57a17.88,17.88,0,0,1-1.51,1.31c-.79.53-3.74,2.29-6.06,3.66-.42-.13-1-.28-1.66-.44.13-.3,2.29-5.56,1.66-8.41a7.88,7.88,0,0,0-2.48-4.35s-2.55,5.81-1.22,9.76a8.39,8.39,0,0,0,1.36,2.86,12.55,12.55,0,0,0-6.71.18c-3.87,1.56-2.91,2.21-2.91,2.21a29.17,29.17,0,0,0,5.22,1.26l-8,2.78L259.44,79s-11.78,17.22-12.23,18.58S235,108.46,235,108.46l-12.63,8.27c5.2-12.21,6.88-15.81,6.88-15.81L248,72.05s-11.07,11.07-14.43,16.84-9.14,14.44-9.63,16.36c-.11.47-1.62,3.44-3.83,7.64L215.22,94s-.41-2.88-.91-6.73l6.23-15.86,7.31-6.64,7.62-20.5a38.44,38.44,0,0,1-4.3,7.21,29.47,29.47,0,0,0-3.62,6.29c-.35.78-.65,1.51-.91,2.18-.36-.1-.78-.21-1.25-.32.13-.3,2.29-5.56,1.66-8.41a7.88,7.88,0,0,0-2.48-4.35s-2.55,5.81-1.22,9.76a8.39,8.39,0,0,0,1.36,2.86,12.45,12.45,0,0,0-6.71.18c-3.87,1.56-2.91,2.21-2.91,2.21s5.63,2,8.53,1.17a8.81,8.81,0,0,0,2.26-1l0,.07c-.66,2-8,6-8,6l-4.61,10.76c-.57-5-1-9.66-.7-10.76.66-2.66.66-19.27.66-21.93s-.66-19.26-.66-19.26l-1.33,24.58s-2,23.92-1.33,26.57c.17.69.52,2.86.94,5.71L195.52,73.25s-11.78-9.51-12.24-10.87c-.21-.65-3-4.86-5.82-9.1a7.29,7.29,0,0,0,1.5-2.13,22.77,22.77,0,0,0-3-.1c-2.61-3.88-4.92-7.25-4.92-7.25l3.66,7.32a11.35,11.35,0,0,0-5.45,1.67,8.49,8.49,0,0,0-2.35,2.13,12.43,12.43,0,0,0-2.11-6.38c-2.6-3.25-3-2.15-3-2.15s-.27,5.75,1.26,8.36c-1.7-1-3.29-2-3.84-2.34a17.47,17.47,0,0,1-1.52-1.31c-3.18-2.94-9.81-9.57-9.81-9.57l10,14,11.33,6.34,13.59,5.89-13.59.91H139.78L167.88,71H185.1L196,78.69,211.8,90.46c1,7.48,2.1,15.53,2.1,15.53l1.24,16.21c-6.87,12.85-15.27,28.28-15.27,28.28s-7.7,8.18-9.62,9.62-12.51,8.66-12.51,8.66l-10.59-3.85-11.54-20.69-15.88-28.87-2.88-6.14c1.08-.31,5.77-1.75,7.47-3.79a7.91,7.91,0,0,0,1.92-4.62s-6.16,1.54-8.47,5a10.66,10.66,0,0,0-1.34,2.51L132.51,100,106.05,75.9l4.81-13s1.58-9.22,2.41-15c1.45-.43,5.6-1.81,7.18-3.7a7.88,7.88,0,0,0,1.93-4.62s-6.16,1.54-8.47,5l-.27.41c.07-.6.11-1.07.11-1.34,0-2.41,1.92-21.17,1.92-21.17l-3.12,12c-.48-.76-3.51-5.43-7.16-6.55-4-1.22-3.65-.11-3.65-.11s3.14,5.09,5.9,6.27a8.14,8.14,0,0,0,4.87.54l-.92,3.54s-1.21,16-1.69,18c-.08.31-.29,1-.58,1.83l-3.71-5.84L97.06,37.52l3.23,10.67.8,1.6c-.84-.38-6-2.54-9.59-1.42-4,1.22-3.08,2-3.08,2s5.44,2.46,8.39,1.89a8.09,8.09,0,0,0,4.35-2.29L107.6,62.8l.08-.1c-1.63,4.59-3.55,9.84-3.55,9.84L93.06,61,48.32,28.75,85.76,60l-14.7,1.52-15.94-4L51.19,55c.53-1.39,2-5.55,1.48-8a8,8,0,0,0-2.47-4.35S47.64,48.48,49,52.42c.21.63.4,1.12.58,1.53l-1.74-1.11-10.63-4L61.7,63.7h0a7.89,7.89,0,0,0-3.2,3.85s6.33.35,9.56-2.28c.25-.2.47-.39.67-.57l8.32.76H91.23l34.07,41.23L99,102.14l-8.07-10.9-18.12-10L88.62,92.15l5.86,9.21L75.26,98l-8.85-2.26-11.78-5-8.8-4.61c.64-1.85,1.49-4.9,1.07-6.83A7.88,7.88,0,0,0,44.42,75s-2.55,5.81-1.22,9.76c0,0,0,0,0,0l-17-8.91L44,87.51a11.74,11.74,0,0,0-6.14.3C34,89.36,34.94,90,34.94,90s5.63,2,8.52,1.17a8.3,8.3,0,0,0,3.35-1.82l1.51,1,13.82,6L51,103.93l-28.09.91h0s23.56,1.81,26.73,1.81,17.43-8.13,17.43-8.13,18.28,5.29,20.69,5.77,29.35,4.81,31.75,6.25,11.55,4.33,11.55,4.33l5.77,17.81,11.07,24L146.46,175s-63,84.2-70.72,104.41S61.79,392,61.79,392,56,436.74,55.05,439.15s-9.14,7.21-9.14,7.21,16.36-1.44,21.17-2.4,20.69.48,26,1,23.09,1.44,23.09,1.44l-1-4.81s7.7,1,11.07,1.44,14.91,1.45,14.91,1.45-13.95-9.63-16.84-11.07-11.06-16.36-14-36.56-2.89-43.78-2.89-58.22-1.25-55.22,8.18-73.13c5.43-10.29,16.86-28,26-41.64a9.56,9.56,0,0,0,4.49-.91c2-1.33,7.31-2.66,9.3-4s8-6,8-6l11.29-2,18.6-2,17.94-4,13.95-5.31,14.61-6,8.64-6s6.64-2,10-2.66,29.23-8.63,29.23-8.63l-19.27,4-17.94,3.32,6.65-10ZM168.33,57.84l-1.3-.76c0-.41,0-.91-.06-1.47.33,0,6,.59,8.54-.84a8.6,8.6,0,0,0,.78-.49l3.82,7.64Z" style="fill:#b2b2b2"></path><path d="M185.42,154.5c-3.87,1.55-2.91,2.2-2.91,2.2s5.63,2,8.53,1.17a7.87,7.87,0,0,0,4.19-2.73,22.87,22.87,0,0,0-2.42-.69c.13-.3,2.29-5.56,1.66-8.41a7.88,7.88,0,0,0-2.48-4.35s-2.55,5.81-1.22,9.76a8.39,8.39,0,0,0,1.36,2.86A12.45,12.45,0,0,0,185.42,154.5Z" style="fill:#b2b2b2"></path></g><g id="freepik--character-2--inject-2"><polygon points="234.48 185.48 240.36 129.76 271.16 176.8 234.48 185.48" style="fill:#263238;stroke:#263238;stroke-linecap:round;stroke-linejoin:round"></polygon><path d="M260.33,160.25c-11.88-1.22-19.27,1.82-23.75,5.33l-2.1,19.9,36.68-8.68Z" style="fill:#FFE000;stroke:#263238;stroke-linecap:round;stroke-linejoin:round"></path><ellipse cx="254.43" cy="187.22" rx="40.52" ry="12.6" transform="translate(-49.21 100.12) rotate(-20.34)" style="fill:#263238;stroke:#263238;stroke-linecap:round;stroke-linejoin:round"></ellipse><path d="M242.32,203.4s-2.8-1.12-8.12,3.64-1.12,12,5.32,14.28,9.52-3.08,9.8-7.28a17.37,17.37,0,0,0-2.8-10.36C244.84,200.88,242.32,203.4,242.32,203.4Z" style="fill:#757575;stroke:#263238;stroke-linecap:round;stroke-linejoin:round"></path><path d="M224.14,291.65s-3.84,6.2-13.47,23.59S193.41,372.36,190,391.3s-5.58,58.35-5.58,58.35-1.56,8.07-.94,9.94,10.87,7.14,18,7.45,26.69,4.65,52.15,2.17S280,471.69,294,465.49s16.15-15.22,16.15-15.22-4.57-63-5.65-79.15c-1.87-27.82-16.3-58.87-18.48-63.84s-6.66-13.56-6.66-13.56-5.84-4.24-15.47-4.24-34.14-1.55-35.07-1.55S224.14,291.65,224.14,291.65Z" style="fill:#263238;stroke:#263238;stroke-linecap:round;stroke-linejoin:round"></path><path d="M224.05,304.21s11,31.07,60.63,31.07" style="fill:none;stroke:#8c8c8c;stroke-linecap:round;stroke-linejoin:round"></path><path d="M222.45,338.93c10.73,5.06,32.71,13.14,57.22,8.87" style="fill:none;stroke:#8c8c8c;stroke-linecap:round;stroke-linejoin:round"></path><path d="M215.53,335.28s1,.61,2.8,1.59" style="fill:none;stroke:#8c8c8c;stroke-linecap:round;stroke-linejoin:round"></path><path d="M288.23,357.9c-14.12,9.69-43.5,28.94-59.14,32.48-36.19,8.18-37.1,1-37.1,1" style="fill:none;stroke:#8c8c8c;stroke-linecap:round;stroke-linejoin:round"></path><path d="M296.2,352.31s-1.35,1-3.68,2.61" style="fill:none;stroke:#8c8c8c;stroke-linecap:round;stroke-linejoin:round"></path><path d="M295.08,377.76c1.41-2,2.78-4.18,4.13-6.41" style="fill:none;stroke:#8c8c8c;stroke-linecap:round;stroke-linejoin:round"></path><path d="M189,415.94s60.54,20.62,102-32.56" style="fill:none;stroke:#8c8c8c;stroke-linecap:round;stroke-linejoin:round"></path><path d="M227.08,451.63c20.5-.22,48-7.79,69.12-40.19" style="fill:none;stroke:#8c8c8c;stroke-linecap:round;stroke-linejoin:round"></path><path d="M198,447a79.79,79.79,0,0,0,20.82,4.32" style="fill:none;stroke:#8c8c8c;stroke-linecap:round;stroke-linejoin:round"></path><path d="M252.61,306.72s17,15,33.07,13.53" style="fill:none;stroke:#8c8c8c;stroke-linecap:round;stroke-linejoin:round"></path><path d="M247.78,206.21s.33,14.7.33,15.7a5.76,5.76,0,0,1-1.67,3.34c-.83.84-9,2.84-17,3.34s-10.19,1.67-13.2,6.18.51,16.7.51,16.7-5.68,22.38-6,24.22,6.18,3.34,9.36,1.5,8-21.38,8-21.38l2.51,15.87a41.42,41.42,0,0,1-.84,6.34c-.5,1.34-4.34,9.86-4.34,9.86l-2.67,4.84s9.52,7.18,26.38,7.18,23.05-2.17,25.06-3.17,5.17-3,5.17-3-3.84-7.85-3.84-8.51-2.34-12-2.34-12l3.51-18.54s3.84,21.88,4.84,23.89,6.68,4,9.52,1.5,2.51-7.85.34-15.2-5.51-17.7-5.51-17.7,3.67-5.35-.84-14-16.37-7-19.37-7h-3l-.33-10.69Z" style="fill:#263238;stroke:#263238;stroke-linecap:round;stroke-linejoin:round"></path><path d="M265.65,226.09h-3l-.33-10.69L258,212.65c-2,.14-6,.47-10,.84.09,3.86.17,7.91.17,8.42a5.76,5.76,0,0,1-1.67,3.34c-.67.67-6.08,2.1-12.34,2.89l0,1.1s3,14.95,17.52,18.37,19.64-15.38,20.07-20.5a4.71,4.71,0,0,0-.06-1.11C269,225.87,266.73,226.09,265.65,226.09Z" style="fill:#FFE000;stroke:#263238;stroke-linecap:round;stroke-linejoin:round"></path><path d="M262.48,220.81l-.17-5.41-14.53-9.19s.2,8.65.29,13.13A23.61,23.61,0,0,0,262.48,220.81Z" style="fill:#fff;stroke:#263238;stroke-linecap:round;stroke-linejoin:round"></path><path d="M254.85,180.64s-11.6,1.93-15.74,7.18-1.66,11.87-.28,14.08,5.8,3.58,5.8,3.58a71.81,71.81,0,0,0,9.11,9.67c4.2,3.5,9.94,5.52,11.87,3.59s4.42-6.35,6.07-14.08.56-18.78.28-21S263.68,179,254.85,180.64Z" style="fill:#fff;stroke:#263238;stroke-linecap:round;stroke-linejoin:round"></path><path d="M259.49,180.13a30.33,30.33,0,0,0-4.64.51s-11.6,1.93-15.74,7.18-1.66,11.87-.28,14.08,5.8,3.58,5.8,3.58l1.46,1.61.2-.23L245.18,203a5.54,5.54,0,0,1-2.21-.55c-1.1-.55-4.14-3.31-2.76-6.63s3.87-2.48,4.7-.83,1.65.83,1.93-.55a16.87,16.87,0,0,0-.28-4.41s.83-.56,5.8-3.59A29.53,29.53,0,0,0,259.49,180.13Z" style="fill:#757575;stroke:#263238;stroke-linecap:round;stroke-linejoin:round"></path><path d="M267.82,189.2s-2.21,7.17-1.1,9.94,3.58,2.76,1.93,3.86-5.25,0-5.25,0" style="fill:none;stroke:#263238;stroke-linecap:round;stroke-linejoin:round"></path><path d="M267.08,206.9s-3.75,1-5.33-.31" style="fill:none;stroke:#263238;stroke-linecap:round;stroke-linejoin:round"></path><path d="M260.26,193.78c0,1-.38,1.87-.85,1.87s-.86-.84-.86-1.87.39-1.88.86-1.88S260.26,192.74,260.26,193.78Z" style="fill:#263238"></path><path d="M269.81,193.78c0,1-.39,1.87-.86,1.87s-.85-.84-.85-1.87.38-1.88.85-1.88S269.81,192.74,269.81,193.78Z" style="fill:#263238"></path><path d="M255.66,189.52a6.56,6.56,0,0,1,5.45-1" style="fill:none;stroke:#263238;stroke-linecap:round;stroke-linejoin:round;stroke-width:2px"></path><path d="M268.27,189.86s1.54-1.54,3.41.85" style="fill:none;stroke:#263238;stroke-linecap:round;stroke-linejoin:round;stroke-width:2px"></path><path d="M240.6,271.85s-21.38-.84-22-1.34-4.84-1.84-7.68,2.34-1,10.18,4,11.19,26.55-6.52,26.55-6.52Z" style="fill:#263238;stroke:#263238;stroke-linecap:round;stroke-linejoin:round"></path><rect x="251.21" y="252.75" width="10.5" height="25.83" style="fill:#FFE000;stroke:#263238;stroke-linecap:round;stroke-linejoin:round"></rect><path d="M256.13,252.75a5.46,5.46,0,0,1-1.68-4.2c.21-2.52,2.52-5.25,2.52-5.25a10.65,10.65,0,0,1,2.31,5.25,3.88,3.88,0,0,1-2.31,4.2Z" style="fill:#fff;stroke:#263238;stroke-linecap:round;stroke-linejoin:round"></path><path d="M240.6,271.85s7-10.19,7.51-10.36,10.15-2.17,11-1.67a1.15,1.15,0,0,1,.54,1.34s2.05,0,1.72,1.22-.89.95-.89.95,1.17.5,1,1.33-3.84,1.34-3.84,1.34,4.68.67,4,1.34S257,268,257,268l-4.17,1.34s-2.67,6.51-4.51,7.68-6.85.5-6.85.5Z" style="fill:#fff;stroke:#263238;stroke-linecap:round;stroke-linejoin:round"></path><line x1="259.64" y1="261.16" x2="250.95" y2="262.99" style="fill:none;stroke:#263238;stroke-linecap:round;stroke-linejoin:round"></line><line x1="260.98" y1="263.51" x2="252.62" y2="264.16" style="fill:none;stroke:#263238;stroke-linecap:round;stroke-linejoin:round"></line><line x1="257.63" y1="266" x2="253.61" y2="265.99" style="fill:none;stroke:#263238;stroke-linecap:round;stroke-linejoin:round"></line><path d="M272.84,279.21s-7-10.19-7.51-10.35-10.15-2.17-11-1.67a1.13,1.13,0,0,0-.54,1.33s-2.05.06-1.72,1.23.89.94.89.94-1.17.51-1,1.34,3.84,1.34,3.84,1.34-4.68.66-4,1.33,4.68.67,4.68.67l4.17,1.34s2.67,6.51,4.51,7.68,6.85.5,6.85.5Z" style="fill:#fff;stroke:#263238;stroke-linecap:round;stroke-linejoin:round"></path><line x1="253.8" y1="268.52" x2="262.49" y2="270.36" style="fill:none;stroke:#263238;stroke-linecap:round;stroke-linejoin:round"></line><line x1="252.46" y1="270.87" x2="260.82" y2="271.53" style="fill:none;stroke:#263238;stroke-linecap:round;stroke-linejoin:round"></line><line x1="255.81" y1="273.37" x2="259.83" y2="273.36" style="fill:none;stroke:#263238;stroke-linecap:round;stroke-linejoin:round"></line><path d="M272.84,279.21a21.93,21.93,0,0,0,6.09-1.68,41.54,41.54,0,0,1,7.56-3.36,9.86,9.86,0,0,1,4.83.21s2.31,0,2.1,5.25-2.94,6.3-7.14,7.35-9.24-.84-9.24-.84l-5-1.25Z" style="fill:#263238;stroke:#263238;stroke-linecap:round;stroke-linejoin:round"></path><polygon points="253.94 226.15 253.11 227.51 252.39 228.69 248.04 235.78 250.84 237.33 253.63 229.88 252.7 240.74 256.11 240.43 255.8 230.5 258.6 235.78 260.77 232.98 253.94 226.15" style="fill:#fff;stroke:#263238;stroke-linecap:round;stroke-linejoin:round"></polygon></g><g id="freepik--character-3--inject-2"><path d="M337.83,313.69a268.4,268.4,0,0,0-17.07,41.6c-7.14,23-11.8,81.95-12.11,89.4s-2.48,16.45-1.86,18.93,1.55,2.49,6.52,4a39.56,39.56,0,0,0,11.49,1.24s7.76,5.59,23.59,5.59S368.56,472,368.56,472s18,5.59,34.77,4.66S428.79,467,428.79,467s1.24-53.39-12.11-97.47-22.35-55.88-22.35-55.88S357.39,323.62,337.83,313.69Z" style="fill:#263238;stroke:#263238;stroke-linecap:round;stroke-linejoin:round"></path><path d="M351.1,354.34c-8.26,4.51-16.87,8.4-25,10.62" style="fill:none;stroke:#8c8c8c;stroke-linecap:round;stroke-linejoin:round"></path><path d="M395.5,324.08c-1.13.38-18.34,15.05-38.88,27.13" style="fill:none;stroke:#8c8c8c;stroke-linecap:round;stroke-linejoin:round"></path><path d="M325.72,395.8c-1.72.21-3.47.39-5.26.53" style="fill:none;stroke:#8c8c8c;stroke-linecap:round;stroke-linejoin:round"></path><path d="M403.34,340.88S387.18,385,332.39,394.8" style="fill:none;stroke:#8c8c8c;stroke-linecap:round;stroke-linejoin:round"></path><path d="M319.14,442.86c-2.12.39-4.3.75-6.52,1.07" style="fill:none;stroke:#8c8c8c;stroke-linecap:round;stroke-linejoin:round"></path><path d="M406.77,383c-10,17.8-32.77,46.78-79.32,58" style="fill:none;stroke:#8c8c8c;stroke-linecap:round;stroke-linejoin:round"></path><path d="M413.42,368.32a58.61,58.61,0,0,1-2.41,6.24" style="fill:none;stroke:#8c8c8c;stroke-linecap:round;stroke-linejoin:round"></path><path d="M333.9,455.69s45.36,10.64,89.05-14.56" style="fill:none;stroke:#8c8c8c;stroke-linecap:round;stroke-linejoin:round"></path><path d="M425.19,413.69s-15.69,23-63.85,17.92" style="fill:none;stroke:#8c8c8c;stroke-linecap:round;stroke-linejoin:round"></path><path d="M331.66,337s11.76-.56,29.12-15.12" style="fill:none;stroke:#8c8c8c;stroke-linecap:round;stroke-linejoin:round"></path><path d="M345.55,273.35s-4.57-1.79-6-1.79-10.72,1.79-10.72,2.38,8.74,7.55,10.92,8.34,9.14,1,9.14,1l-1-8.54Z" style="fill:#fff;stroke:#263238;stroke-linecap:round;stroke-linejoin:round"></path><path d="M343,272.36s-6.75-1-5.76,1,5.76,1.39,5.76,1.39,1,4,4.57,4.76" style="fill:#fff;stroke:#263238;stroke-linecap:round;stroke-linejoin:round"></path><path d="M364.84,220.87s-.62,18.63-.93,19.87-17.7,12.11-19.56,20.18,3.42,14,3.73,17.69-1.87,14.9-5.59,22.66-5.9,13.35-5.9,13.35,9.68,4.36,26.14,5,31.6-5.91,31.6-5.91a123.77,123.77,0,0,1-7.45-15.52c-2.48-6.83-2.79-10.24-2.79-10.24s8.69-13.35,9.62-25.77-7.45-25.14-9.62-27.63-5-12.41-4.66-16.76.31-9.31.31-9.31-1.55-2.49-5.28,0S364.84,220.87,364.84,220.87Z" style="fill:#263238;stroke:#263238;stroke-linecap:round;stroke-linejoin:round"></path><path d="M386.9,238.58a33,33,0,0,0-2.81-4.05c-2.18-2.48-5-12.41-4.66-16.76.14-1.9.21-3.93.25-5.6-3.64,1.22-7.85,2.7-11.91,4.14-1.7,2.49-2.93,4.56-2.93,4.56s-.62,18.63-.93,19.87c-.22.86-8.57,6.31-14.34,12.25,7.51,3.4,18-1.18,22.46-5C375.84,244.82,382.86,240.79,386.9,238.58Z" style="fill:#FFE000;stroke:#263238;stroke-linecap:round;stroke-linejoin:round"></path><path d="M379.43,217.77c.31-4.35.31-9.31.31-9.31s-1.55-2.49-5.28,0-9.62,12.41-9.62,12.41-.18,5.43-.4,10.63l16.11-5.69A28.94,28.94,0,0,1,379.43,217.77Z" style="fill:#fff;stroke:#263238;stroke-linecap:round;stroke-linejoin:round"></path><path d="M356.46,187s-4.66,5.9-4.35,8.38.31,3.1-1.24,5-4.35,1.55-4.35,3.72,1.25,3.73,2.18,3.73h.93s1.86,6.83,2.17,8.69-2.17,4-.62,5.59,8.38,3.1,13.66.93,11.49-10.56,11.49-10.56l1.24-4s3.41-3.11,2.48-7.45-3.72-4-5-1.55a36.87,36.87,0,0,0-1.86,4.34s-2.17.62-3.41-2.17-1.87-4-1.87-4-4-3.1-4-5v-3.11Z" style="fill:#fff;stroke:#263238;stroke-linecap:round;stroke-linejoin:round"></path><path d="M358,199.77c0,1.2-.49,2.17-1.09,2.17s-1.08-1-1.08-2.17.48-2.18,1.08-2.18S358,198.57,358,199.77Z" style="fill:#263238"></path><path d="M352.73,210.32s5.59.31,7.76-2.17" style="fill:none;stroke:#263238;stroke-linecap:round;stroke-linejoin:round"></path><path d="M355.53,195.42s2.17-2.48,4,1.55" style="fill:none;stroke:#263238;stroke-linecap:round;stroke-linejoin:round"></path><path d="M375.28,213.67a16.44,16.44,0,0,0,8.81,2.55c4.65,0,9.62-3.42,9.62-11.49s-10.56-14.59-21.42-18-15.83.31-15.83.31-.62,1.86,1.86,3.41c3.44,2.15,3.9,5,5.45,8.47C366.24,204.54,370,210.42,375.28,213.67Z" style="fill:#263238;stroke:#263238;stroke-linecap:round;stroke-linejoin:round"></path><polygon points="357.08 183.63 397.74 134.58 393.09 197.9 357.08 183.63" style="fill:#263238;stroke:#263238;stroke-linecap:round;stroke-linejoin:round"></polygon><path d="M367.64,170.89l-10.56,12.73,36,14.28,1.11-15.17C382.13,174.51,372.93,171.77,367.64,170.89Z" style="fill:#FFE000;stroke:#263238;stroke-linecap:round;stroke-linejoin:round"></path><path d="M333.49,181.76s54,15.83,77.6,33.22c0,0-7.76-10.56-22.35-21.11S357.39,180.21,333.49,181.76Z" style="fill:#263238;stroke:#263238;stroke-linecap:round;stroke-linejoin:round"></path><path d="M389.67,209.39s-9.62,3.41-8.07,13.66,14.28,12.41,19.87,3.1S400.23,207.53,389.67,209.39Z" style="fill:#263238;stroke:#263238;stroke-linecap:round;stroke-linejoin:round"></path><path d="M381.91,235.46c1.24,0,8.38,0,12.73,3.42S403,252.54,399,262.47s-9.63,13.35-9.63,13.35S378.19,309,376.64,310.59s-5-2.18-11.18-6.83-24.83-23-24.83-23l2.17-4.66,27.94,17.69,4.65-17.38s-11.79-14.28-11.17-23.9S376,236.4,376,236.4" style="fill:#263238;stroke:#263238;stroke-linecap:round;stroke-linejoin:round"></path><rect x="327.97" y="255.23" width="10.5" height="25.83" style="fill:#FFE000;stroke:#263238;stroke-linecap:round;stroke-linejoin:round"></rect><path d="M332.89,255.23a5.46,5.46,0,0,1-1.68-4.2c.21-2.52,2.52-5.25,2.52-5.25A10.65,10.65,0,0,1,336,251a3.88,3.88,0,0,1-2.31,4.2Z" style="fill:#fff;stroke:#263238;stroke-linecap:round;stroke-linejoin:round"></path><path d="M342.8,276.13s-5.28-8.38-6.21-10.24-2.79-1.87-4.34-2.49-3.73-3.1-5.28-2.48,1.24,3.41,1.24,3.41-3.72-1.86-4,0a4.77,4.77,0,0,0,.94,3.42s.62,4.34.93,7.45,2.17,2.79,5.58,5,9,.62,9,.62Z" style="fill:#fff;stroke:#263238;stroke-linecap:round;stroke-linejoin:round"></path><path d="M366.56,238.21a9.57,9.57,0,0,0-5.36,1.07c-3,1.47-11.14,10.46-11.14,10.46s-1.16,1,2.08,2.32a17.55,17.55,0,0,0,5.19,1.37s0,1.48,2.12,2.08,2.84.73,2.84.73S364.55,241.33,366.56,238.21Z" style="fill:#fff;stroke:#263238;stroke-linecap:round;stroke-linejoin:round"></path><path d="M366.56,238.21S360,242.28,358.82,249" style="fill:none;stroke:#263238;stroke-linecap:round;stroke-linejoin:round"></path></g><g id="freepik--character-1--inject-2"><path d="M157.42,313.69a268.4,268.4,0,0,1,17.07,41.6c7.14,23,11.8,81.95,12.11,89.4s2.48,16.45,1.86,18.93-1.55,2.49-6.52,4a39.56,39.56,0,0,1-11.49,1.24s-7.76,5.59-23.59,5.59S126.68,472,126.68,472s-18,5.59-34.76,4.66S66.46,467,66.46,467s-1.24-53.39,12.11-97.47,22.35-55.88,22.35-55.88S137.86,323.62,157.42,313.69Z" style="fill:#263238;stroke:#263238;stroke-linecap:round;stroke-linejoin:round"></path><path d="M156.45,346.42q3.42,0,7-.37" style="fill:none;stroke:#8c8c8c;stroke-linecap:round;stroke-linejoin:round"></path><path d="M101.16,327.49A93.12,93.12,0,0,0,147.56,346" style="fill:none;stroke:#8c8c8c;stroke-linecap:round;stroke-linejoin:round"></path><path d="M117.16,372.06c15.82,3.45,35.45,3.73,55.15-6.29" style="fill:none;stroke:#8c8c8c;stroke-linecap:round;stroke-linejoin:round"></path><path d="M83,358a101.84,101.84,0,0,0,23.16,11" style="fill:none;stroke:#8c8c8c;stroke-linecap:round;stroke-linejoin:round"></path><path d="M97.58,400.79a104.6,104.6,0,0,0,73.18-14.92" style="fill:none;stroke:#8c8c8c;stroke-linecap:round;stroke-linejoin:round"></path><path d="M80.28,396.31A65,65,0,0,0,88,398.76" style="fill:none;stroke:#8c8c8c;stroke-linecap:round;stroke-linejoin:round"></path><path d="M93.07,453c-3.44,1.26-6.93,2.37-10.47,3.3" style="fill:none;stroke:#8c8c8c;stroke-linecap:round;stroke-linejoin:round"></path><path d="M159.45,408.58C147,420.64,126.23,438.29,102,449.29" style="fill:none;stroke:#8c8c8c;stroke-linecap:round;stroke-linejoin:round"></path><path d="M171.92,395.54s-2.24,2.64-6.29,6.86" style="fill:none;stroke:#8c8c8c;stroke-linecap:round;stroke-linejoin:round"></path><path d="M163.68,444.14c-7.68,7.67-18.69,15.61-34.29,21.39" style="fill:none;stroke:#8c8c8c;stroke-linecap:round;stroke-linejoin:round"></path><path d="M180,419.13s-2.32,8.06-10.15,18" style="fill:none;stroke:#8c8c8c;stroke-linecap:round;stroke-linejoin:round"></path><path d="M103.93,201s.35,1.4-5.62,6.32-11.59,4.56-16.86,13.7,4.92,11.94,5.62,15.8S82.5,238.61,82.5,246s8.08,7.72,8.78,11.24-1,8.08,7.38,9.48,15.1-2.46,20-10.54S125,234,123.6,226.67s.35-14.76,3.51-18.27,7.73-14.75,6.67-18.26-18.26-.71-22.48,2.46A34.05,34.05,0,0,0,103.93,201Z" style="fill:#FFE000;stroke:#263238;stroke-linecap:round;stroke-linejoin:round"></path><path d="M149.11,278.06s4.57-1.79,6-1.79,10.72,1.79,10.72,2.38-8.74,7.55-10.92,8.34-9.14,1-9.14,1l1-8.54Z" style="fill:#fff;stroke:#263238;stroke-linecap:round;stroke-linejoin:round"></path><path d="M151.69,277.06s6.75-1,5.76,1-5.76,1.39-5.76,1.39-1,4-4.57,4.76" style="fill:#fff;stroke:#263238;stroke-linecap:round;stroke-linejoin:round"></path><path d="M130.41,220.87s.62,18.63.93,19.87S149,252.85,150.9,260.92s-3.42,14-3.73,17.69,1.86,14.9,5.59,22.66,5.9,13.35,5.9,13.35-9.68,4.36-26.14,5-31.6-5.91-31.6-5.91a123.77,123.77,0,0,0,7.45-15.52c2.48-6.83,2.79-10.24,2.79-10.24s-8.69-13.35-9.62-25.77S109,237,111.16,234.53s5-12.41,4.66-16.76-.31-9.31-.31-9.31,1.55-2.49,5.28,0S130.41,220.87,130.41,220.87Z" style="fill:#263238;stroke:#263238;stroke-linecap:round;stroke-linejoin:round"></path><path d="M146,253.31c-5.77-6.07-14.41-11.7-14.63-12.57-.31-1.24-.93-19.87-.93-19.87l0-.09c-4.78-1.24-9.93-2.67-14.6-4l.06,1c.31,4.35-2.48,14.28-4.66,16.76a39.35,39.35,0,0,0-3.81,5.76c3.89,4.59,12.54,13.21,24.59,16.12C138.24,257.92,142.77,256.13,146,253.31Z" style="fill:#FFE000;stroke:#263238;stroke-linecap:round;stroke-linejoin:round"></path><path d="M130.72,237.92a9.53,9.53,0,0,1,5.11,2c2.68,1.94,9.24,12.16,9.24,12.16s1,1.21-2.43,1.94a17.84,17.84,0,0,1-5.35.49s-.24,1.46-2.43,1.7-2.92.25-2.92.25S132.18,241.32,130.72,237.92Z" style="fill:#fff;stroke:#263238;stroke-linecap:round;stroke-linejoin:round"></path><path d="M130.72,237.92s5.84,5.11,5.84,11.92" style="fill:none;stroke:#263238;stroke-linecap:round;stroke-linejoin:round"></path><path d="M115.82,217.77c-.31-4.35-.31-9.31-.31-9.31s1.55-2.49,5.28,0,9.62,12.41,9.62,12.41.18,5.43.4,10.63l-16.11-5.69A28.94,28.94,0,0,0,115.82,217.77Z" style="fill:#fff;stroke:#263238;stroke-linecap:round;stroke-linejoin:round"></path><path d="M139.42,188.23s3.09,4.4,3.75,6.51-.66,4.89-.33,6.35,3.26,3.42,4.72,6.19,1.14,4.07-.81,4.72-2.77.16-2.93,1.3-3.91,10.1-4.24,11.56-3.25,2.12-6,2.12-4.64-.49-8.54-3.42-5.32-9-5.32-9-7.31-1.3-7.31-5.69,3.1-4.89,5.21-3.75,3.91,2.28,3.91,2.28,6.68-5.05,8.47-8.79a9.87,9.87,0,0,0,.65-7Z" style="fill:#fff;stroke:#263238;stroke-linecap:round;stroke-linejoin:round"></path><polygon points="138.17 183.63 97.5 134.58 102.16 197.9 138.17 183.63" style="fill:#263238;stroke:#263238;stroke-linecap:round;stroke-linejoin:round"></polygon><path d="M126.78,169.89c-13,4.3-21.29,10.06-25.66,13.78l1,14.23,36-14.28Z" style="fill:#FFE000;stroke:#263238;stroke-linecap:round;stroke-linejoin:round"></path><path d="M161.76,181.76s-54,15.83-77.6,33.22c0,0,7.76-10.56,22.35-21.11S137.86,180.21,161.76,181.76Z" style="fill:#263238;stroke:#263238;stroke-linecap:round;stroke-linejoin:round"></path><path d="M116.54,236a11.84,11.84,0,0,1,5.41,2.31c3.35,2.6,8.66,7.71,9.08,14.26.62,9.62-11.17,23.9-11.17,23.9l4.65,17.38,27.94-17.69,2.17,4.66s-18.62,18.31-24.83,23-9.62,8.38-11.18,6.83-12.72-34.77-12.72-34.77-5.59-3.42-9.63-13.35,0-20.18,4.35-23.59,11.49-3.42,12.73-3.42Z" style="fill:#263238;stroke:#263238;stroke-linecap:round;stroke-linejoin:round"></path><rect x="156.78" y="255.23" width="10.5" height="25.83" transform="translate(324.07 536.3) rotate(180)" style="fill:#FFE000;stroke:#263238;stroke-linecap:round;stroke-linejoin:round"></rect><path d="M162.36,255.23A5.46,5.46,0,0,0,164,251c-.21-2.52-2.52-5.25-2.52-5.25a10.65,10.65,0,0,0-2.31,5.25,3.88,3.88,0,0,0,2.31,4.2Z" style="fill:#fff;stroke:#263238;stroke-linecap:round;stroke-linejoin:round"></path><path d="M152.45,276.13s5.28-8.38,6.21-10.24,2.79-1.87,4.34-2.49,3.73-3.1,5.28-2.48-1.24,3.41-1.24,3.41,3.72-1.86,4,0a4.74,4.74,0,0,1-.93,3.42s-.62,4.34-.93,7.45-2.17,2.79-5.59,5-9,.62-9,.62Z" style="fill:#fff;stroke:#263238;stroke-linecap:round;stroke-linejoin:round"></path><path d="M140.23,201.82c0,1.31-.43,2.37-1,2.37s-1-1.06-1-2.37.44-2.36,1-2.36S140.23,200.52,140.23,201.82Z" style="fill:#263238"></path><path d="M140.89,215.26a4.92,4.92,0,0,1-4.07-2.44" style="fill:#fff;stroke:#263238;stroke-linecap:round;stroke-linejoin:round"></path><path d="M140.89,196.53s-2.28-2.44-4.56.82" style="fill:#fff;stroke:#263238;stroke-linecap:round;stroke-linejoin:round;stroke-width:2px"></path></g></svg>