<svg xmlns="http://www.w3.org/2000/svg" viewBox="0 0 500 500"><g id="freepik--Background--inject-5"><g id="freepik--background--inject-5"><path id="freepik--background--inject-5" d="M63.86,404.9C-1.7,342.17,18,224.65,71.61,149.57,157.54,29.31,289.1-1.57,389.72,68.94c87.88,61.59,114.66,215.52,69,301.42-30.24,56.94-111.7,95-189,99.11C168.88,474.82,104.73,444,63.86,404.9Z" style="fill:#263238"></path></g></g><g id="freepik--Moon--inject-5"><g id="freepik--moon--inject-5"><circle cx="59.33" cy="50.57" r="20.91" style="fill:#3B3B3B"></circle><circle cx="59.33" cy="50.57" r="20.91" style="fill:#fff;opacity:0.65"></circle><path d="M51.63,60.59a1.2,1.2,0,0,0,.88,1.16c.55.08,1.22-.37,1.61,0s.1.82.19,1.25a1,1,0,0,0,1.71.24c.16-.29.14-.65.31-.94a.86.86,0,0,1,1.56.73c-.16.44-.63.67-1,1a1.7,1.7,0,0,0-.62,1.44,1.09,1.09,0,0,0,1.12.94,3.71,3.71,0,0,0,.9-.37,1.65,1.65,0,0,1,1.87.5c.16.2.27.44.43.64a1.56,1.56,0,0,0,2.09.12,1.9,1.9,0,0,0,.46-2.12c-.13-.31-.33-.59-.44-.9a1.63,1.63,0,0,1,.43-1.8,1.27,1.27,0,0,1,1.75.18c.34.46.27,1.1.43,1.66s.86,1.06,1.27.65.13-1,.51-1.29.83.07,1,.46a4.91,4.91,0,0,1,.1,1.22c0,.41.24.88.65.94s.84-.42,1-.86.33-1,.78-1.16,1,.1,1.41,0c1.13-.32.59-2.37,1.62-2.93.65-.36,1.47.15,2.19,0a6.37,6.37,0,0,0,1.27-.76,3,3,0,0,1,.74-.23,20.82,20.82,0,0,0,2.4-9.73,21.35,21.35,0,0,0-.18-2.66,6.6,6.6,0,0,0-1.25-2.28A20,20,0,0,1,77,43.75c-.36-.54-.57-1.18-1-1.7a1.5,1.5,0,0,0-1.71-.6,1.19,1.19,0,0,0-.58,1.25,1.93,1.93,0,0,0,.78,1.2c.35.26.79.47,1,.87a1,1,0,0,1-.34,1.14,1.37,1.37,0,0,1-1.21.18c-.71-.22-.25-.85-.09-1.31s.08-.72-.21-.86-.61.08-.9.22a1.7,1.7,0,0,1-.73.17.59.59,0,0,1-.32-.05c-.31-.15-.3-.62-.13-.93a3,3,0,0,0,.49-.93,1.06,1.06,0,0,0-.56-1,2.54,2.54,0,0,0-1.19-.28,1.49,1.49,0,0,1-1.23-.41c-.34-.3-.6-.67-1-.94a2.3,2.3,0,0,0-3.68,1.81,1.35,1.35,0,0,1-.14.85,2.3,2.3,0,0,1-.51.35,1.2,1.2,0,0,0,.21,2c.72.27,1.52-.12,2.25-.1,1.21,0,1.28,1.46.07,1.64-.36,0-1-.07-1.58,0s-.91.24-.88.84.82,1.18.43,1.63a.62.62,0,0,1-.8,0,4.54,4.54,0,0,1-.63-.61,1.35,1.35,0,0,0-1.21-.38.86.86,0,0,0-.65,1c.12.43.64.77.5,1.19s-.64.4-1,.21-.57-.5-.9-.68a1.9,1.9,0,0,0-2.29.7c-.53.67-.64,1.86.14,2.2A3.08,3.08,0,0,0,59,52.32c.52,0,1.19.31,1,.8s-.5.47-.72.73a1,1,0,0,0,.11,1.31,1.87,1.87,0,0,0,1.32.49,2.46,2.46,0,0,0,2.56-2c.06-.65-.2-1.4.21-1.9a1.48,1.48,0,0,1,1.27-.41A2.13,2.13,0,0,1,66,51.7a1.08,1.08,0,0,1,.47,1.08c-.09.4-.46.66-.71,1s-.39.85-.06,1.09.53.11.76.25c.44.26.22,1-.25,1.23a2.4,2.4,0,0,1-1.52,0,1.75,1.75,0,0,0-1.49.16c-.58.48-.37,1.44.11,2,.26.32.61.64.58,1a.85.85,0,0,1-.56.67,1.23,1.23,0,0,1-1.58-.89,5.89,5.89,0,0,1,0-.84,1.59,1.59,0,0,0-1-1.43,1.27,1.27,0,0,0-1.53.72c-.11.34-.06.73-.2,1a1.06,1.06,0,0,1-1.72.14,1.31,1.31,0,0,1,.35-1.81c.46-.31,1.18-.47,1.23-1a.74.74,0,0,0-.18-.51,1.18,1.18,0,0,0-1.93.27,1.84,1.84,0,0,1-.22.58c-.44.55-1.59,0-1.92.62-.16.31,0,.71-.14,1s-.69.35-1.09.41A2,2,0,0,0,51.63,60.59ZM38.84,46.39a3.16,3.16,0,0,0,.78-.23c.45-.18,1.05-.3,1.37.07s.21.57.35.83a1.08,1.08,0,0,0,1.3.42,1.74,1.74,0,0,0,1-1,3.65,3.65,0,0,1,.52-1.23A1.06,1.06,0,0,1,45.38,45a1,1,0,0,1,.47,1.17c-.17.6-.83.91-1.14,1.46A1.27,1.27,0,0,0,45,49.25a1.08,1.08,0,0,0,1.55-.3c.25-.46.18-1.16.66-1.35s1,.64,1.51,1a1.09,1.09,0,0,0,1.42-.2A1.11,1.11,0,0,0,50.07,47c-.21-.21-.51-.34-.63-.61-.24-.54.51-1.07,1.09-.94a6.38,6.38,0,0,1,1.53.88,2.74,2.74,0,0,0,2.74-.09,1.63,1.63,0,0,0,.66-.72c.34-.81-.28-1.84.19-2.58a1,1,0,0,1,1.79.9c-.18.47-.68.74-.93,1.18a1.68,1.68,0,0,0,.77,2.12,3.91,3.91,0,0,0,2.44.29,1.28,1.28,0,0,0,.76-.3c.55-.56-.21-1.48-.11-2.25s1.34-1.35,1.42-2.25c.05-.48-.26-1-.13-1.45.26-.88,1.78-.83,2.05-1.72a1,1,0,0,0-.4-1.06A2.06,2.06,0,0,0,62.17,38c-.53,0-1.22-.06-1.42-.56s.39-1.08.94-1.3a2.93,2.93,0,0,1,1.57-.22,1.42,1.42,0,0,1,1.14,1c0,.18,0,.37.11.54a1.28,1.28,0,0,0,1.38.65,9,9,0,0,1,1.62-.21C69,38,69.92,40,71.44,40.05a.51.51,0,0,0,.43-.13.6.6,0,0,0,.06-.44,4.32,4.32,0,0,0-2.61-3.24,23.26,23.26,0,0,1-2.64-.86,15.54,15.54,0,0,1-1.56-1.22,2.31,2.31,0,0,0-1.84-.56c-.76.19-1.22.93-1.68,1.56s-1.16,1.25-1.92,1.07a1.94,1.94,0,0,0-.69-1c-.36-.22-1-.09-1,.32s.14.55.19.83c.13.62-.44,1.16-1,1.45a3.33,3.33,0,0,0-1.52,1.09,4.56,4.56,0,0,0-.28.81,1.88,1.88,0,0,1-1.29,1.25,1.2,1.2,0,0,1-1.41-.9A1.93,1.93,0,0,1,53,38.85a2.08,2.08,0,0,0,.44-1.19c0-.42-.46-.84-.85-.68s-.42.9-.79,1.23-1,.13-1.48-.07-1.17-.31-1.43.14.09.92.2,1.39a1.47,1.47,0,0,1-.54,1.46,1.45,1.45,0,0,1-1.55.11c-.41-.69.87-1.44.59-2.19-.19-.52-1-.5-1.43-.21a1.55,1.55,0,0,1-.77.35c-.46,0-.74-.56-.64-1a2.33,2.33,0,0,1,.78-1.09c.3-.29.71-.6,1.1-.44s.4.37.6.56a1.15,1.15,0,0,0,1.57,0,7.69,7.69,0,0,1,.58-.7c.57-.43,1.47,0,2.09-.37a.94.94,0,0,0,.25-1.31c-.18-.23-.47-.39-.52-.67-.1-.51.53-.91.5-1.45A1.86,1.86,0,0,0,51,31.42h0a21.06,21.06,0,0,0-9.32,8,1.92,1.92,0,0,0,.57.88,8.39,8.39,0,0,1,.82.62.67.67,0,0,1,.07.92.78.78,0,0,1-.54.17,3.36,3.36,0,0,1-1.85-.52l-.16-.11A20.87,20.87,0,0,0,38.84,46.39Z" style="fill:#3B3B3B;opacity:0.2"></path></g></g><g id="freepik--Clouds--inject-5"><path id="freepik--Cloud--inject-5" d="M188.24,52.06a1.41,1.41,0,0,1-.18-.17c-.43-.48-.66-1.22-1.15-1.61s-1-.25-1.56-.48C183.62,49,183,47,181.12,46.26a5.84,5.84,0,0,0-4.79,0c-1.53.77-2.53,2.57-4.51,2.14-1-.22-1.66-1.18-2.67-1.48a6.2,6.2,0,0,0-2.87-.24c-1,.22-.78.47-1.07,1.2-.88,2.25-1.8.5-3.59.69-1.43.14-1.9,1.41-3.12,2a6.74,6.74,0,0,1-3.62.09,7.51,7.51,0,0,0-3.46.09c-2,.53-3.47,1.23-4.47,3.13-.58,1.1-.89,2.55-2,3.24s-2.37-.18-3.57-.66a6.43,6.43,0,0,0-6.4.91c-1.07,1-1.37,1.45-2.92,1.69a14.15,14.15,0,0,1-5.54-.06,11,11,0,0,0-4-.77c-1.73.19-3.45,1.15-5.16,1.6a28,28,0,0,1-5.62.73,22.65,22.65,0,0,1-4.51,0,40.38,40.38,0,0,0-5.5.13c-2.08,0-4.15,0-6.23,0-.56,0-2.58-.28-3,.28-.59.74,1,1,1.53,1.1a37,37,0,0,0,6.71,1.36,66.48,66.48,0,0,1,7.6.89c1.44.28,2.8.24,4.26.5a27.2,27.2,0,0,0,4,.1,10.22,10.22,0,0,0,3.7-.21c1.08-.37,2-1.14,3.06-1.42a7.15,7.15,0,0,1,5.25.47c1.59.93,2.57,1.74,4.48,1.78,1.42,0,2.76-.87,4.17-.33a17.83,17.83,0,0,1,2.28,1.21,7.64,7.64,0,0,0,4.07,1.46,4,4,0,0,0,2.06-.57c.42-.23.82-.67,1.33-.67.78,0,1.85.74,2.75.8a44,44,0,0,1,4.59.17c3.54.6,4.91,1.81,8.6,1,1.44-.32,2.9-.49,4.36-.71,1.08-.16,2.1-.68,3.14-.78,2.18-.21,4,1.84,6.29,1.16,2.45-.75,4.65-2.36,7.3-2a15,15,0,0,1,3.75,1.31,17.11,17.11,0,0,0,3.56,1.52c3.41.64,6.78-1.25,9.86-2.28a17.21,17.21,0,0,0,3-1c.54-.3.85-.92,1.36-1.19,1.38-.72,3.52.37,4.85.75,2.24.64,3.62.07,5.68-.92,1.36-.65,3.08-1.7,4.63-1.61s3.09,1,4.69,1.32a7.85,7.85,0,0,0,5.35-.84c.9-.46,1.42-.78.27-1.06-1.43-.35-3-.22-4.46-.5-2.49-.46-4.39-2-7.09-1.74-1.34.13-2.45,1-3.77.89-1-.08-1.94-.35-2.93-.44-1.23-.11-1.62-.68-2.61-1.41-1.41-1.06-2.12-.73-3.69-.89-1.85-.18-2.46-3.43-4.25-4.35-2.75-1.42-3.9,1.45-6.1,1.93-2.35.52-3.29-1.52-4.68-2.88C190.41,51.86,189.18,52.83,188.24,52.06Z" style="fill:#455a64"></path><path id="freepik--cloud--inject-5" d="M98,87.29a8,8,0,0,0-3.84,1.61c-1.5,1.14-3,2.86-5,3-1.46.11-3.11.39-3.83,1.82-.15.3-.15,1.27-.53,1.37s-1.18-.53-1.58-.6a5.77,5.77,0,0,0-4,.66c-2.52,1.5-5.73.71-8.49.75a11.94,11.94,0,0,0-2.39.22,4.57,4.57,0,0,1-2.4-.19c-1.81-.37-2.29,1.2-3.5,2.16a15.52,15.52,0,0,1-5.18,2.22,34.43,34.43,0,0,1-5.31,1.25c-.62.08-7.16-.25-7,.63.1.58,1.86.46,2.25.49.58,0,1.15.17,1.74.19a4.78,4.78,0,0,1,1.77.11c.36.16.59.48,1,.6a4.39,4.39,0,0,0,2.79-.24,9.53,9.53,0,0,1,3.28-1,5.05,5.05,0,0,1,1.52.55,5.18,5.18,0,0,0,3.14,0,5,5,0,0,1,2.16-.45c.36.1.76.47,1.14.61a7.78,7.78,0,0,0,1.53.38c1.86.25,3.68-.82,5.43-1.29s3.57-.45,4.8.7c.44.41.75.94,1.17,1.38,1.48,1.55,3.87,1.64,6,2.07,2.84.57,5.52,2,8.24.1a1.81,1.81,0,0,1,.61-.33,1.24,1.24,0,0,1,.6.06c.67.19,1.27.56,1.94.76a4.12,4.12,0,0,0,4.41-1.53,1.56,1.56,0,0,1,.53-.58c.5-.27,1.07.14,1.53.48a8.28,8.28,0,0,0,8.08,1,3.89,3.89,0,0,0,2.41-2.41,7.65,7.65,0,0,0,9.92-1.3c1.57,1.62,3.89,2.85,6,2.18a6.7,6.7,0,0,0,2.06-1.17,1.69,1.69,0,0,1,.89-.45,1.81,1.81,0,0,1,.79.2,6.32,6.32,0,0,0,5.55-.48c.33-.2.67-.5.65-.88s-.65-.72-1.14-.78c-2.07-.27-4.29,0-6.13-1a3.13,3.13,0,0,0-1.43-.56c-.53,0-1,.35-1.54.31-.76-.07-1.19-.87-1.76-1.37a2.61,2.61,0,0,0-3.69.45,3,3,0,0,0-4-1.32,6.73,6.73,0,0,0-1.56-3.16,3.47,3.47,0,0,0-5,.57,4.72,4.72,0,0,0-1.93-2.79,2.63,2.63,0,0,0-3.19.26,4.89,4.89,0,0,0-3.27-4.46c-.91-.32-1.88-.27-2.81-.51A8.74,8.74,0,0,0,98,87.29Z" style="fill:#455a64"></path></g><g id="freepik--Light--inject-5"><path id="freepik--light--inject-5" d="M316.49,72.66,72.15,148.84l-.54.73C18,224.65-1.7,342.17,63.86,404.9c40.87,39.11,105,69.92,205.93,64.57,53.23-2.83,108.45-21.78,147.55-51.92l9.53-186.24V136.69Z" style="fill:#3B3B3B;opacity:0.2"></path></g><g id="freepik--Shadow--inject-5"><path id="freepik--shadow--inject-5" d="M404.75,367.39,194.59,246.05a7.18,7.18,0,0,0-6.51,0L24.72,326.89c4.74,29.72,17.13,56.95,39.14,78,40,38.23,102.15,68.5,199.15,64.85l141.74-98.61C406.54,370.1,406.54,368.42,404.75,367.39Z"></path><polygon id="freepik--shadow--inject-5" points="295.17 255.65 236.57 221.72 185.19 251.38 243.79 285.32 295.17 255.65"></polygon></g><g id="freepik--Window--inject-5"><g id="freepik--window--inject-5"><polygon points="319.44 165.52 426.87 227.84 426.87 136.69 319.44 74.39 319.44 165.52" style="fill:#3B3B3B"></polygon><g style="opacity:0.55"><polygon points="319.44 165.52 426.87 227.84 426.87 136.69 319.44 74.39 319.44 165.52"></polygon></g><path d="M425.47,200.07c-.06.21-.19.43-.35.24a7.22,7.22,0,0,1-.36-1.65c-.12-.69-.23-1.37-.31-2a36.39,36.39,0,0,1-.28-4.11L424,181.44c0-1.7.16-3.25.13-4.93a27.85,27.85,0,0,0-1.56-7.06,13.2,13.2,0,0,1-.62-3.36c-.33.1,0,1.93,0,2.4.14.94.35,1.88.55,2.82a11.36,11.36,0,0,1,.32,2.66,6.68,6.68,0,0,1-.65,3.34c-.26.36-1.05-.77-1.36-1.15a15.06,15.06,0,0,1-1.47-2.08,14.59,14.59,0,0,1-1.73-4.4c-.16-.81-.24-1.61-.41-2.42a13.11,13.11,0,0,0-.72-2.36c-.22-.53-.54-1.1-.87-1.16a12.72,12.72,0,0,1,.87,2.52c.45,2,.4,3.93,1.05,5.84a10.17,10.17,0,0,1,.64,2.11.52.52,0,0,1,0,.22.1.1,0,0,1-.12,0,2.2,2.2,0,0,1-.88-.5,28,28,0,0,1-4.76-4.1,10.65,10.65,0,0,1-1.9-2.81,32.88,32.88,0,0,1-1.44-3.74,48.45,48.45,0,0,1-1.2-4.93c-.2-1-.36-2-.63-3s-.58-2.13-.95-3.17a18.91,18.91,0,0,0-2.47-5.06c-.2-.26-.42-.51-.34,0a6.57,6.57,0,0,0,.63,1.31,25.47,25.47,0,0,1,1.24,2.63,30,30,0,0,1,1.09,5,2.32,2.32,0,0,1,0,1.34c-.11.19-.34.27-.3.6a1.53,1.53,0,0,0,.14.41,27.2,27.2,0,0,1,1.39,4.29c.2.75.4,1.5.63,2.25a17.19,17.19,0,0,0,.52,1.77c-.34-.4-.67-.84-1-1.28a32.18,32.18,0,0,1-3.59-5.68,44.33,44.33,0,0,0-3.13-6.24,25.83,25.83,0,0,0-4.42-4.93,10.36,10.36,0,0,0-2.44-1.76,4.5,4.5,0,0,1-2-1.73,4.76,4.76,0,0,0-.54-.79,1.12,1.12,0,0,0-1.32-.21c-.62.2-1.23-.2-1.92-.56-.9-.47-1.8-.88-2.69-1.45A20.65,20.65,0,0,1,383.1,140c-.85-.77-1.65-1.76-2.47-2.57-.05.09,0,.26.07.38a14.15,14.15,0,0,0,3.93,4.69,34.07,34.07,0,0,0,5.17,3.26,43.43,43.43,0,0,1,4.93,2.88,23.19,23.19,0,0,1,4.9,4.79,14.72,14.72,0,0,1,1.68,2.68c.18.37.34.75.5,1.14a9.66,9.66,0,0,0-2.68-2.23,4.46,4.46,0,0,0-1.67-.56c-.52-.06-1,.07-1.53,0a6,6,0,0,1-2.55-.78c-.42-.23-.87-.55-1.25-.45a7.62,7.62,0,0,0,3.55,2.36,13.06,13.06,0,0,1,3.4.92,9.28,9.28,0,0,1,3,2.6c.48.61.94,1.31,1.39,2l.25.41a34.26,34.26,0,0,0,2.24,3.7,28.37,28.37,0,0,0,1.85,2.47A4,4,0,0,1,409,170a3.31,3.31,0,0,0,.06.55,2.29,2.29,0,0,0,.85,1.24,13.66,13.66,0,0,0,2.45,1.6,11.37,11.37,0,0,1,2.84,2.36,23.82,23.82,0,0,1,4,4.44,12.91,12.91,0,0,1,1.76,4.44,19.59,19.59,0,0,1,.23,2.61l.23,5.74a16.53,16.53,0,0,1,.11,2.85c-.13.58-.7.33-1.08.16a15.07,15.07,0,0,1-3.93-2.29,11.34,11.34,0,0,1-3.42-4.65c-.76-2.18-1.33-4.42-2-6.63a10.84,10.84,0,0,1-.8-3,1.85,1.85,0,0,0-.18-1,.84.84,0,0,0-.39-.27c-.61-.31-1.13-1.63-1.64-2.37s-1.18-1.65-1.78-2.45c-.35-.47-.69-1-1-1.45a2.69,2.69,0,0,0-.44-.53c-.19-.09-.23.17-.09.43a36.69,36.69,0,0,0,2.14,3.26,22.31,22.31,0,0,1,1.88,3.46,27.14,27.14,0,0,1,1.22,4.09c.29,1.14.51,2.3.83,3.43q.15.55.33,1.11a11.49,11.49,0,0,0-2.08-1.87c-2.2-1.59-4.33-1.57-6.52-2.63a11.85,11.85,0,0,1-2.41-1.58A8,8,0,0,1,398,178.4c-.24-.48-.47-1-.69-1.49l-1.47-3.32a15.76,15.76,0,0,0-.8-1.65,3.78,3.78,0,0,0-1-1.23s-.09-.06-.12,0,0,.15,0,.23a1,1,0,0,0,.13.2,7.44,7.44,0,0,1,1.06,1.89c.21.54.39,1.1.57,1.66s1.26,3.14.81,3.37c-.18.09-.42-.09-.64-.26a53.62,53.62,0,0,1-4.52-4.24,28,28,0,0,0-4-3.94,10,10,0,0,0-2.68-1.29,7.17,7.17,0,0,0-3.28-.09,10.42,10.42,0,0,0-1.47.33,3.08,3.08,0,0,1-1.79-.3s-.07,0-.1,0a.25.25,0,0,0,0,.22.49.49,0,0,0,.14.17,3.41,3.41,0,0,0,3,.88,7.75,7.75,0,0,1,2.34.11,10.33,10.33,0,0,1,6.77,4.26,1.88,1.88,0,0,1,.4.84c0,.26,0,.47,0,.72a1.37,1.37,0,0,0,.71,1.1,2.7,2.7,0,0,0,.89.07c1.15.14,2.39,1.64,3.49,2.76l.57.57a29.88,29.88,0,0,0,7.31,5.35c1.13.57,2.24.84,3.37,1.33a8.76,8.76,0,0,1,3.21,1.8,20.58,20.58,0,0,1,2.71,4.39A10.59,10.59,0,0,0,414.4,195a22.38,22.38,0,0,0,2.15,1.84,19.21,19.21,0,0,1,5,5.27,16.61,16.61,0,0,1,1.8,4.44c.13.51.23,1,.36,1.53.31,1.19.77,2.35,1,3.54.06.28.1.61,0,.73a.21.21,0,0,1-.22,0c-.52-.2-.92-1.12-1.33-1.76s-1-1.26-1.43-2A18.69,18.69,0,0,1,420.5,206a19.71,19.71,0,0,0-2.08-4.27,2.05,2.05,0,0,0-.81-.74.79.79,0,0,0,.15.51,10.61,10.61,0,0,1,.94,1.73,5.11,5.11,0,0,1,.48,1.68.71.71,0,0,1,0,.3.17.17,0,0,1-.2.13,1.12,1.12,0,0,1-.46-.28,23.34,23.34,0,0,0-7.33-4,10.86,10.86,0,0,1-3-1.53,7.17,7.17,0,0,1-2.74-4.36q-.09-.79-.15-1.59a.83.83,0,0,0-.16-.52,5.77,5.77,0,0,0-.2,1.83c0,.51.07,1.05.13,1.58,0,.3.22.92,0,1-.07,0-.16,0-.24-.1a15.16,15.16,0,0,1-1.94-1.72c-.64-.69-1.25-1.5-1.88-2.24-.1.17.07.53.22.75.3.45.6,1,.91,1.36s.75.9,1.13,1.31a23.71,23.71,0,0,0,6.07,4.56.59.59,0,0,1,.29.31.51.51,0,0,1-.14.56,5.65,5.65,0,0,1-5.92.77,10.66,10.66,0,0,1-3.29-2.65c-.05.07,0,.26.1.38a12.23,12.23,0,0,0,1.94,2.32,5.25,5.25,0,0,0,2.22,1.24,8,8,0,0,0,3.62.28,6.37,6.37,0,0,0,1.61-.48c.51-.22,1-.37,1.54-.6s1.19.13,1.73.31a14.35,14.35,0,0,1,2,.85c.64.32,1.29.69,1.93,1.09a9.34,9.34,0,0,1,1.18.79,17.4,17.4,0,0,1,3.34,4.17,28.84,28.84,0,0,1,3.15,6.14,27.88,27.88,0,0,1,1.34,6.84c.08,1.22.08,2.39.05,3.54l1,.56V194.9c-.32,1.41-.7,2.76-1.09,4.1C425.68,199.36,425.58,199.71,425.47,200.07Zm-46.87-42c0-.31-.08-.71,0-1a.58.58,0,0,1,.54-.5c2.92-.54,6,1.88,9.1,4.78a35.69,35.69,0,0,1,3.14,3.48c1.34,1.67,2.56,3.13,4.06,3.51.06,0,.13,0,.18,0a.27.27,0,0,0,0-.27.49.49,0,0,0-.13-.15,10.76,10.76,0,0,1-2.41-2.37c-.64-.94-1.3-1.84-2-2.73a31.82,31.82,0,0,0-4.41-5,17.48,17.48,0,0,0-3.6-2.42c-1.92-.94-3.59-.72-5.4-.95a29.5,29.5,0,0,1-6.06-1.3,1.48,1.48,0,0,1-.86-.65c-.61-1,.83-2.77,1.08-3.27a8.26,8.26,0,0,1,.78-1.34A2,2,0,0,1,374,147a.3.3,0,0,0,.18-.06.29.29,0,0,0,0-.29.31.31,0,0,0-.16-.16,1.44,1.44,0,0,0-1.37.07,5,5,0,0,0-1.08,1c-.66.73-1.31,1.46-2,2.18a8.27,8.27,0,0,1-.93.94,2.68,2.68,0,0,1-2.78.38,12.43,12.43,0,0,1-3.24-1.62c-2.94-2-5.79-5.28-8.76-6.58a6.87,6.87,0,0,0-2.78-.7c.15-.32.3-.64.44-1,.42-1,.72-2.23,1.11-3.33a11.74,11.74,0,0,1,1.64-3.6,5.9,5.9,0,0,1,2.53-1.73,9.93,9.93,0,0,0,2.87-1.06c.19-.13.14-.53-.12-.7s-.45,0-.59,0c-.49.05-.94.23-1.42.31a17.56,17.56,0,0,0-2.39.53c-.68.21-1.38,1.18-2.2.64-.18-.12-.37-.28-.52-.24s-.24.64-.25,1.09c0,1.39-.65,1.84-1.06,2.75-.89,1.95-1.66,4.07-2.68,5.83s-3,1.44-4.59.94a20.46,20.46,0,0,1-5.29-3,3.1,3.1,0,0,1-1.44-1.89,19.1,19.1,0,0,1,.14-3.65c.11-2.46.21-4.91.32-7.37a17.34,17.34,0,0,1,.31-3.15,4.4,4.4,0,0,1,2.35-3.24c1.6-.71,3.55,0,5.37.24a8.27,8.27,0,0,1,3.82,1.23,14.74,14.74,0,0,0,3.29,1.66c.45.15,1,.23,1.15-.34a4.14,4.14,0,0,0,.08-.64c.14-1.23.78-1.39,1.5-1.38a9.44,9.44,0,0,0,2.49-.45,8.66,8.66,0,0,0,3-1.51l.35-.15a8,8,0,0,1,1.85-.54,6.26,6.26,0,0,1,4.07,1.2,38.05,38.05,0,0,1,4.57,4,8.22,8.22,0,0,0,4.76,2.32,4.6,4.6,0,0,0-1.68-1.32,15.6,15.6,0,0,1-3.42-2.92c-.7-.77-1.36-1.7-2.06-2.43a11.24,11.24,0,0,0-2.25-1.84,7.18,7.18,0,0,0-3.59-1.16,8,8,0,0,1,.67-.74,3.88,3.88,0,0,1,2.26-1,12.07,12.07,0,0,1,6.58,1.17,59.75,59.75,0,0,1,6.63,3.78,39.53,39.53,0,0,0,6.94,3.63c1.75.65,4,1,5.27-.2a.37.37,0,0,0,.11-.39c-1.12-.2-2.19-.1-3.33-.39a17.18,17.18,0,0,1-3.63-1.43c-1.21-.62-2.42-1.47-3.62-2.24a7.19,7.19,0,0,1-2.59-2.22c-.54-.81-1.16-1.71-1.76-1.77a1.46,1.46,0,0,0-.73.23c-.76.32-1.84-.16-2.72-.81a9.31,9.31,0,0,0-3.27-1.42,10.53,10.53,0,0,0-5.94-.23c-1.7.49-2.84,2.23-4.21,3.52a8.86,8.86,0,0,1-4.81,2.08,9.93,9.93,0,0,1-1.36.15,8,8,0,0,0,.71-1.56c.31-.65.57-1.36.84-2.06a11.31,11.31,0,0,1,1.87-3.6.54.54,0,0,0,.19-.33c0-.38-.25-.84-.4-1.27a3.14,3.14,0,0,1,0-1.8c.39-1.73.68-3.76,1.47-5a6.48,6.48,0,0,1,1.66-1.61c.21-.17.76-.42.84-.79s-.18-.51-.45-.47c-1.35.17-2.51,1.58-3.33,3a20.07,20.07,0,0,0-1.27,2.8,29.75,29.75,0,0,0-.84,3.1,27.51,27.51,0,0,1-1.61,4.77,11.35,11.35,0,0,1-1.94,2.78,3,3,0,0,1-2.55.83,18.8,18.8,0,0,1-6.4-1.88,3,3,0,0,1-1.17-.68.74.74,0,0,1-.17-.25.84.84,0,0,1,0-.31,4.69,4.69,0,0,1,.86-1.84c.87-1.57.81-4.29,1.42-6.22a4.82,4.82,0,0,1,1.17-2c-.44-.43-.87-.16-1.17.21a5.59,5.59,0,0,0-1,2c-.22.83-.32,1.78-.55,2.61a5,5,0,0,1-2.32,3.23,4.44,4.44,0,0,1-2,.52c-.43,0-1.49.31-1.84-.57a15.94,15.94,0,0,1-.87-5.49,10,10,0,0,1,.43-3.09,27.06,27.06,0,0,0,.74-2.92c.09-.53.51-2.51.06-3.16a8.88,8.88,0,0,1-.83,3.55c-.91,2.08-2.06,4-2.1,7.07,0,2.22.22,4.58.18,6.82q-.09,7.32-.2,14.65a39.27,39.27,0,0,1-.37,5.08c-.12.78-.26,1.53-.42,2.26-.08.33-.24,1.62-.49,1.65s-.39-.48-.47-.85l-.42-1.93c-.7-3.25-1.4-6.51-1.87-9.74-.35-2.39-.72-5.11,0-6.83a3,3,0,0,0,.23-.66,7.93,7.93,0,0,0-.64-3.1,17.36,17.36,0,0,1-.48-6.24c.13-2.17,0-4.58,0-6.83a29.54,29.54,0,0,1,.31-5.26,10.58,10.58,0,0,1,.83-2.6c.65-1.38,1.47-2.54,2.63-2.85a13.63,13.63,0,0,0,3.38-.91,9.55,9.55,0,0,0,1.81-1.4c0-.32.89-1,1.06-1.14a8.68,8.68,0,0,1,1.21-1.08l.3-.22-1.55-.89c-.78.51-1.56,1-2.33,1.61a6.55,6.55,0,0,1-1.73,1c-1.85.67-4.05.13-5.68,1.48A6.76,6.76,0,0,0,327.52,91c-.3.44-.58,1.59-1.08,1.56a19.13,19.13,0,0,1-.65-6.15c.07-1.94.29-3.78.25-5.78a19.11,19.11,0,0,0-.22-2.56l-.76-.44a15.08,15.08,0,0,1,0,3.22c-.2,1.77-.57,3.38-.69,5.21-.23,3.51.5,7.53.88,11.36.26,2.55.36,5,.39,7.5,0,1.2,0,2.39,0,3.58,0,.6,0,1.19,0,1.78a12.78,12.78,0,0,0-.07,1.36,18.59,18.59,0,0,0-1.13-3.65,17,17,0,0,0-.76-1.54,15.52,15.52,0,0,1-.6-1.44,5.29,5.29,0,0,0-.7-1.08,20.94,20.94,0,0,1-2.48-3.8c-.16-.33-.3-.67-.45-1v2.77c.69,1.32,1.48,2.48,2.24,3.68a15.2,15.2,0,0,1,2.1,4.34,65,65,0,0,1,1.06,7.44c.47,3.35.81,6.67,1.44,10,.28,1.51.55,3,.82,4.52a72.25,72.25,0,0,0-5-9.17,34.28,34.28,0,0,1-2.67-4.73v2.17c.41.92.84,1.83,1.25,2.73s1.3,2.1,1.42,3.3a7.48,7.48,0,0,0,.14,1.63,4.45,4.45,0,0,0,1.25,1.67,11.26,11.26,0,0,1,1.72,3.47,35.38,35.38,0,0,1,1.87,6.32,26.5,26.5,0,0,1,.28,3,32.88,32.88,0,0,1,.07,4.19,20.84,20.84,0,0,1-.72,3,31.86,31.86,0,0,0-1.36,7.09c0,1-.1,2.61-1,1.67a23.16,23.16,0,0,1-2.12-4c-.67-1.4-1.28-2.88-1.86-4.34-.37-.95-.69-1.89-1-2.83v4.61a29.42,29.42,0,0,0,1.31,3.77,62.18,62.18,0,0,1,2.46,6.13,26.13,26.13,0,0,1,1.36,6.81l6.66,3.86c0-1.36,0-2.7.08-4a18.08,18.08,0,0,1,1.8-7.13c1.1-2,2.6-2.56,4.24-3.35a5.85,5.85,0,0,1,4.48-.42,10.74,10.74,0,0,1,1.58.75c.86.48,1.73,1,2.6,1.54a29.42,29.42,0,0,1,2.63,1.9,9.55,9.55,0,0,1,2.32,2.27c.68,1.08,1.39,2.12,2.08,3.19s1.4,2.18,2.15,3.14a34.47,34.47,0,0,0,4.87,5.25,7.56,7.56,0,0,0,3,1.78,4.59,4.59,0,0,0,2.61-.11.27.27,0,0,0,.13-.36,8.1,8.1,0,0,1-4.42-1.54,17.4,17.4,0,0,1-3.73-3.67,32.72,32.72,0,0,1-4.22-6.56c-.16-.32-.32-.77-.19-1s.25-.05.4,0c2.74,1.6,5.51,3.09,8.14,3.28a8.69,8.69,0,0,0,1.53,0,6.3,6.3,0,0,0,1.22-.42.48.48,0,0,0,.29-.66c-.85,0-1.67.14-2.53.08a9.37,9.37,0,0,1-2.61-.69.64.64,0,0,1-.31-.23c-.31-.45-.06-1,0-1.34.08-.63.15-1.26.17-1.93a10.65,10.65,0,0,0-.26-2.76c-.15-.05-.2.22-.22.44,0,.65-.12,1.29-.2,1.91-.3,2.21-2.31,2.13-3.68,1.6a17.32,17.32,0,0,1-4.08-2.66c-3.27-2.55-6.6-5-9.84-6a1.51,1.51,0,0,1-.63-.34,1.09,1.09,0,0,1-.26-.49,1.48,1.48,0,0,1-.05-.46,2.54,2.54,0,0,1,.64-1.51,3.12,3.12,0,0,1,1.27-.86.39.39,0,0,0,.21-.45,1.27,1.27,0,0,0-1.1-.26c-1.16.22-2,1.43-2.79,2.51a5.57,5.57,0,0,1-1.64,1.58,15.93,15.93,0,0,1-1.92.5c-.56.21-1.08.84-1.79.29a1,1,0,0,1-.3-.35,1.47,1.47,0,0,1,0-1c.35-1.19,1-2,1.38-3.16.18-.48.31-1,.48-1.5a5.48,5.48,0,0,1,2.42-3.17c2-1,4.4-.15,6.7.66a15.7,15.7,0,0,0,2.89.85,2.94,2.94,0,0,0,2-.68c1.13-.75,2.19-1.9,3.64-1.7s2.93,1.57,4.31,2.57,3,2.45,4.52,3.44a27.34,27.34,0,0,0,9.83,4.15l.76.12c1.47.2,3.15.11,4.69,1.7a11.51,11.51,0,0,0,1.19,1.29C378.06,158.76,378.56,158.7,378.6,158.08Zm44.88,3.17a24.24,24.24,0,0,1-1.29-2.24c-.64-1.22-1.3-2.4-1.95-3.59a19.41,19.41,0,0,0-1.56-2.45c-.5-.66-1-.78-1.5-1.26-.28-.25-.6-.45-.81-.29a3.84,3.84,0,0,1,.92.75c.21.23.42.5.62.77a16.24,16.24,0,0,1,1.61,2.62c.32.61.62,1.21.9,1.85a12.55,12.55,0,0,1,.79,1.75c.43.9.87,1.79,1.35,2.62.78,1.32,1.68,2.38,2.52,3.58a14.4,14.4,0,0,1,1.79,3.88V165.8C425.8,164.17,424.56,162.89,423.48,161.25Z" style="opacity:0.55"></path><polygon points="429.82 229.55 426.87 231.31 316.49 167.28 319.44 165.52 429.82 229.55" style="fill:#263238"></polygon><polygon points="373.08 102.38 373.08 200.02 367.5 196.81 367.5 99.16 373.08 102.38" style="fill:#455a64"></polygon><polygon points="375.86 100.76 373.08 102.38 373.08 200.02 375.86 198.41 375.86 100.76" style="fill:#263238"></polygon><path d="M310.92,170.5,432.44,241V133.47L310.92,63Zm5.57-97.84,110.38,64v94.62l-110.38-64Z" style="fill:#455a64"></path><polygon points="316.49 167.28 319.44 165.52 319.44 74.39 316.49 72.66 316.49 167.28" style="fill:#263238"></polygon><polygon points="310.92 63.02 313.92 61.3 435.44 131.75 432.44 133.47 310.92 63.02" style="fill:#37474f"></polygon><polygon points="435.44 131.75 432.44 133.47 432.44 240.95 435.44 239.24 435.44 131.75"></polygon><polygon points="373.08 105.58 367.52 102.38 367.52 105.59 373.08 108.8 373.08 105.58" style="fill:#263238"></polygon><polygon points="373.08 108.8 375.86 107.19 373.08 105.58 373.08 108.8" style="opacity:0.15"></polygon><path d="M341.36,126.74l1.72,2s-.23.66-.71.33C341.54,128.43,341.36,126.74,341.36,126.74Z" style="fill:#e0e0e0"></path><path d="M345.48,128.52l-1.57.53s.31.89.77,1C345.49,130.14,345.48,128.52,345.48,128.52Z" style="fill:#e0e0e0"></path><path d="M412.47,154.61l1.72,1.94s-.22.67-.7.33C412.66,156.3,412.47,154.61,412.47,154.61Z" style="fill:#e0e0e0"></path><path d="M416.6,156.38l-1.58.53s.32.89.78,1C416.61,158,416.6,156.38,416.6,156.38Z" style="fill:#e0e0e0"></path><path d="M409.21,210.79l1.72,1.94s-.22.67-.7.33C409.39,212.48,409.21,210.79,409.21,210.79Z" style="fill:#e0e0e0"></path><path d="M413.33,212.56l-1.57.53s.31.89.78,1C413.35,214.18,413.33,212.56,413.33,212.56Z" style="fill:#e0e0e0"></path><path d="M337.74,166.14l1.91,2.45s-.3.7-.85.25A4.47,4.47,0,0,1,337.74,166.14Z" style="fill:#e0e0e0"></path><path d="M342.5,168.81l-1.89.32s.31,1,.86,1.2C342.42,170.61,342.5,168.81,342.5,168.81Z" style="fill:#e0e0e0"></path><path d="M354.51,152l1.42,2.6s-.38.42-.82-.14A3.78,3.78,0,0,1,354.51,152Z" style="fill:#e0e0e0"></path><path d="M358.53,155.87l-1.79-.48a2.16,2.16,0,0,0,.62,1.24C358.2,157.21,358.53,155.87,358.53,155.87Z" style="fill:#e0e0e0"></path><path d="M343.48,93.45l1.42,2.6s-.38.41-.82-.14A3.79,3.79,0,0,1,343.48,93.45Z" style="fill:#e0e0e0"></path><path d="M347.5,97.31l-1.8-.49a2.22,2.22,0,0,0,.63,1.25C347.16,98.65,347.5,97.31,347.5,97.31Z" style="fill:#e0e0e0"></path><path d="M399.5,172.75l1.42,2.6s-.38.41-.82-.14A3.79,3.79,0,0,1,399.5,172.75Z" style="fill:#e0e0e0"></path><path d="M403.52,176.61l-1.79-.49a2.18,2.18,0,0,0,.62,1.25C403.19,177.94,403.52,176.61,403.52,176.61Z" style="fill:#e0e0e0"></path><path d="M383.38,184l1.42,2.6s-.38.42-.82-.14A3.78,3.78,0,0,1,383.38,184Z" style="fill:#e0e0e0"></path><path d="M387.4,187.83l-1.8-.48a2.2,2.2,0,0,0,.63,1.24C387.06,189.17,387.4,187.83,387.4,187.83Z" style="fill:#e0e0e0"></path></g></g><g id="freepik--Nightstand--inject-5"><g id="freepik--nightstand--inject-5"><g id="freepik--nightstand--inject-5"><polygon points="282.51 256.92 275.19 252.69 282.51 250.57 282.51 256.92"></polygon><polygon points="245.81 271.76 245.81 278.51 203.56 254.06 203.56 247.32 245.81 271.76"></polygon><polygon points="199.9 194.43 242.15 218.88 242.15 273.88 199.9 249.43 199.9 194.43" style="fill:#263238"></polygon><polygon points="242.15 218.88 289.84 191.34 289.84 246.34 242.15 273.88 242.15 218.88" style="fill:#37474f"></polygon><polygon points="289.84 191.34 247.59 166.9 199.9 194.43 242.15 218.88 289.84 191.34" style="fill:#455a64"></polygon><polygon points="245.81 221 286.18 197.69 286.18 210.38 245.81 233.69 245.81 221" style="fill:#455a64"></polygon><polygon points="245.81 237.92 286.18 214.61 286.18 244.22 245.81 267.53 245.81 237.92" style="opacity:0.2"></polygon><polygon points="245.81 278.51 249.47 276.39 249.47 269.65 245.81 271.76 245.81 278.51" style="fill:#263238"></polygon><polygon points="282.51 256.92 286.18 254.8 286.18 248.46 282.51 250.57 282.51 256.92" style="fill:#263238"></polygon><path d="M258.32,216.44c0,.59,1.75.05,3.9-1.19l6.85-3.95c2.16-1.25,3.9-2.73,3.9-3.32v-1l-14.66,8.46Z" style="fill:#37474f"></path><polygon points="286.18 244.22 260.7 229.32 245.81 237.92 245.81 267.53 286.18 244.22" style="opacity:0.2"></polygon></g><g id="freepik--Lamp--inject-5"><path d="M252.56,185.49a3.34,3.34,0,0,0-.08-.83,12.38,12.38,0,0,0-5.06-7.53H236.87a12.38,12.38,0,0,0-5.06,7.53,3.29,3.29,0,0,0-.08.83s0,.14,0,.14c.1,1.46,1.11,2.91,3,4a16.27,16.27,0,0,0,14.73,0c1.94-1.11,2.94-2.56,3-4C252.55,185.63,252.56,185.54,252.56,185.49Z" style="fill:#263238"></path><path d="M237.14,177c-2.77,1.59-2.77,4.18,0,5.78a11,11,0,0,0,10,0c2.77-1.6,2.77-4.19,0-5.78A11,11,0,0,0,237.14,177Z" style="fill:#37474f"></path><path d="M243.58,141.72h-2.87v37h0a.65.65,0,0,0,.41.66,2.21,2.21,0,0,0,2,0,.65.65,0,0,0,.41-.66h0Z" style="fill:#455a64"></path><path d="M262.69,140.47h0L253,115.8H231.27l-9.68,24.67h0c-1.38,3.86.52,8,5.7,11,8.2,4.73,21.49,4.73,29.69,0C262.17,148.5,264.07,144.33,262.69,140.47Z" style="fill:#3B3B3B"></path><path d="M262.69,140.47h0L253,115.8H231.27l-9.68,24.67h0c-1.38,3.86.52,8,5.7,11,8.2,4.73,21.49,4.73,29.69,0C262.17,148.5,264.07,144.33,262.69,140.47Z" style="fill:#fff;opacity:0.4"></path><path d="M234.27,121.71a17.41,17.41,0,0,0,15.75,0c4.34-2.51,4.34-6.58,0-9.09a17.41,17.41,0,0,0-15.75,0C229.93,115.13,229.93,119.2,234.27,121.71Z" style="fill:#3B3B3B"></path><path d="M234.27,121.71a17.41,17.41,0,0,0,15.75,0c4.34-2.51,4.34-6.58,0-9.09a17.41,17.41,0,0,0-15.75,0C229.93,115.13,229.93,119.2,234.27,121.71Z" style="fill:#fff;opacity:0.7000000000000001"></path><path d="M242.15,122a13.87,13.87,0,0,1-6.82-1.61c-1.6-.92-2.47-2.07-2.47-3.24s.87-2.31,2.47-3.23a15.23,15.23,0,0,1,13.63,0c1.6.92,2.47,2.07,2.47,3.23s-.87,2.32-2.47,3.24A13.85,13.85,0,0,1,242.15,122Z" style="fill:#3B3B3B"></path></g></g></g><g id="freepik--Character--inject-5"><g id="freepik--Bed--inject-5"><path d="M59.66,327l-4.54-2.6a5.19,5.19,0,0,1-2.35-4.07V250.05A5.19,5.19,0,0,1,55.12,246L185.3,170.82a5.19,5.19,0,0,1,4.7,0l4.55,2.6a5.19,5.19,0,0,1,2.35,4.07v70.29a5.19,5.19,0,0,1-2.35,4.07L64.36,327A5.19,5.19,0,0,1,59.66,327Z" style="fill:#455a64"></path><path d="M196.9,177.49v70.29a5.21,5.21,0,0,1-2.35,4.07L64.36,327c-1.29.75-2.35.14-2.35-1.36V255.37a5.22,5.22,0,0,1,2.36-4.08l130.18-75.16C195.85,175.38,196.9,176,196.9,177.49Z" style="fill:#263238"></path><path d="M63.82,327.26a5.26,5.26,0,0,1-4.16-.25l-4.54-2.6a5.19,5.19,0,0,1-2.35-4.07V250.05a4.78,4.78,0,0,1,.69-2.32l9.24,5.32a4.83,4.83,0,0,0-.68,2.31v70.29C62,326.93,62.79,327.56,63.82,327.26Z" style="fill:#37474f"></path><path d="M276.64,416.63l-10.88-6.28a2.56,2.56,0,0,0-2.35,0l-10.89,6.28a2.52,2.52,0,0,0-.83.88h0c0,.07-.06.15-.1.22a2.34,2.34,0,0,0-.24.94v17.65h0a2.58,2.58,0,0,0,1.09,2l.08.07,10.89,6.28h0a.59.59,0,0,0,.14.06,1.82,1.82,0,0,0,.41.15,2.56,2.56,0,0,0,.62.07,2.39,2.39,0,0,0,1.18-.28l10.88-6.28a2.61,2.61,0,0,0,1.17-2V418.67A2.59,2.59,0,0,0,276.64,416.63Z" style="fill:#455a64"></path><path d="M265.76,444.64l10.88-6.28a2.61,2.61,0,0,0,1.17-2V418.67c0-.75-.52-1.06-1.17-.68l-10.88,6.28a2.58,2.58,0,0,0-1.18,2V444C264.58,444.71,265.11,445,265.76,444.64Z" style="fill:#37474f"></path><path d="M394.7,348.49l-10.88-6.28a2.56,2.56,0,0,0-2.35,0l-10.89,6.28a2.43,2.43,0,0,0-.83.88h0c0,.07-.06.15-.1.22a2.33,2.33,0,0,0-.24.93v17.66h0a2.6,2.6,0,0,0,1.09,2l.08.07,10.89,6.28h0s.09,0,.14.06a1.82,1.82,0,0,0,.41.15,2.56,2.56,0,0,0,.62.07,2.39,2.39,0,0,0,1.18-.28l10.88-6.28a2.61,2.61,0,0,0,1.17-2V350.52A2.57,2.57,0,0,0,394.7,348.49Z" style="fill:#455a64"></path><path d="M383.82,376.5l10.88-6.28a2.61,2.61,0,0,0,1.17-2V350.52c0-.75-.52-1-1.17-.67l-10.88,6.28a2.58,2.58,0,0,0-1.18,2v17.66C382.64,376.57,383.17,376.88,383.82,376.5Z" style="fill:#37474f"></path><path d="M193,227.25,66.72,300.15A10.38,10.38,0,0,0,62,308.29v4.46a10.4,10.4,0,0,0,4.71,8.15L259.88,432.42a10.38,10.38,0,0,0,9.4,0l126.3-72.9a10.37,10.37,0,0,0,4.7-8.14v-4.46a10.39,10.39,0,0,0-4.7-8.15L202.42,227.25A10.4,10.4,0,0,0,193,227.25Z" style="fill:#455a64"></path><path d="M400.29,346.92v4.46a10.37,10.37,0,0,1-4.71,8.14l-126.3,72.9a9.58,9.58,0,0,1-4.7,1.12V418.22a9.58,9.58,0,0,0,4.7-1.12l126.3-72.89c2.43-1.42,2.59-3.62.48-5.13A10.51,10.51,0,0,1,400.29,346.92Z" style="fill:#263238"></path><path d="M66.72,305.58c-2.47-1.42-2.59-3.69-.36-5.19a10.45,10.45,0,0,0-4.35,7.9v4.46a10.4,10.4,0,0,0,4.71,8.15L259.88,432.42a9.61,9.61,0,0,0,4.7,1.12V418.22a9.61,9.61,0,0,1-4.7-1.12Z" style="fill:#37474f"></path><path d="M193,201.82,66.72,274.72A10.4,10.4,0,0,0,62,282.87v9.51a10.38,10.38,0,0,0,4.71,8.14L259.88,412.05a10.38,10.38,0,0,0,9.4,0l126.3-72.9a10.39,10.39,0,0,0,4.7-8.14v-9.52a10.4,10.4,0,0,0-4.71-8.14L202.42,201.82A10.46,10.46,0,0,0,193,201.82Z" style="fill:#3B3B3B"></path><path d="M66.72,280.15,259.88,391.67a10.38,10.38,0,0,0,9.4,0l126.3-72.89c2.6-1.5,2.6-3.93,0-5.43L202.42,201.82a10.46,10.46,0,0,0-9.41,0L66.72,274.72C64.12,276.22,64.12,278.65,66.72,280.15Z" style="fill:#fff;opacity:0.8"></path><path d="M400.29,321.49V331a10.38,10.38,0,0,1-4.71,8.14l-126.3,72.9a9.58,9.58,0,0,1-4.7,1.12V392.8a9.58,9.58,0,0,0,4.7-1.12l126.3-72.9c2.43-1.41,2.59-3.61.48-5.12A10.49,10.49,0,0,1,400.29,321.49Z" style="fill:#fff;opacity:0.5"></path><path d="M66.72,280.15c-2.47-1.42-2.59-3.68-.36-5.18a10.44,10.44,0,0,0-4.35,7.9v9.51a10.38,10.38,0,0,0,4.71,8.14L259.88,412.05a9.61,9.61,0,0,0,4.7,1.12V392.8a9.61,9.61,0,0,1-4.7-1.12Z" style="fill:#fff;opacity:0.6000000000000001"></path><path d="M112.24,306.44v35.65l152.34,88V392.8a9.55,9.55,0,0,1-4.7-1.13Z" style="fill:#3B3B3B"></path><path d="M112.24,306.44v35.65l152.34,88V392.8a9.55,9.55,0,0,1-4.7-1.13Z" style="opacity:0.45"></path><path d="M395.58,318.78c2.43-1.41,2.59-3.61.48-5.12a10.49,10.49,0,0,1,4.23,7.83v30.22L264.58,430V392.8a9.63,9.63,0,0,0,4.7-1.12Z" style="fill:#3B3B3B"></path><path d="M395.58,318.78c2.43-1.41,2.63-3.68.48-5.12a10.48,10.48,0,0,1,4.23,7.83v30.22L264.58,430V392.8a9.63,9.63,0,0,0,4.7-1.12Z" style="opacity:0.30000000000000004"></path><path d="M395.58,313.35,247.92,228.1,112.24,306.44l147.64,85.23a10.38,10.38,0,0,0,9.4,0l126.3-72.89C398.18,317.28,398.18,314.85,395.58,313.35Z" style="fill:#3B3B3B"></path><polygon points="123.08 312.69 123.08 348.42 125.29 349.62 125.28 313.96 123.08 312.69" style="opacity:0.2"></polygon><polygon points="260.58 235.4 125.28 313.96 123.08 312.7 258.38 234.13 260.58 235.4" style="opacity:0.2"></polygon><path d="M224.5,223.31c1.53-5.59-.73-8.5-3.81-13.69s-10.23-15.22-13.17-19.51-6.19-8.53-8-9.12-2.94-1.3-7.59.38-14.3,7.41-26.23,14-27.87,15.94-28.6,22.38c-.46,4,20.57,39.08,25.68,39.61,11.38,1.16,23.36-7.32,29.7-11.14,10.56-6.37,18.12-11.07,25.43-16C221.27,227.93,223.79,225.9,224.5,223.31Z" style="fill:#f0f0f0"></path><path d="M142.68,231.82c2.78,4.52,10.88,16.76,13.7,20.39s7.71,7.74,8.85,3.1-3.22-10.52-6.17-15.13-11.22-15.48-13.9-19-7.14-7-8.19-2.86S139.89,227.3,142.68,231.82Z" style="fill:#e0e0e0"></path><path d="M160.78,260.5c1.53-5.59-.73-8.5-3.81-13.69s-10.23-15.22-13.17-19.51-6.19-8.53-8-9.12-2.94-1.3-7.59.38S114,226,102,232.55s-27.86,15.94-28.6,22.38C73,258.92,94,294,99.11,294.54c11.38,1.16,23.36-7.32,29.7-11.14,10.56-6.37,18.12-11.07,25.43-16C157.55,265.12,160.07,263.09,160.78,260.5Z" style="fill:#f0f0f0"></path><path d="M79,269c2.78,4.52,10.89,16.76,13.7,20.39s7.71,7.74,8.85,3.1S98.29,282,95.34,277.37s-11.22-15.48-13.9-19-7.14-7-8.19-2.86S76.17,264.49,79,269Z" style="fill:#e0e0e0"></path></g><g id="freepik--character--inject-5"><polygon points="303.43 311.72 348.1 285.93 247.92 228.1 207.46 251.37 303.43 311.72" style="fill:#3B3B3B"></polygon><polygon points="258.73 234.3 231.47 250.04 233.75 251.37 261 235.63 258.73 234.3" style="opacity:0.2"></polygon><g id="freepik--character--inject-5"><g id="freepik--Top--inject-5"><path d="M189.35,203.59c6.51.85,7.6,3,9.4,5.67,1.59,2.33,7.16,13.36,7.16,13.36l-12.29,4.32Z" style="fill:#3B3B3B"></path><path d="M168.88,202.34c-3.79.46-9.95,1.33-13.69,2,0,0-12,21.81-12.65,40-.33,9.8.88,26.52,5,32.24,7.72-11,30.35-26.82,52-25.47,0,0-1.09-5.58-3.85-8.42a46.46,46.46,0,0,0,1.93-9.17c.76-6-1.41-23.85-8.28-29.93l-8.9-1.28Z" style="fill:#455a64"></path><path d="M155.19,205.51c-11,2.26-12,3.75-14.2,8.79-1.59,3.59-9.67,26.24-10.89,33-1.72,9.5.49,13.81,7.15,13.13,7.77-.8,21.16-5,31-13.61,2.74-2.39-3.6-13.07-6.64-9.95s-13.62,5-13.62,5L153.63,229S160.7,216.81,155.19,205.51Z" style="fill:#ffa8a7"></path><path d="M148,241.89l1.07-2.46c-6.91-.65-12.8,5.61-14.55,10.11C138.61,244,144,242.56,148,241.89Z" style="fill:#f28f8f"></path><path d="M155.19,204.37c-5.64.94-9.2,2-11.73,5-2.67,3.15-4.53,8.93-7.07,16.19-2.33,6.67-4.33,13.22-4.33,13.22s7.51-3.17,16.57,2.06c0,0,5-11.27,6.56-14.64C157,222.24,159.81,211.44,155.19,204.37Z" style="fill:#3B3B3B"></path><path d="M165.54,165.85A5.48,5.48,0,0,0,160,168.6c-2,3-.35,9,1.22,15.27a47.36,47.36,0,0,0,4.21,11.37,4.77,4.77,0,0,0,2.78,2.21L168,190l0-4.69s2.74-.84,3.34-8.75c.37-4.8-.56-6.74-.56-6.74Z" style="fill:#263238"></path><circle cx="184.89" cy="174.15" r="13.87" transform="translate(-53.13 262.81) rotate(-63.72)" style="fill:#263238"></circle><path d="M182.54,200.38s4.61.47,6.62,0c3.66-.92,5.53-3.07,6.32-6.82,1.5-7.07,1.32-15.4-.35-25.44-3.83-3-16.36-3.36-24.36,1.75.41,6.78-1.46,9.8-1.44,12.26,0,1.91-.18,2.44-1.07,2.58-1.4.23-1.72-2.09-3.71-3.47-1.25-.86-5.08-1.94-6.77,1.67s1.24,8,3.8,9.21c2.88,1.34,4.48,0,4.48,0l-.83,11.51c3.89,6.28,16,7.81,16.62,2.21Z" style="fill:#ffa8a7"></path><path d="M182.54,200.38c-4.51-.39-9.2-2-11.08-4.5a19.14,19.14,0,0,1-2.77-6.43s.38,5.39,2,8,6,4.52,11.63,4.86C182.32,202.11,182.54,200.38,182.54,200.38Z" style="fill:#f28f8f"></path><path d="M176.94,182.53a2.44,2.44,0,1,0,2.82-2A2.43,2.43,0,0,0,176.94,182.53Z" style="fill:#f28f8f"></path><path d="M190.39,182.85a2.37,2.37,0,1,0,1.72-2.87A2.36,2.36,0,0,0,190.39,182.85Z" style="fill:#f28f8f"></path><path d="M178.16,181.27a1.68,1.68,0,1,0,1.94-1.37A1.68,1.68,0,0,0,178.16,181.27Z" style="fill:#263238"></path><path d="M190.37,181.58a1.68,1.68,0,1,0,1.22-2A1.69,1.69,0,0,0,190.37,181.58Z" style="fill:#263238"></path><path d="M196.88,160.47a.47.47,0,0,0-.24,0,.84.84,0,0,0-.41.27,4.32,4.32,0,0,1-2.27,1.07c.35-1.64.49-3.49-.48-4.85a1.34,1.34,0,0,0-.95-.64,1.66,1.66,0,0,0-1,.47,7,7,0,0,1-4,1.45,4.64,4.64,0,0,0,.74-1.39,1.74,1.74,0,0,0,0-1.13,18.32,18.32,0,0,1-6,1.37c-2,.2-4.11-.27-6.16-.19-4.19.14-9.26,1.87-11.14,6-.86,1.87-1,3.84.72,5.12a11.83,11.83,0,0,0,5.12,1.9c8.37,1.42,19,5.4,25.16-2.42a7.32,7.32,0,0,0,1.37-6.29A1.06,1.06,0,0,0,196.88,160.47Z" style="fill:#263238"></path><path d="M177.48,177.81l3.37-2.32a2.16,2.16,0,0,1-.55,2.93A2,2,0,0,1,177.48,177.81Z" style="fill:#263238"></path><path d="M189.61,175.05l3.44,2.29a2,2,0,0,1-2.81.63A2.17,2.17,0,0,1,189.61,175.05Z" style="fill:#263238"></path><polygon points="184.78 178.67 185.92 188.27 191.17 186.29 184.78 178.67" style="fill:#f28f8f"></polygon><path d="M186.15,194.23c-1,.65-1.57-.33-3.27-1s-3.32.13-3.09-1.29,2.87-2.36,4.58-1.65S187.26,193.5,186.15,194.23Z" style="fill:#b16668"></path><path d="M183,193.06a2.88,2.88,0,0,1,.46.24,2.13,2.13,0,0,0-1.81-2.32,1.2,1.2,0,0,0-1.68.81C179.62,193.18,181.3,192.35,183,193.06Z" style="fill:#f28f8f"></path></g></g><path d="M112.24,306.44c8.08-4.79,16.82-9.81,21.33-12.32,3.48-1.94,5.49-4.5,7.43-8.43,4.16-8.41,8.87-36.18,17.08-46.25s34.62-20.1,41.33-21.54c4.69-1,10,1,10,1A67.08,67.08,0,0,1,223,217.27c5.74,0,10,1.41,17.54,17.1,7.6,15.89,15.19,33.62,19.21,37.11s15.84,8.85,18.14,12.84,25.57,27.4,25.57,27.4l-91.18,52.64Z" style="fill:#3B3B3B"></path><path d="M152.32,284.51c6.05-21.25,9-35.94,21.75-45.95S201,223.5,205.24,223.61l.39,2.77a80.1,80.1,0,0,0-23.33,10.46C171.12,244.15,166,247.75,152.32,284.51Z" style="opacity:0.2"></path><path d="M200.87,231.64c10.52-5.66,20.31-8.85,24.35-3.91.1.12.19.24.28.37,3.33,4.67,5,10.17,6.38,15.66,1.07,4.16,12.49,40.16,13,44.76.25,2.15,0,4.05-2,2.13s-3.58-4.78-4.94-7.3c-4.32-8-16.18-34.36-21.78-41.25S208.5,232.45,200.87,231.64Z" style="opacity:0.1"></path><path d="M233.59,311.72c-1.58-5.94-4.35-7.55-10.87-13.84s-13.63-43.82-24-51.54-28.57-2.48-24.72-5.68l-4.11-10.37c-4.95,2.88-9.28,6-11.84,9.15-8.21,10.07-12.92,37.84-17.08,46.25-1.94,3.93-3.95,6.49-7.43,8.43-4.51,2.51-13.25,7.53-21.33,12.32l100,57.92Z" style="opacity:0.1"></path><path d="M123.08,312.72c15.28-8.54,23.09-15.78,25.21-18.6-5,9.93-23,19.87-23,19.87Z" style="opacity:0.2"></path><path d="M230,219.12c4.83,5.11,9.77,17.29,16.35,32.25s7.69,19.94,14.29,23.56,15,7.54,16.54,14.16,8.14,7.89,8.14,7.89-4.36-1.35-5.24-4.85-.46-6.44-4.58-10.8c-4.32-4.58-14.39-8.32-16.73-11.48-2.71-3.67-10.72-19.68-15.3-29.22S235.13,222.08,230,219.12Z" style="fill:#fff;opacity:0.2"></path><path d="M190,234.37c7.71-3.69,17.85-4.27,23.44,1.91S238,283.35,238,283.35s-12.55-24-18.33-33.18-7.81-13.89-12.83-15.8C200.72,232.07,195.28,232.8,190,234.37Z" style="fill:#3B3B3B"></path><path d="M190,234.37c7.71-3.69,17.85-4.27,23.44,1.91S238,283.35,238,283.35s-12.55-24-18.33-33.18-7.81-13.89-12.83-15.8C200.72,232.07,195.28,232.8,190,234.37Z" style="fill:#fff;opacity:0.2"></path><path d="M196,218.82c1.77-.39,2.36-.2,2.87.87.79,1.66.9,3,.64,3.31a6.8,6.8,0,0,0-1.59,3.22,2,2,0,0,0,0,.84.9.9,0,0,0,.52.63,1.18,1.18,0,0,0,1.15-.41,2.84,2.84,0,0,1,1-.79.57.57,0,0,1,.26,0,.8.8,0,0,1,.24.13,1.92,1.92,0,0,0,1.61.11,4.59,4.59,0,0,0,1.42-.85,1.19,1.19,0,0,0,1.47.52,3.41,3.41,0,0,0,1.35-1,1.35,1.35,0,0,0,1,0,3.66,3.66,0,0,0,1.89-2.46c.39-1,.63-2.1.94-3.15.5-1.7-2.22-5.68-3.73-6.33s-1.47,1.11-2.54.94-1.85-1.09-3.05-1-1.54,1.15-2.25,1.2-4.22-.63-5.47.6-2.8,5.43-2.8,5.43Z" style="fill:#ffa8a7"></path><path d="M173.28,223.84h-.12a2.34,2.34,0,0,0-1.52.6,3.6,3.6,0,0,1-.58.59,2.73,2.73,0,0,1-1.43.18,1.64,1.64,0,0,0-1.56.86c-.14.37-.09.83-.39,1.09a1.31,1.31,0,0,1-.62.21,6.17,6.17,0,0,0-1.83.61,3,3,0,0,0-1,.75,4.16,4.16,0,0,0-.56,1c-.25.53-.52,1.05-.75,1.59a12.19,12.19,0,0,0-.34,1.22,17.34,17.34,0,0,0-.64,3.19c1.17-.92,2.26-1.75,3.08-2.3a3.43,3.43,0,0,1,3.12-.11c.52.18,1,.4,1.53.6a5.33,5.33,0,0,1,1.5.68.93.93,0,0,1,.15.13.77.77,0,0,1,.08.19,9.28,9.28,0,0,1,.38,2.62,3.15,3.15,0,0,1,0,.92c-.14.56-.66.88-1,1.32a4.52,4.52,0,0,0-.83,1.67,1.31,1.31,0,0,0-.05.65.6.6,0,0,0,.41.47c.29.06.56-.16.79-.34a11.84,11.84,0,0,1,3-1.53,2.74,2.74,0,0,0,1.86-1.72c.06-.13.22-.64.22-.64a4.16,4.16,0,0,0,1-.11,1.19,1.19,0,0,0,1-1.05c.45-.12,1.23-.28,1.36-.64a3.78,3.78,0,0,0,.18-.89,2,2,0,0,0,1.14-.25.91.91,0,0,0,.32-.43c.31-.81.48-1.51.79-2.32a2.06,2.06,0,0,0,.18-.73,2.15,2.15,0,0,0-.13-.61c-.51-1.56-1-3.12-1.54-4.68a1.35,1.35,0,0,0-.2-.44,4.26,4.26,0,0,0-2.31-1.33,23.93,23.93,0,0,0-3.13-.8A6.53,6.53,0,0,0,173.28,223.84Z" style="fill:#ffa8a7"></path></g><g id="freepik--Signs--inject-5"><path d="M154.82,158.39a.73.73,0,0,1,.58-.86l3.37-.64a.73.73,0,0,1,.86.58l.52,2.7a.75.75,0,0,1-.59.86l-3.37.65a.74.74,0,0,1-.55-.12.7.7,0,0,1-.31-.47ZM152,143.82a.73.73,0,0,1,.58-.86l3.37-.65a.76.76,0,0,1,.55.12.72.72,0,0,1,.31.47L159,154.42a.73.73,0,0,1-.58.86l-3.37.65a.68.68,0,0,1-.55-.12.7.7,0,0,1-.31-.46Z" style="fill:#3B3B3B"></path><path d="M149.19,169.68a.72.72,0,0,1-.18-.53.71.71,0,0,1,.24-.51l2.55-2.28a.7.7,0,0,1,.53-.19.73.73,0,0,1,.51.24l1.84,2.05a.73.73,0,0,1,.18.53.69.69,0,0,1-.24.51l-2.56,2.29a.72.72,0,0,1-.53.18.71.71,0,0,1-.51-.24Zm-9.89-11.06a.68.68,0,0,1-.19-.53.81.81,0,0,1,.24-.51l2.56-2.28a.7.7,0,0,1,.53-.19.73.73,0,0,1,.51.24l7.82,8.75a.65.65,0,0,1,.18.53.71.71,0,0,1-.24.51l-2.55,2.29a.73.73,0,0,1-.53.18.69.69,0,0,1-.51-.24Z" style="fill:#3B3B3B"></path><g style="opacity:0.30000000000000004"><path d="M149.19,169.68a.72.72,0,0,1-.18-.53.71.71,0,0,1,.24-.51l2.55-2.28a.7.7,0,0,1,.53-.19.73.73,0,0,1,.51.24l1.84,2.05a.73.73,0,0,1,.18.53.69.69,0,0,1-.24.51l-2.56,2.29a.72.72,0,0,1-.53.18.71.71,0,0,1-.51-.24Zm-9.89-11.06a.68.68,0,0,1-.19-.53.81.81,0,0,1,.24-.51l2.56-2.28a.7.7,0,0,1,.53-.19.73.73,0,0,1,.51.24l7.82,8.75a.65.65,0,0,1,.18.53.71.71,0,0,1-.24.51l-2.55,2.29a.73.73,0,0,1-.53.18.69.69,0,0,1-.51-.24Z" style="fill:#fff"></path></g><path d="M126.74,251.82a4.36,4.36,0,0,0-.63,2.33,9.27,9.27,0,0,0,.13,2.63,9.73,9.73,0,0,0,2.14,4.38,7.84,7.84,0,0,0,7.31,2.32c.18,0,.13-.39-.05-.39-2.41,0-4.78-.33-6.51-2.17a9.15,9.15,0,0,1-1.87-3.15,9.55,9.55,0,0,1-.61-2.84c-.05-1,.23-2,.19-3.05,0,0,0-.11-.1-.06Z" style="fill:#3B3B3B"></path><path d="M124.29,256.87a7.87,7.87,0,0,0,1.58,5.62,6.42,6.42,0,0,0,2.11,1.94,4.18,4.18,0,0,0,2.79.59c.18,0,.12-.39-.05-.42a7.44,7.44,0,0,1-2.61-.78,6.19,6.19,0,0,1-1.87-1.84,15.18,15.18,0,0,1-1.83-5.15c0-.1-.11,0-.12,0Z" style="fill:#3B3B3B"></path><path d="M149.79,202.34c-1.44-.32-3.21.34-4.52.9a12.35,12.35,0,0,0-3.67,2.43,12.56,12.56,0,0,0-2.51,3.37,9.1,9.1,0,0,0-1.18,4.21c0,.13.13.16.19.05a17.43,17.43,0,0,0,.69-1.87,12.4,12.4,0,0,1,1-2,14.67,14.67,0,0,1,2.65-3.27,14,14,0,0,1,3.43-2.28,13.44,13.44,0,0,1,1.95-.73,15.3,15.3,0,0,0,2-.59c.06,0,.08-.2,0-.21Z" style="fill:#3B3B3B"></path><path d="M143.75,201.12a4.65,4.65,0,0,0-2.4.78,11,11,0,0,0-2.14,1.5,7.92,7.92,0,0,0-2.76,4.6c0,.08.05.17.11.08.49-.71.89-1.47,1.37-2.19a11.54,11.54,0,0,1,1.68-1.95,11,11,0,0,1,2-1.5,22.42,22.42,0,0,0,2.12-1.11s.1-.2,0-.21Z" style="fill:#3B3B3B"></path><path d="M202.51,210.46c.5.06,1,0,1.5,0a9.93,9.93,0,0,1,2,.26,9.21,9.21,0,0,1,3,1.21,9.54,9.54,0,0,1,2.16,1.9,16.12,16.12,0,0,1,1.72,2.95c.08.15.26.08.26-.08a6,6,0,0,0-1.28-3.24,8.53,8.53,0,0,0-2.53-2.44,8.74,8.74,0,0,0-3.38-1.24,5.54,5.54,0,0,0-3.46.39c-.08,0-.09.27,0,.28Z" style="fill:#3B3B3B"></path><path d="M207.15,208.47a3.18,3.18,0,0,0,.92.17,7.47,7.47,0,0,1,1,.23,6.87,6.87,0,0,1,1.7.83,6.34,6.34,0,0,1,1.25,1.12,10.44,10.44,0,0,1,1.18,2c0,.06.08-.05.08-.08a5.31,5.31,0,0,0-2.18-3.43,5.91,5.91,0,0,0-1.85-.91,4.63,4.63,0,0,0-1-.18,1.68,1.68,0,0,0-1,.1c-.05,0-.07.17,0,.2Z" style="fill:#3B3B3B"></path><path d="M192.15,152.91a12.22,12.22,0,0,1,4.23,2,11.16,11.16,0,0,1,2.57,3,12.53,12.53,0,0,1,1.49,4,19.46,19.46,0,0,1,.23,4.76c0,.09.14.34.22.15a9.74,9.74,0,0,0,.5-5.05,11,11,0,0,0-1.78-4.55c-1.56-2.32-4.54-4.49-7.43-4.51-.11,0-.13.24,0,.27Z" style="fill:#3B3B3B"></path><path d="M199.16,153.05a20.06,20.06,0,0,1,2,1.8,9,9,0,0,1,1.39,2.25,8.89,8.89,0,0,1,.71,5.18c0,.07.05.37.19.26.72-.59.65-1.79.6-2.63a9.07,9.07,0,0,0-.73-2.95,9.27,9.27,0,0,0-1.68-2.57,5.14,5.14,0,0,0-2.39-1.68c-.17,0-.17.26-.09.34Z" style="fill:#3B3B3B"></path></g><g id="freepik--Monster--inject-5"><g style="opacity:0.4"><path d="M395.58,313.35,349,286.43c-12.11,2.3-30.5,4.64-39.2-.11-13.58-7.41-18.48-8.46-22.62-9.24s-10.69,2.12-10.69,2.12l10,1.29c-2.05,1.19-4.21,4.55-4.21,4.55a48.22,48.22,0,0,1,9.73.55l-3.32,3.15,5.95.27-4.88,3.87a72,72,0,0,1,11.42,1.35l-8.18,5.95,6.39,1.78c-5.42,3.3-12.93,4.29-12.93,4.29l-.47-3.79a40.24,40.24,0,0,1-10.07,1.23c.69-5,5.91-11.87,5.91-11.87l-9.5.55,3-4.93a89.27,89.27,0,0,1-13.19.57l2.71-4.74-5.81.88s.59-2.44,4.73-5a11.35,11.35,0,0,0-9.2.67c-2.37,1.13-5.88,6-6.23,9.89-.53,5.85.15,10.36,11.4,23.89a71.57,71.57,0,0,0,25.43,19.13s-11.88-8.65-10.84-15.95c6.06,5.36,14.05,10.15,23.89,14l-15,5.12-58.62,1.66-6.37-5.44-.16-8.21,7.9-4.79L216,322.3l-3.78,3.86-.14,5.52-5.36-6.82,3.33-7s-5.8,6.25-6.11,7.78.54,7.58.54,7.58l-7.38-7.63s3.59-6.05,3.88-6.49-7.24,5.69-7.18,6.67,1,3.25,4.7,8.83c3,1.88,15.62,7.6,19.69,8.27s60,4.91,78.36,2.63c13.58-1.68,47.09-8.6,83.42-17.72l15.64-9C398.18,317.28,398.24,314.82,395.58,313.35Zm-108.37,3.17L321,323l-17.93,6.11C292.3,322.85,287.21,316.52,287.21,316.52Z"></path><path d="M254,303.51s-44.35-5.28-51.27-6.34c-7.91-2.83-13-9.72-14.32-10.8s1.32-8.22,1.7-9,7.53-5.15,7.53-5.15l-5.3,5.54.75,8.23,3.92-7.23s11.61-5.32,12.35-5.34,6.65.79,6.65.79l-6.75,1.43L201,280.51l.38,7.93,5.52-7.7,5.92-1.92L224,281l-10.81.14-3.89,2.7-.72,8.36,40.9.1"></path></g><path d="M265.66,297.08c1.48,2,.81,6.49.41,7.12s4.95-.76,4.67-2.69S265.66,297.08,265.66,297.08Z" style="fill:#3B3B3B"></path><path d="M260.33,293.38c-2.52-1.54-8.87-1.8-8.48-2.31a4.34,4.34,0,0,1,4.16-1.21A6.83,6.83,0,0,1,260.33,293.38Z" style="fill:#3B3B3B"></path></g></g></svg>